<mxfile host="Electron" agent="Mozilla/5.0 (Windows NT 10.0; Win64; x64) AppleWebKit/537.36 (KHTML, like Gecko) draw.io/26.0.16 Chrome/132.0.6834.196 Electron/34.2.0 Safari/537.36" version="26.0.16">
  <diagram name="Page-1" id="LFGb-Bz6WokvGtFSf8B8">
    <mxGraphModel dx="1414" dy="797" grid="1" gridSize="10" guides="1" tooltips="1" connect="1" arrows="1" fold="1" page="1" pageScale="1" pageWidth="1600" pageHeight="1200" math="0" shadow="0">
      <root>
        <mxCell id="0" />
        <mxCell id="1" parent="0" />
        <mxCell id="N0iufMa6y9RavnVxZ0Gz-1" value="" style="rounded=0;whiteSpace=wrap;html=1;dashed=1;fillColor=none;" parent="1" vertex="1">
          <mxGeometry x="120" y="280" width="200" height="640" as="geometry" />
        </mxCell>
        <mxCell id="N0iufMa6y9RavnVxZ0Gz-6" value="&lt;font style=&quot;font-size: 20px;&quot;&gt;&lt;b&gt;Sources&lt;/b&gt;&lt;/font&gt;" style="rounded=0;whiteSpace=wrap;html=1;fillColor=default;strokeColor=none;" parent="1" vertex="1">
          <mxGeometry x="150" y="261" width="140" height="40" as="geometry" />
        </mxCell>
        <mxCell id="N0iufMa6y9RavnVxZ0Gz-9" value="" style="rounded=0;whiteSpace=wrap;html=1;fillColor=none;dashed=1;" parent="1" vertex="1">
          <mxGeometry x="360" y="280" width="760" height="640" as="geometry" />
        </mxCell>
        <mxCell id="N0iufMa6y9RavnVxZ0Gz-11" value="&lt;font style=&quot;font-size: 20px;&quot;&gt;&lt;b&gt;Data Warehouse&lt;/b&gt;&lt;/font&gt;" style="rounded=0;whiteSpace=wrap;html=1;strokeColor=none;" parent="1" vertex="1">
          <mxGeometry x="620" y="261" width="240" height="40" as="geometry" />
        </mxCell>
        <mxCell id="N0iufMa6y9RavnVxZ0Gz-14" value="" style="rounded=0;whiteSpace=wrap;html=1;dashed=1;fillColor=none;" parent="1" vertex="1">
          <mxGeometry x="1160" y="280" width="200" height="640" as="geometry" />
        </mxCell>
        <mxCell id="N0iufMa6y9RavnVxZ0Gz-16" value="&lt;span style=&quot;font-size: 20px;&quot;&gt;&lt;b&gt;Consume&lt;/b&gt;&lt;/span&gt;" style="rounded=0;whiteSpace=wrap;html=1;fillColor=default;strokeColor=none;" parent="1" vertex="1">
          <mxGeometry x="1190" y="261" width="140" height="40" as="geometry" />
        </mxCell>
        <mxCell id="N0iufMa6y9RavnVxZ0Gz-17" value="" style="rounded=0;whiteSpace=wrap;html=1;fillColor=none;strokeWidth=2;strokeColor=#d79b00;" parent="1" vertex="1">
          <mxGeometry x="400" y="340" width="200" height="560" as="geometry" />
        </mxCell>
        <mxCell id="N0iufMa6y9RavnVxZ0Gz-18" value="&lt;font style=&quot;font-size: 18px;&quot;&gt;&lt;b style=&quot;&quot;&gt;Bronze Layer&lt;/b&gt;&lt;/font&gt;" style="rounded=0;whiteSpace=wrap;html=1;fillColor=#ffe6cc;strokeColor=#d79b00;strokeWidth=2;" parent="1" vertex="1">
          <mxGeometry x="400" y="311" width="200" height="30" as="geometry" />
        </mxCell>
        <mxCell id="N0iufMa6y9RavnVxZ0Gz-19" value="" style="rounded=0;whiteSpace=wrap;html=1;fillColor=none;strokeWidth=2;fontColor=#333333;strokeColor=#666666;" parent="1" vertex="1">
          <mxGeometry x="640" y="341" width="200" height="560" as="geometry" />
        </mxCell>
        <mxCell id="N0iufMa6y9RavnVxZ0Gz-20" value="&lt;font style=&quot;font-size: 18px;&quot;&gt;&lt;b style=&quot;&quot;&gt;Silver Layer&lt;/b&gt;&lt;/font&gt;" style="rounded=0;whiteSpace=wrap;html=1;fillColor=#f5f5f5;fontColor=#333333;strokeColor=#666666;strokeWidth=2;" parent="1" vertex="1">
          <mxGeometry x="640" y="311" width="200" height="30" as="geometry" />
        </mxCell>
        <mxCell id="N0iufMa6y9RavnVxZ0Gz-21" value="" style="rounded=0;whiteSpace=wrap;html=1;fillColor=none;strokeColor=#d6b656;strokeWidth=2;" parent="1" vertex="1">
          <mxGeometry x="880" y="340" width="200" height="560" as="geometry" />
        </mxCell>
        <mxCell id="N0iufMa6y9RavnVxZ0Gz-22" value="&lt;font style=&quot;font-size: 18px;&quot;&gt;&lt;b style=&quot;&quot;&gt;Gold Layer&lt;/b&gt;&lt;/font&gt;" style="rounded=0;whiteSpace=wrap;html=1;fillColor=#fff2cc;strokeColor=#d6b656;strokeWidth=2;" parent="1" vertex="1">
          <mxGeometry x="880" y="311" width="200" height="30" as="geometry" />
        </mxCell>
        <mxCell id="N0iufMa6y9RavnVxZ0Gz-23" value="&lt;b&gt;CRM&lt;/b&gt;" style="image;aspect=fixed;html=1;points=[];align=center;fontSize=12;image=img/lib/azure2/general/Folder_Blank.svg;" parent="1" vertex="1">
          <mxGeometry x="190" y="370" width="60" height="48.69" as="geometry" />
        </mxCell>
        <mxCell id="N0iufMa6y9RavnVxZ0Gz-39" value="&lt;font style=&quot;font-size: 14px;&quot;&gt;&lt;b style=&quot;&quot;&gt;Object Type&lt;/b&gt;: CSV files&lt;/font&gt;&lt;div&gt;&lt;font style=&quot;font-size: 14px;&quot;&gt;&lt;br&gt;&lt;/font&gt;&lt;/div&gt;&lt;div&gt;&lt;font style=&quot;font-size: 14px;&quot;&gt;&lt;b style=&quot;&quot;&gt;Interface&lt;/b&gt;: Files in folder&lt;/font&gt;&lt;/div&gt;" style="text;strokeColor=none;fillColor=none;align=left;verticalAlign=middle;spacingLeft=4;spacingRight=4;overflow=hidden;points=[[0,0.5],[1,0.5]];portConstraint=eastwest;rotatable=0;whiteSpace=wrap;html=1;" parent="1" vertex="1">
          <mxGeometry x="120" y="580" width="200" height="130" as="geometry" />
        </mxCell>
        <mxCell id="N0iufMa6y9RavnVxZ0Gz-41" value="" style="endArrow=none;html=1;rounded=0;strokeWidth=2;" parent="1" edge="1">
          <mxGeometry width="50" height="50" relative="1" as="geometry">
            <mxPoint x="140" y="600" as="sourcePoint" />
            <mxPoint x="300" y="600" as="targetPoint" />
          </mxGeometry>
        </mxCell>
        <mxCell id="N0iufMa6y9RavnVxZ0Gz-43" value="" style="image;aspect=fixed;html=1;points=[];align=center;fontSize=12;image=img/lib/azure2/general/File.svg;" parent="1" vertex="1">
          <mxGeometry x="237.9" y="390" width="27.9" height="34.36" as="geometry" />
        </mxCell>
        <mxCell id="N0iufMa6y9RavnVxZ0Gz-50" value="&lt;b&gt;&lt;font style=&quot;font-size: 14px;&quot;&gt;Raw Data&lt;/font&gt;&lt;/b&gt;" style="text;strokeColor=none;fillColor=none;align=center;verticalAlign=middle;spacingLeft=4;spacingRight=4;overflow=hidden;points=[[0,0.5],[1,0.5]];portConstraint=eastwest;rotatable=0;whiteSpace=wrap;html=1;" parent="1" vertex="1">
          <mxGeometry x="399" y="555.1699999999998" width="200" height="30" as="geometry" />
        </mxCell>
        <mxCell id="N0iufMa6y9RavnVxZ0Gz-55" value="" style="shape=flexArrow;endArrow=classic;html=1;rounded=0;strokeColor=#6c8ebf;align=center;verticalAlign=middle;fontFamily=Helvetica;fontSize=11;fontColor=default;labelBackgroundColor=default;fillColor=#dae8fc;width=16.47058823529412;endSize=9.823529411764707;" parent="1" edge="1">
          <mxGeometry width="50" height="50" relative="1" as="geometry">
            <mxPoint x="310" y="558.69" as="sourcePoint" />
            <mxPoint x="390" y="558.69" as="targetPoint" />
          </mxGeometry>
        </mxCell>
        <mxCell id="N0iufMa6y9RavnVxZ0Gz-59" value="" style="shape=flexArrow;endArrow=classic;html=1;rounded=0;strokeColor=#6c8ebf;align=center;verticalAlign=middle;fontFamily=Helvetica;fontSize=11;fontColor=default;labelBackgroundColor=default;fillColor=#dae8fc;width=16.47058823529412;endSize=9.823529411764707;" parent="1" edge="1">
          <mxGeometry width="50" height="50" relative="1" as="geometry">
            <mxPoint x="590" y="558.6899999999999" as="sourcePoint" />
            <mxPoint x="650" y="559.29" as="targetPoint" />
          </mxGeometry>
        </mxCell>
        <mxCell id="N0iufMa6y9RavnVxZ0Gz-60" value="" style="shape=flexArrow;endArrow=classic;html=1;rounded=0;strokeColor=#6c8ebf;align=center;verticalAlign=middle;fontFamily=Helvetica;fontSize=11;fontColor=default;labelBackgroundColor=default;fillColor=#dae8fc;width=16.47058823529412;endSize=9.823529411764707;" parent="1" edge="1">
          <mxGeometry width="50" height="50" relative="1" as="geometry">
            <mxPoint x="830" y="560.33" as="sourcePoint" />
            <mxPoint x="890" y="560.9300000000001" as="targetPoint" />
          </mxGeometry>
        </mxCell>
        <mxCell id="N0iufMa6y9RavnVxZ0Gz-61" value="" style="shape=flexArrow;endArrow=classic;html=1;rounded=0;strokeColor=#6c8ebf;align=center;verticalAlign=middle;fontFamily=Helvetica;fontSize=11;fontColor=default;labelBackgroundColor=default;fillColor=#dae8fc;width=16.47058823529412;endSize=9.823529411764707;" parent="1" edge="1">
          <mxGeometry width="50" height="50" relative="1" as="geometry">
            <mxPoint x="1100" y="565.25" as="sourcePoint" />
            <mxPoint x="1180" y="563.4300000000001" as="targetPoint" />
          </mxGeometry>
        </mxCell>
        <mxCell id="N0iufMa6y9RavnVxZ0Gz-62" value="&lt;b&gt;&lt;font style=&quot;font-size: 14px;&quot;&gt;Cleaned, Standardized&amp;nbsp; Data&lt;/font&gt;&lt;/b&gt;" style="text;strokeColor=none;fillColor=none;align=center;verticalAlign=middle;spacingLeft=4;spacingRight=4;overflow=hidden;points=[[0,0.5],[1,0.5]];portConstraint=eastwest;rotatable=0;whiteSpace=wrap;html=1;" parent="1" vertex="1">
          <mxGeometry x="649.5" y="549.3399999999999" width="180" height="41.66" as="geometry" />
        </mxCell>
        <mxCell id="N0iufMa6y9RavnVxZ0Gz-63" value="&lt;b&gt;&lt;font style=&quot;font-size: 14px;&quot;&gt;Business-Ready Data&lt;/font&gt;&lt;/b&gt;" style="text;strokeColor=none;fillColor=none;align=center;verticalAlign=middle;spacingLeft=4;spacingRight=4;overflow=hidden;points=[[0,0.5],[1,0.5]];portConstraint=eastwest;rotatable=0;whiteSpace=wrap;html=1;" parent="1" vertex="1">
          <mxGeometry x="880" y="549.34" width="200" height="30" as="geometry" />
        </mxCell>
        <mxCell id="N0iufMa6y9RavnVxZ0Gz-68" value="" style="endArrow=none;html=1;rounded=0;exitX=0.1;exitY=0.359;exitDx=0;exitDy=0;exitPerimeter=0;strokeWidth=2;fillColor=#fff2cc;strokeColor=#d6b656;entryX=0.9;entryY=0.359;entryDx=0;entryDy=0;entryPerimeter=0;" parent="1" edge="1">
          <mxGeometry width="50" height="50" relative="1" as="geometry">
            <mxPoint x="900" y="599.0010000000001" as="sourcePoint" />
            <mxPoint x="1060" y="599.0010000000001" as="targetPoint" />
          </mxGeometry>
        </mxCell>
        <mxCell id="N0iufMa6y9RavnVxZ0Gz-69" value="" style="endArrow=none;html=1;rounded=0;strokeWidth=2;fillColor=#f5f5f5;strokeColor=#666666;" parent="1" edge="1">
          <mxGeometry width="50" height="50" relative="1" as="geometry">
            <mxPoint x="660" y="599" as="sourcePoint" />
            <mxPoint x="820" y="599" as="targetPoint" />
          </mxGeometry>
        </mxCell>
        <mxCell id="N0iufMa6y9RavnVxZ0Gz-70" value="" style="endArrow=none;html=1;rounded=0;fillColor=#ffe6cc;strokeColor=#d79b00;strokeWidth=2;" parent="1" edge="1">
          <mxGeometry width="50" height="50" relative="1" as="geometry">
            <mxPoint x="418.5" y="599" as="sourcePoint" />
            <mxPoint x="579.5" y="599" as="targetPoint" />
          </mxGeometry>
        </mxCell>
        <mxCell id="N0iufMa6y9RavnVxZ0Gz-71" value="&lt;div style=&quot;&quot;&gt;&lt;font style=&quot;font-size: 14px;&quot;&gt;&lt;b style=&quot;background-color: transparent; color: light-dark(rgb(0, 0, 0), rgb(255, 255, 255));&quot;&gt;Object Type&lt;/b&gt;&lt;span style=&quot;background-color: transparent; color: light-dark(rgb(0, 0, 0), rgb(255, 255, 255));&quot;&gt;: Tables&lt;/span&gt;&lt;/font&gt;&lt;/div&gt;&lt;div&gt;&lt;font style=&quot;font-size: 14px;&quot;&gt;&lt;br&gt;&lt;/font&gt;&lt;/div&gt;&lt;div style=&quot;&quot;&gt;&lt;font style=&quot;font-size: 14px;&quot;&gt;&lt;b&gt;Load&lt;/b&gt;:&amp;nbsp;&lt;/font&gt;&lt;/div&gt;&lt;div style=&quot;&quot;&gt;&lt;ul&gt;&lt;li&gt;&lt;font style=&quot;font-size: 14px;&quot;&gt;Batch Processing&lt;/font&gt;&lt;/li&gt;&lt;li&gt;&lt;font style=&quot;font-size: 14px;&quot;&gt;Full Load&lt;/font&gt;&lt;/li&gt;&lt;li style=&quot;&quot;&gt;&lt;font style=&quot;font-size: 14px;&quot;&gt;Truncate &amp;amp; Insert&lt;/font&gt;&lt;/li&gt;&lt;/ul&gt;&lt;div&gt;&lt;font style=&quot;font-size: 14px;&quot;&gt;No &lt;b&gt;Transformations&lt;/b&gt;&lt;/font&gt;&lt;/div&gt;&lt;div&gt;&lt;b&gt;&lt;font style=&quot;font-size: 14px;&quot;&gt;&lt;br&gt;&lt;/font&gt;&lt;/b&gt;&lt;/div&gt;&lt;div&gt;&lt;font style=&quot;font-size: 14px;&quot;&gt;&lt;b style=&quot;&quot;&gt;Data Model: &lt;/b&gt;None (as-is)&lt;/font&gt;&lt;/div&gt;&lt;/div&gt;" style="text;strokeColor=none;fillColor=none;align=left;verticalAlign=middle;spacingLeft=4;spacingRight=4;overflow=hidden;points=[[0,0.5],[1,0.5]];portConstraint=eastwest;rotatable=0;whiteSpace=wrap;html=1;" parent="1" vertex="1">
          <mxGeometry x="400" y="500" width="199" height="400" as="geometry" />
        </mxCell>
        <mxCell id="N0iufMa6y9RavnVxZ0Gz-77" value="&lt;b&gt;ERP&lt;/b&gt;" style="image;aspect=fixed;html=1;points=[];align=center;fontSize=12;image=img/lib/azure2/general/Folder_Blank.svg;" parent="1" vertex="1">
          <mxGeometry x="190" y="490" width="60" height="48.69" as="geometry" />
        </mxCell>
        <mxCell id="N0iufMa6y9RavnVxZ0Gz-78" value="" style="image;aspect=fixed;html=1;points=[];align=center;fontSize=12;image=img/lib/azure2/general/File.svg;" parent="1" vertex="1">
          <mxGeometry x="237.9" y="510" width="27.9" height="34.36" as="geometry" />
        </mxCell>
        <mxCell id="N0iufMa6y9RavnVxZ0Gz-79" value="&lt;div style=&quot;&quot;&gt;&lt;font style=&quot;font-size: 14px;&quot;&gt;&lt;b style=&quot;background-color: transparent; color: light-dark(rgb(0, 0, 0), rgb(255, 255, 255));&quot;&gt;Object Type&lt;/b&gt;&lt;span style=&quot;background-color: transparent; color: light-dark(rgb(0, 0, 0), rgb(255, 255, 255));&quot;&gt;: Tables&lt;/span&gt;&lt;/font&gt;&lt;/div&gt;&lt;div&gt;&lt;font style=&quot;font-size: 14px;&quot;&gt;&lt;br&gt;&lt;/font&gt;&lt;/div&gt;&lt;div style=&quot;&quot;&gt;&lt;font style=&quot;font-size: 14px;&quot;&gt;&lt;b&gt;Load&lt;/b&gt;:&amp;nbsp;&lt;/font&gt;&lt;/div&gt;&lt;div style=&quot;&quot;&gt;&lt;ul&gt;&lt;li&gt;&lt;font style=&quot;font-size: 14px;&quot;&gt;Batch Processing&lt;/font&gt;&lt;/li&gt;&lt;li&gt;&lt;font style=&quot;font-size: 14px;&quot;&gt;Full Load&lt;/font&gt;&lt;/li&gt;&lt;li style=&quot;&quot;&gt;&lt;font style=&quot;font-size: 14px;&quot;&gt;Truncate &amp;amp; Insert&lt;/font&gt;&lt;/li&gt;&lt;/ul&gt;&lt;div&gt;&lt;b&gt;&lt;font style=&quot;font-size: 14px;&quot;&gt;Transformations:&lt;/font&gt;&lt;/b&gt;&lt;/div&gt;&lt;div&gt;&lt;ul&gt;&lt;li&gt;&lt;font style=&quot;font-size: 14px;&quot;&gt;Data Cleansing&lt;/font&gt;&lt;/li&gt;&lt;li&gt;&lt;font style=&quot;font-size: 14px;&quot;&gt;Data Standardisation&lt;/font&gt;&lt;/li&gt;&lt;li&gt;&lt;font style=&quot;font-size: 14px;&quot;&gt;Data Normalisation&lt;/font&gt;&lt;/li&gt;&lt;li&gt;&lt;font style=&quot;font-size: 14px;&quot;&gt;Derived Columns&lt;/font&gt;&lt;/li&gt;&lt;li&gt;&lt;font style=&quot;font-size: 14px;&quot;&gt;Data Enrichment&lt;/font&gt;&lt;/li&gt;&lt;/ul&gt;&lt;/div&gt;&lt;div&gt;&lt;b&gt;&lt;font style=&quot;font-size: 14px;&quot;&gt;&lt;br&gt;&lt;/font&gt;&lt;/b&gt;&lt;/div&gt;&lt;div&gt;&lt;font style=&quot;font-size: 14px;&quot;&gt;&lt;b style=&quot;&quot;&gt;Data Model: &lt;/b&gt;None (as-is)&lt;/font&gt;&lt;/div&gt;&lt;/div&gt;" style="text;strokeColor=none;fillColor=none;align=left;verticalAlign=middle;spacingLeft=4;spacingRight=4;overflow=hidden;points=[[0,0.5],[1,0.5]];portConstraint=eastwest;rotatable=0;whiteSpace=wrap;html=1;" parent="1" vertex="1">
          <mxGeometry x="640" y="610" width="199" height="290" as="geometry" />
        </mxCell>
        <mxCell id="N0iufMa6y9RavnVxZ0Gz-80" value="&lt;div style=&quot;&quot;&gt;&lt;b style=&quot;font-size: 14px; background-color: transparent; color: light-dark(rgb(0, 0, 0), rgb(255, 255, 255));&quot;&gt;Object Type&lt;/b&gt;&lt;span style=&quot;font-size: 14px; background-color: transparent; color: light-dark(rgb(0, 0, 0), rgb(255, 255, 255));&quot;&gt;: Views&lt;/span&gt;&lt;/div&gt;&lt;div&gt;&lt;font style=&quot;font-size: 14px;&quot;&gt;&lt;br&gt;&lt;/font&gt;&lt;/div&gt;&lt;div style=&quot;&quot;&gt;&lt;font style=&quot;font-size: 14px;&quot;&gt;No&lt;b&gt; Load&lt;/b&gt;&lt;/font&gt;&lt;/div&gt;&lt;div style=&quot;&quot;&gt;&lt;b style=&quot;background-color: transparent; color: light-dark(rgb(0, 0, 0), rgb(255, 255, 255)); font-size: 14px;&quot;&gt;&lt;br&gt;&lt;/b&gt;&lt;/div&gt;&lt;div style=&quot;&quot;&gt;&lt;b style=&quot;background-color: transparent; color: light-dark(rgb(0, 0, 0), rgb(255, 255, 255)); font-size: 14px;&quot;&gt;Transformations:&lt;/b&gt;&lt;/div&gt;&lt;div style=&quot;&quot;&gt;&lt;div&gt;&lt;ul&gt;&lt;li&gt;&lt;span style=&quot;font-size: 14px;&quot;&gt;Data Integrations&lt;/span&gt;&lt;/li&gt;&lt;li&gt;&lt;span style=&quot;font-size: 14px;&quot;&gt;Aggregations&lt;/span&gt;&lt;/li&gt;&lt;li&gt;&lt;span style=&quot;font-size: 14px;&quot;&gt;Business Logic&lt;/span&gt;&lt;/li&gt;&lt;/ul&gt;&lt;/div&gt;&lt;div&gt;&lt;span style=&quot;font-size: 14px;&quot;&gt;&lt;b&gt;&lt;br&gt;&lt;/b&gt;&lt;/span&gt;&lt;/div&gt;&lt;div&gt;&lt;span style=&quot;font-size: 14px;&quot;&gt;&lt;b&gt;Data Model:&amp;nbsp;&lt;/b&gt;&lt;/span&gt;&lt;/div&gt;&lt;div&gt;&lt;ul&gt;&lt;li&gt;&lt;span style=&quot;font-size: 14px;&quot;&gt;Star Schema&lt;/span&gt;&lt;/li&gt;&lt;li&gt;&lt;span style=&quot;font-size: 14px;&quot;&gt;Flat Table&lt;/span&gt;&lt;/li&gt;&lt;li&gt;&lt;span style=&quot;font-size: 14px;&quot;&gt;Aggregated Table&lt;/span&gt;&lt;/li&gt;&lt;/ul&gt;&lt;/div&gt;&lt;/div&gt;" style="text;strokeColor=none;fillColor=none;align=left;verticalAlign=middle;spacingLeft=4;spacingRight=4;overflow=hidden;points=[[0,0.5],[1,0.5]];portConstraint=eastwest;rotatable=0;whiteSpace=wrap;html=1;" parent="1" vertex="1">
          <mxGeometry x="881" y="590" width="199" height="310" as="geometry" />
        </mxCell>
        <mxCell id="N0iufMa6y9RavnVxZ0Gz-81" value="" style="shadow=0;dashed=0;html=1;strokeColor=none;fillColor=#4495D1;labelPosition=center;verticalLabelPosition=bottom;verticalAlign=top;align=center;outlineConnect=0;shape=mxgraph.veeam.script;fontFamily=Helvetica;fontSize=11;fontColor=default;labelBackgroundColor=default;" parent="1" vertex="1">
          <mxGeometry x="476.6" y="373.89" width="44.8" height="44.8" as="geometry" />
        </mxCell>
        <mxCell id="N0iufMa6y9RavnVxZ0Gz-83" value="Stored Procedure" style="text;html=1;align=center;verticalAlign=middle;resizable=0;points=[];autosize=1;strokeColor=none;fillColor=none;fontFamily=Helvetica;fontSize=11;fontColor=default;labelBackgroundColor=default;" parent="1" vertex="1">
          <mxGeometry x="444.5" y="349.34000000000003" width="110" height="30" as="geometry" />
        </mxCell>
        <mxCell id="N0iufMa6y9RavnVxZ0Gz-90" value="Stored Procedure" style="text;html=1;align=center;verticalAlign=middle;resizable=0;points=[];autosize=1;strokeColor=none;fillColor=none;fontFamily=Helvetica;fontSize=11;fontColor=default;labelBackgroundColor=default;" parent="1" vertex="1">
          <mxGeometry x="684.5" y="349.34000000000003" width="110" height="30" as="geometry" />
        </mxCell>
        <mxCell id="N0iufMa6y9RavnVxZ0Gz-91" value="" style="html=1;verticalLabelPosition=bottom;align=center;labelBackgroundColor=#ffffff;verticalAlign=top;strokeWidth=2;strokeColor=#d6b656;shadow=0;dashed=0;shape=mxgraph.ios7.icons.data;fillColor=#fff2cc;" parent="1" vertex="1">
          <mxGeometry x="940.5" y="454.14" width="80" height="75.86" as="geometry" />
        </mxCell>
        <mxCell id="N0iufMa6y9RavnVxZ0Gz-92" value="" style="endArrow=classic;html=1;rounded=0;strokeColor=#6c8ebf;align=center;verticalAlign=middle;fontFamily=Helvetica;fontSize=11;fontColor=default;labelBackgroundColor=default;fillColor=#dae8fc;dashed=1;" parent="1" target="N0iufMa6y9RavnVxZ0Gz-89" edge="1">
          <mxGeometry width="50" height="50" relative="1" as="geometry">
            <mxPoint x="739.33" y="418.69000000000005" as="sourcePoint" />
            <mxPoint x="739.33" y="478.69000000000005" as="targetPoint" />
          </mxGeometry>
        </mxCell>
        <mxCell id="N0iufMa6y9RavnVxZ0Gz-89" value="" style="shadow=0;dashed=0;html=1;strokeColor=none;fillColor=#4495D1;labelPosition=center;verticalLabelPosition=bottom;verticalAlign=top;align=center;outlineConnect=0;shape=mxgraph.veeam.script;fontFamily=Helvetica;fontSize=11;fontColor=default;labelBackgroundColor=default;" parent="1" vertex="1">
          <mxGeometry x="717.1" y="373.89" width="44.8" height="44.8" as="geometry" />
        </mxCell>
        <mxCell id="N0iufMa6y9RavnVxZ0Gz-93" value="" style="html=1;verticalLabelPosition=bottom;align=center;labelBackgroundColor=#ffffff;verticalAlign=top;strokeWidth=2;strokeColor=#666666;shadow=0;dashed=0;shape=mxgraph.ios7.icons.data;fillColor=#f5f5f5;fontColor=#333333;" parent="1" vertex="1">
          <mxGeometry x="699.5" y="454.14" width="80" height="75.86" as="geometry" />
        </mxCell>
        <mxCell id="N0iufMa6y9RavnVxZ0Gz-94" value="" style="endArrow=classic;html=1;rounded=0;strokeColor=#6c8ebf;align=center;verticalAlign=middle;fontFamily=Helvetica;fontSize=11;fontColor=default;labelBackgroundColor=default;fillColor=#dae8fc;dashed=1;" parent="1" edge="1">
          <mxGeometry width="50" height="50" relative="1" as="geometry">
            <mxPoint x="738.83" y="403.49" as="sourcePoint" />
            <mxPoint x="738.83" y="463.49" as="targetPoint" />
          </mxGeometry>
        </mxCell>
        <mxCell id="N0iufMa6y9RavnVxZ0Gz-95" value="" style="html=1;verticalLabelPosition=bottom;align=center;labelBackgroundColor=#ffffff;verticalAlign=top;strokeWidth=2;strokeColor=#d79b00;shadow=0;dashed=0;shape=mxgraph.ios7.icons.data;fillColor=#ffe6cc;" parent="1" vertex="1">
          <mxGeometry x="459" y="454.14" width="80" height="75.86" as="geometry" />
        </mxCell>
        <mxCell id="N0iufMa6y9RavnVxZ0Gz-96" value="" style="endArrow=classic;html=1;rounded=0;strokeColor=#6c8ebf;align=center;verticalAlign=middle;fontFamily=Helvetica;fontSize=11;fontColor=default;labelBackgroundColor=default;fillColor=#dae8fc;dashed=1;" parent="1" edge="1">
          <mxGeometry width="50" height="50" relative="1" as="geometry">
            <mxPoint x="498.33000000000004" y="400" as="sourcePoint" />
            <mxPoint x="498.33000000000004" y="460" as="targetPoint" />
          </mxGeometry>
        </mxCell>
        <mxCell id="N0iufMa6y9RavnVxZ0Gz-100" value="" style="group" parent="1" vertex="1" connectable="0">
          <mxGeometry x="1200" y="370" width="120" height="68" as="geometry" />
        </mxCell>
        <mxCell id="N0iufMa6y9RavnVxZ0Gz-97" value="" style="image;aspect=fixed;html=1;points=[];align=center;fontSize=12;image=img/lib/azure2/analytics/Power_BI_Embedded.svg;fontFamily=Helvetica;fontColor=default;labelBackgroundColor=default;" parent="N0iufMa6y9RavnVxZ0Gz-100" vertex="1">
          <mxGeometry width="51" height="68" as="geometry" />
        </mxCell>
        <mxCell id="N0iufMa6y9RavnVxZ0Gz-99" value="" style="verticalLabelPosition=bottom;aspect=fixed;html=1;shape=mxgraph.salesforce.analytics;fontFamily=Helvetica;fontSize=11;fontColor=default;labelBackgroundColor=default;" parent="N0iufMa6y9RavnVxZ0Gz-100" vertex="1">
          <mxGeometry x="54.54545454545454" y="9.199999999999932" width="60" height="58.8" as="geometry" />
        </mxCell>
        <mxCell id="N0iufMa6y9RavnVxZ0Gz-101" value="&lt;font style=&quot;font-size: 15px;&quot;&gt;BI &amp;amp; Reporting&lt;/font&gt;" style="text;html=1;align=center;verticalAlign=middle;whiteSpace=wrap;rounded=0;fontFamily=Helvetica;fontSize=11;fontColor=default;labelBackgroundColor=default;" parent="1" vertex="1">
          <mxGeometry x="1200" y="440" width="120" height="30" as="geometry" />
        </mxCell>
        <mxCell id="N0iufMa6y9RavnVxZ0Gz-102" value="" style="sketch=0;html=1;aspect=fixed;strokeColor=none;shadow=0;fillColor=#3B8DF1;verticalAlign=top;labelPosition=center;verticalLabelPosition=bottom;shape=mxgraph.gcp2.big_query;fontFamily=Helvetica;fontSize=11;fontColor=default;labelBackgroundColor=default;" parent="1" vertex="1">
          <mxGeometry x="1210.5" y="538.69" width="99" height="100" as="geometry" />
        </mxCell>
        <mxCell id="N0iufMa6y9RavnVxZ0Gz-103" value="&lt;font style=&quot;font-size: 15px;&quot;&gt;Ad-Hoc&lt;/font&gt;&lt;div&gt;&lt;font style=&quot;font-size: 15px;&quot;&gt;SQL Queries&lt;/font&gt;&lt;/div&gt;" style="text;html=1;align=center;verticalAlign=middle;whiteSpace=wrap;rounded=0;fontFamily=Helvetica;fontSize=11;fontColor=default;labelBackgroundColor=default;" parent="1" vertex="1">
          <mxGeometry x="1190" y="638.69" width="120" height="30" as="geometry" />
        </mxCell>
        <mxCell id="N0iufMa6y9RavnVxZ0Gz-105" value="" style="shape=image;verticalLabelPosition=bottom;verticalAlign=top;imageAspect=0;aspect=fixed;image=data:image/png,iVBORw0KGgoAAAANSUhEUgAAAgAAAAIACAYAAAD0eNT6AAAACXBIWXMAAA7DAAAOwwHHb6hkAAAAGXRFWHRTb2Z0d2FyZQB3d3cuaW5rc2NhcGUub3Jnm+48GgAAIABJREFUeJzsnXeYVEXWh9+ewAxhBgYQkJyDkkREARXFiDnnxaxrznHVNafPNa4554gJMaEICEgyAKLknNMMYWBi9/fHmVnGcUL3rXNDd9f7POfZVaerzq2+fatu1Tm/E8JiCR77AecC/YHWFf59KrAaWAcsBX4FpgO/ANs89tEiNAT2BgYA3YAOQFugQZmFgK3AZmATMBeYA8wCxgMbvXfZYrFYLEEjB/gYiMRohcA3wCVAS8+9Tj46AjcCE4FSYv++yq0UWcTdD/Tw9AosFovFEhgaAb/hfDIpt2LgA2B/b91PeFKAE4FvMZv0a7JpwHlAukfXZLFYLJYA8C76E8oUYIiXF5GAhIBTgN9xZ9KvypYCl2EXAhaLxZLw7IG7E8rnQCfPriZx6A1MwLuJv7LNBg5w+yItFovF4h+P4v5ksg2JEQh5dE3xTCpwJ3Kc4tfkX25h4CWgvpsXbLFYLBZ/mIR3E8pXSLChpWp2Bcbi/8Rf1W7A7u5dtsVisVj84A+8nUzmAJ09ubL4ojewDP8n++psG3C4a1dvsVgsFs/5Ce8nkw3AQC8uLk4YAmzB/0m+NisCznRpDCwWi8XiBT8sjmRO3hS59IjT/rEJfyaTzdhFAMC+iFiP35N7tBYGznJlJCwWi8XiHpFIJOWnvMiFk/PCqyfnhiPPfzXez8kkD+jp/lUHll7Ex5t/ZSsChrkwHhaLxWJxg2lbIt0m54V/mpwbjlS0QYcc4edkshRo4f7VB47mwBL8n8yd2jZkAWOxWBxgU6IsnjFlU+SMSCjyPKIR/xc2rF3NxcP2Z+XihT54Bkjk+8GIyl0ykAKMBob67YghfwJ7Afl+O2KxxBupfjtgSQ5+yovcBJFngTpV/fd6DbI48OgT+OOXaaxdscxj7wBoj5wtj/Ojcx+4DrjYbycU2AVoBXzqtyMWS7xhFwAW15m8qfT/QnBHbX9XPyubI884m0679WT7tm1sWreW4qIiL1wsZzDwGbDWy059oAvwEZDmtyNK9EW0JBb57YjFEk/YIwCLq0zZFLk1Eorc5/TzkUiEgu35ZGTWZdP6taxaupg/fpnG5O+/Zfr47ykpLtZ0F6R+wEDkjDlR+RLlALq6GakM27clQwe0YM/dGtOxdQMaNkgnNTWFzVuLWLIqn1nz8xgzdQ1fjF9J7hb1hd08RMegULthiyVRsQsAi2tMyY0cFyHyMS7dZ3kb1jPilWd5/7kn2ZK7SbPpM5DiRInIMGQBoELjhnW45fyeXHhiZxo2iK52T2FRKR+NXs6Dr8zm9wV5Wq6AHGs8qtmgxZLI2AWAxZQMRERmLyALEdiZ9t3SvOUNsrOn44Hs7uZNG3n2nn/x2esvEomovLgvAroBJRqNBYxJKGgfpKaEuHZ4D245f3dysqsM66iV0nCE5z6Yz81P/Mq27SpDvRroCBRoNGaxJDp2AWBxSgi4EPg30LLyf2zSrMWOax96ou5Bx53smUMTvh7Jvy/6B/lbt2g0l4i7AAcAP5g20rBBOu89vC+HD/7b1+6ImfPyOObKsSxdrRLIfxnwjEZDFkuiYxcAFiekAm8Bp9X2h6ddcjVX3fcfQiFvbrWFf/7OlccdysZ1a0ybmo7saiQS7wGnmjTQvmV9vnz6QHp0bKjkkrBuUwHHXjWOyTM3mDY1m+QWdrJYosYuACxOeAy4Oto/vuLuhznziutddOevLJozm38eMUQjLqAPMFPBpSDQFFiBHNk4onmTTCa8diid22bpeVWBDXmFDDjjaxav3GbaVH/gZwWXLJaEJsVvByxxRz/gylg+8Nx9t7N+9UqX3Pk7Hbvvzr0vv0tKqnGW6z80/AkIx2Ew+aemhHjnwcGuTf4ATRtl8NkTQ2hQzzg70dYJsFiiwOoAWGLlLuQNK2rCpaVk1q1P//0PdMmlv9OqQyd25Oczc8okk2aaAv9VcslvbgN6OP3wxSd14YrTuym6UzXNm2SSVT+dryasMmmmMYnzvVksrmGPACyxshxoHeuHevbfh5dGG03GMVNYsINT+ndn7crlJs3cQ2LIzN5GFRLM0dCgXhrzRx5Di6Z1lV2qmqLiMLsdP5KFy42OAtoi96rFYqmGRFECs3hDMxxM/gBrli9VdqV2MjLrcv6Nt3P/VReZNHO7lj/xyjVn9fBs8geok57CvZf35fSbJpg0cyDwhpJLFktCYmMALLHQz28HYuWwU84kO6ex327ELakpIf55ShfP+z3pkLY0b5Jp0kRvLV8slkTFLgAsseB4AdC6Y2dNP6ImI7MuQ489yZe+E4F9++1Cy128e/svJy01xPFD25g04X7AgsUS59gFgCUWOjr9YJdefTX9iIl9DjrMt77jnaEDWsRr33YBYLHUgl0AWGIh2+kHu/f17/Sgxx4xJS1YKtCnq+tKztX33a2RycebaflhsSQqdgFgiQXHC4Bmu7bS9CO2vlu2JiPT+23sRKBDK0eJA2p9GwhINsBmOVksNWIXAJZYcLwAaNDQ6G3OiFAoRJaP/ccz2VFW+HOD9LQU6mU6TlRKBeopumOxJBx2AWCJBcdvVCXF6vXfY8OjWgSWQBH22wGLJcjYBYAlFhxXatm8aaOmHzGTv2Wzr/3HK1u2FfvWd3FJmO0FjssEFwA7FN2xWBIOuwCwxMJ6px9cMm+Oph8xsWHtanZsTwQxP+9RKMxj1Hck4vjjxpWgLJZExy4ALLHgeAfg9+lTNP2IifmzfvOt73jnt7m5vvU9Y26eycf9c9xiiRPsAsASC4udfvDn8WMoKfZnO3nauDG+9JsIjJm6xre+v59i1LetA2Cx1IJdAFhiwfFr/NbNeUz4eqSmL1ERiUT44fMRnvebKEz4dT0r1m73vN+S0gif/mA0h0/T8sViSVTsAsASC7MAx7PB+88/pehKdIwb9Smrly3xvN9EIRyO8MqnCz3v99Mxy1m7scCkiZ+1fLFYEhWbG2WJlfHAfk4//PhHX3kmzVtaUsIZg3qzdL5RAOJzQCKkEFwKZDn5YJNGGSz68liy63ujCRAOR+h32lfMMIs/aA2sVHLJYklIbDlgS7SkAGcCXU0aeeyWa3hj/M+eKPN99saLppP/GuAyEiOfvD1wqpMPbswr5I6nZ/L4jXvqelQNL368wHTyjwDnA49gsGNlsSQ6qX47YIkL9gc+RCZDI23YzZs2kL9lC4MOGabiWHUs/PN3bj//DIqLjASIPgQ+VXLJb1IBx2URp83eyB7dc+jW3rEYZFTMmp/HqTdOoKjYaM0VAg4EzgY2IkdXzhMKLZYExS4ALDXRFngKeBRQE/P/45ep5OyyC7v120uryb+wJXcTVxx3CBvXGkew3wgsUnApCCwFrsXhrl8kAl+MX8nRQ1rTvEmmrmdlbMwr5OCLvzc9+69INnA8cDQwFxkDi8VShl0AWKoiB7gPeAvohwuxIlPGfEvLdu3p0rOParu569dx/WnHsGD2TNOmlgFXkzhvjkVAH2B3xw0Uh/nyx1UcNmhXdsnRXQSs21TAMVeOY9Z8o9z/6tgVOAfoDfyCFQmyWAC7ALD8lXRkm38EcBAu3h+RcJgfv/yc1PQ0eu89mJCCVv/832dw2bEHs2jObAUPeRD4UaOhALEEuNCkgc3binlr1GL6dMuhS1tHMYV/Y8bcXA668HtmL3Q91rIH8E+gMTAVkQu2WJIWuwCwlHM08AnwDzyqohaJRJg+fgyzpv1E7wGDyM5p7KidooIC3nn6Ue6+9FzyNjhWK67IZiTgsVCjsQCxConn6GDSSGFRmPe+XkpBUSkD+zQlPc1ZNnFpOMLT783jjJsnsj7Xs6FOBQYCFyALgF9IjCBPiyVm7ALA0hd4G7gVaOqHAyuXLOKT115g88aNtO3clexGOVF9rqiggK8/eItbhp/ED5+P0Kw4+BDwjVZjASMPON20kUhERIJe/3wxqakhenRsSGad6B4nBYWlvPv1Us64eSJvjlxMcYkv8289YBhwCnLcM9cPJywWP7E6AMnLrsA9wLkESBAqJSWFXgMGse9hR9J9j/506NaDrEY5pKfXYUteLmuWL2XB7JlMH/8DE7/5gq2b1c+MVyGpjolYPag+srAZrN1wZkYqhw9uyUEDmtOvR2M6tckiJ7sOKSkh8rYWsXRVPjPn5TJm6lq+GL+SvK0+l4f+O2OA6wBbOMJisSQs9YDbga1IgJu1v9okwJ0wd3/JBL7D//ENspUCLwMtHY6xxWKxBJIQcDJS0MfvB23Q7Wsgw9kwB5J04HP8H9d4sXwkCFQnytFisVh8ZG9gIv4/WOPJviQxFgGpwLv4P57xaCuAi7CxUhaLJQ5pC7yBRDn7/TCNRxtBfMtlh4AX8H8c491+BobEOPYWi8XiC42QLcwd+P/wjHf7kPhdBDyC/+OXSDYS6BzTN2CxWCwekQ5cAWzA+4fjEkQ5LxF3G94gQJkSUfIA/o+bm/Yy8JMP/RYC/0HUMi0WiyUQHMzOoide2jbgTqAu8KwP/XtlrxI/i4Db8H+83LYZyM7M0cBCH/rfCNxEYsSJWCyWOKUHMArvH4ClyJtxizI/9ir7d35PDG7aSwRfO+MK/B8nr+yqsmuuU/b/83zwYS6SXWOxWCye0RR4AijB+4feaKSwSjmpiKSq3xOCF/YkwV0EnE1iHsFUZ1uA1hWuvwnymyj2wZcxwB41fTkWi8ViSj1ki9cPIZ/ZiHxqZa7xwRc/7ZEqvxl/OR3dxWAYqSDo91jXZh9VMRa7I1oOXvtihYQsFosrhJBCPcvw/sG2DriEqqPh2xB8VcFVLrT5QBVj4RfHoj9ZXwH0BMYrt+uGHVHNuBwO/O6DP9sQtU1PimpZLJbExi8hn0JkS7VhDb597INf0doS5Gw4A7jWhfbvrGFcvOJg9NM9b6mij1+V+9D+nutXMz4pwHBgjQ9+WSEhi8XimE7IFqfXD64w8B61l4092gfforEpSLnX9Er+3uFCX/+qZYzcZD9Etlbzeu6rpq8U4Bgk/iOIcQa17chk4582xjSkDLPFYrHUSiPknLkQ7x9Wk5F66bVRH3nzMu1vCvAF5hPZLGTbtTahlntcGLMbohgvbfoDmx36W509EWXf7YAbkV0pk4C7MLKzoHFeX4Sc/ddGe2Rx68ciZgRWSMhisVRDOnA5/gn5nE70Ee4PKfS5HdnlAKlWty8iJvQqMA4pXLQJmWSKkG3cP5GJZwRwK3AIsYuyaPhe2a6O0QcTeqF/jzhNccxGztpvBt4BJiBxKpvYGZS4CYnDmIIoK96F7CY0L2sjA/leTa9hfAzXMBArJGSxWAJCEIR8omV3dILO/Nw+114EhIHLPPC7M/pBjR/hv9zx/ui8lZ8XY79WSMhisfhGUIR8oiWEvOWZ9j8Xfx9+IeC/Vfhlugi4xEWf26Bfzvkz/h4r4RdvoDOx7hJjv1ZIyGKxeIqfQj7fAX0c+n2hQv9hYKjD/jUJAc+gvwi4yAVfmwFzlH39Djl6CQpNgfWYX9crDvu3QkIWi8VV6iJbf9oBXNHYHMzeNpqg84B+zcAHbULA8+iOcylwlqKPTdHPZ58ENFD0UYuLML+2MHCggQ/dkcp/Xv8+S4EPkDLeFoslgQghk+9ivH+wbEC2OE3PeV9X8GUj8jYbJFKAN9Ed8xIkqNKUhkgamaZvvxLcILQUdDQv5mB+xHQwUnTI699rPpKymGXov8ViCQBBFvKJFq0grQsUfHGDVOBt9BcBpxr4VA99Jb5ZyE5OkOmJTpBpZUEjJ1ghIYvF4oi2SGCTHznHI4GOStdRB/hDwacfCW4hHZAH7Xvofg9FSMpbrNQBvlL2ZT6wqwNf/OBhzK93O3q/gfpItowfQkLTgSFK12GxWFymEf6pjk1FFOI00agvX4zzwEMvSUci4zW/k0LgqBh9+FzZh2WICE68UA9YhPl1f63sVxv8XdRbISGLJaCkIVt2a/H+4bC8rO8U5Wtqj47c7IPKfrlJHfSDwAqoupJiZVKBd5X7XosEtsUbw9C5/pNc8G0vZEfL6995ERK02tSFa7JYLA6JJyGfWPhCwcelBDPivCYygC/R/a7yqTk6PQS8oNzneqKTyA0qn2A+BqvRiYOpCiskZLEkMfEm5BMLpyr5erSLPrpJPSQ/W3sRMKSa/v6j3NdmpGZAPKNVbvpxF320QkIWS5IRr0I+0ZKNRCGb+jrCZT/dph4wFt3vbxt/j9N4QLmPfBKnAt11mI9HKZKN4yZ+Cgl9D/R1+foslqQnnoV8YuEpBX+3EV+BZ9VRH/10vDzkHBl0giwrWiFSoCdRSAN+wXxcpuNNSp0VErJYEowQou62DO9/2OsQjXmvCrb0R2dn4xqP/PUCNwR5NgKPKrdZRPweudTEPsgEZzo+l3vo8+HAbAWfY7WtSGnseu5fosWS+CSCkE+0pCBlW019n0lwisxo0Qh5i/T6PojWtNQHg8pzmI/RZqCVhz4HQUhIOzPIYkkKEkXIJxaucuhvRStF6q0nIk2RxY3fk31lCyOFmhKZhuiUQn7Pa8eRLJg7sUJClgDhhSpbAyRSvhtyNrYLEmBWH7k585Etq7VIROucMsv3wLfqaITUqr8SifD1kinAtUixFq9phSj+ZRu28yxwqbk7gaUZEhjYw2c/KnIFUt440TkTeEuhncOBbxTaiZX2iCbGKXivivkxEr+0wON+K5KOiBn1QOaDVshc0ACJryqfD9YhdVMWAj8jMTOWOGEgcA+ybe4kIra47LN3lrXl1Q8lHTkj1Kh4F6stQbZv/ZTK/RDz61iNLKASnV2RBavX90lVdrPL1xo0vsN8zBbgnnZGNAwEfqrCL7etEEk39bIYVBfgaiRd2klKZxh5MXkGOBTvX8osUdASCTyZh/5NOxd5yLmpY34U8KcLvtdmW5CiJX4+jEBPde0Mrx33kdbIROL1PVPR7nX9KoNHV0RZMd7HLgSchiz+vb5vNiC7Rm7F6dQHzsUdtcRc4EmkaJTFZ9ohgWrbcf+mLURkMFsr+p/IQj7RUhcdNbMfCHaxHzdog45mvRN70oPrCyp3ovM8CcIxTiIJCdUvu5bVHvk/Ghig6L8lSuoDD6FTtjNW24Gco5m8NbcAXsQfIZ9vCNbq9X50vpMuXjseEDrgfXroiyTfYqsimejsNv5AcMaxOfKCE4/iYiEkCHWdD75HkOPLNgb+W2LgCETf3Y8vuqItQDT4Y6EuEuCnIS8aq80muoIwXrIb8iZkem3/9trxgNEZWIk399E72BrxIL99jfE822vHa6En8pLg9fOpFHiJ2I9au6GvlunEtiK7D0FZ0GmQg7dp4DWSDvwf/qTFVWdhREa1tgdiMgn5REsIGIf59c3FFiUBeRC6vfX5KYmnr2DC2+j8Pht77XgUDCP4QkJnolMtVNNGIdlm8cp+iIT6FnZe00bkyNi3kupNgAn496XWZqPLfKyKfYGpPvhUgByTBGYFV4lzMb/GMHCQ144HmN1xbxv0G+xCqzLNkaAw07F90WvHoyQNeXnwY2t9OfAPqn6jTkNiv7z2KVpbQrCOWaMhA3iZmq+rFLgPj8Wd2iJpGH5/qbXZbP66fdURndS2WC0MvI+cDQeVJuikO77pteNxwEHo31MFeKtgF09cgs5vdrDXjsdAQ+Rlwg8hoWn8tXhVHXTKNLttecDQ2IbZN1KQ3b1or+0NPFoE+BHgZGLzgd7IUYVGqlCsNhkY5GikvaW2lWY0tgl5A7PspBE6hWuqsikEdzfJT1KQ353p+M4i+McrHZCXCz+OYT9C3qq/9KFvp5ZPfCwCriH2a3sFlxcBzXAnrz8RbSn+C/lEy37oPEAu9trxgNMAUXB08z6bCGR5dUFxRF90yvDe6LXjDhmEzqInGWwbwZYmz0R0GZxc2wu4NOfURb/6WSJaUIR8oiUd+B3z656ELTJSkbpITXYv7rnxSBqu5a/8B/OxjacS1iHkpWMJ/j8Hg25rEM2aIHIkZtf2NC4sAl40dCrRrQTJ2Y23LfCbMb/2YnyMRg0gdYAv8Pb++574WXR6RQN0jitHeu24IZnIS0jFqHFrf7ffysYqaNyK+bU9runQmQoOJbJ9A/RyPLr+0QGdlJ1HvHY8wKTiT6Bp+X0YxAeanxyPztge77XjCvgpJBQvpjpRKvEQOtf2fxrOaKXVJKIFUcgnFjQkj5cib1oWOQJ5DX/vyVHY4iiV+RzzcV1O/MZa+CUkFA8WJnhBgTegd333x9JxVecGbyKCOao0rVef/dq1Z49dW9IxpzEN6kg689bCQhblbuLXNav4celiNm7frt21BusRpbty6eB45EQkiteU44DPFNqJd0JI+d0glD3+DNFzL/bbkYDQDlmsm8ZJPIaU5o5XhiG7dbv57Uhl0jLr0HKPLjTr2ZGcDrtSp0Fd0jLSKcrfwdZVG9m4YCUrp/3JlpUb3Oj+D3YGjQaBQUhwrxZ3IbUyaqXyAmBfJMBILaDgmO67cdle+zC0Y2dSQjU3WxoO8/2iBbzw81Q+m/MH4UhEyw2nFCJiF/cDm332xYQspNKhaR7558Cx5u4kBA8RrIjxEUhluXhdoGpzI/IdmVAC7IWcHccraYhG/10EQB1vlx7t6HfuEXQ+pD9pmbVvXK2fs5TZH41j9ohxlBQUabpyDcE5DkhFFqzdFNu8DREMqpHKM/K3wCEavQ9q044HDxnG4LbtHH1+1to1XPXV54xbsljDnViJIOe6NwO+OKDM44hGtgn5yJvEMnN34p7bgbv9dqIK3kN270r9diQApAM/Yx6rMwV5Qwsbe+QvDZFgs6vwQU0yu1VTBl51Mt2OHEgoJfb3y+0btzDpsQ+Y/fF40HkxXIsIxQVly/kYRAhIM5r/JuDhmv6gon7+AERT34iUUIh7DzqMl489kbaNGjlup3mDBgzv04/UlBSvFwFTgFOR7b88Lzt2iX7I0YVpyt6/gK/M3Yl7rkEqUQaRnkig52fIIjaZCQMzEblrk4dqa2SymK7hlI8UIhX/3kbUUnfDI82SLocP4IRXbqbZ7u0J1bILXB3p9TLoOLQfzXZrz5Kxv1JabLzR1QA52p1i2pASc5Hdmv0V2zwEyQyZXN0fVFwAPIKhdnKDOnV49+QzuGDPvRx/0RUJhULs374DvZq3YNT8ORSXuvpiswyRFL0GCQBKBMrlJVsbtjMTOI/4fwsy5SLgKfQenKXI4qyfYpt9kLKo5WmJycxy5N7vZ9jOYOB1RCMg3slDYoFGI89702dD9YRC7HP5CRx423BS0nXqoOV02JWOB/Zj6YRZFG7JN22uMxLHExTGIkWp9lZs81CkkNDUqv5j+QIgGykD6VgGMzMtjVFnncthnbs6baJaeuzSjP4tW/Pe7zPciAvIR3Y+Tgd+1W7cZy4DLjBsI4wEEC41dyeuOQl4FT3xowjwT+QoYRmyBai1CNgDebDHWz67G0xEdgFMAgIzgZbAxyoeBYPliBz4bKA/UnZWlf1uPJ29LjoGFF4GK1KvSTadDtqTuaN+onhHoUlTjZFJd4mGX0p8jcRq7KXUXggJBl2PCPv9hfIFwHDgBJNeXj72JI7u1sOkiRrp1LgJDepk8O3C+VpNlte+Ph5JpUq04KldkQeWaZ74i8Cz5u7ENccj+uua5ZyvAJ4r+/+/IdXejkRvEdAPecB9rdRevLIDGVvTvP5eiPrlImOPgsUfiJxsPnIMrBIf0POUAxl8zSkaTVVJRlY9du3ThbkjJxEJG21MhpHg5iDxFTo7V+WULwJWUOklt3wBcC/QxWnrp/Xqw10HqsQO1sjANm2ZsWY1czesN23qW+St9mXkxk9EXkRW9iaUPzh3mLsTtxyGbJlq5trfjMSYVGQ6UlxJU2dibyQD5FvFNuORmcAQzCV+9yG+U4GrowQp9f4KshvcF4Odrpz2LTj6v9eQkpZa+x8bkNWyCWl1M1g2cZZJMy2BRwnecdkXyP3aV6m9EHA0sAApevW/f5mOPHgcibtkZ2Tw5xXX0aKBN5oZ8zduoNczj5vEA+QjEbGJHCl9KCIEYspwkrvc7/7IaryeYpv3IlkE1XEd+kqLDyJSsclMd2AG5gu5uxFNkETmO6SktSOOf+lG2g72Rii1tLiEN4+6ic3L1pk0cwZS9C5opCIxClrHASAVcodQFhMQwlCE4MZ9h/DAwYfruBYll4/6jGenVRvYGA09kbOvRCQTWeF1NmxnDHAwwVsZe8UAJFAqW7HNx5Eg09q4GYWMnEokw8RVG/cg+dEmFCLlxoM4YWgQQoLGHMUEtOzXlZPfrml9q8+8Lyfz1XVPe9pnnLMCOdLKS8FgdZESCnHpXt5XWbx+8P6EzI5KTbfGg8ytmE/+hYjCXbJO/r2RN3/Nyf9FoleVexD9yfoOzCe/eOd+YKFhGxnAM8RH2W8ndMIgILDPWe4fBVem67C9yW7V1PN+45jWlL2IpGCgPrRfuw60adhQy6moad8ox7HAUBmJugDojo463cNIXmoy0g05M2+s2OY7SMR/LAuqu4lCyStG7iFY6oVeswPJjDHlIKRgWiLi+IUwvV4mnYbuqelLdIRCdDvS+xfROOdqoFEK4Dhv75BOpi+azjmkk+OYRTAIeAwwIeTNxDSKdwExFpRIINoj2/6aJZ4/Bc7GmYbCbShV+KrAQ8iPP1n5BsnoMOURXEidCwCOn42t+ncjNcNxJrkRbQcZSdgkI9nA4SmIaIgjBrRy/FFjBrQy0q/QfLsLCmcBByq0cxkSKJJstESCnzRv6m8w1+e/EX3N8kfReROOV67BvLZHc/TjNIKA40VN814dNf2IvW9lvYEk4IgUDEpedm7s37lL5yZGfSfaAqAxOpHj75GcKWO7IJN/J8U2xyPaGkZKJWVcC2hGOYUQRcMLFduMJ1ajEw9xIZBoe8+On42N2rXQ9CMm0utl0qCZc+n5JKW30QKgcd26ir7E2rdRZlaiLQAeBJoZtrEFSUFLNhoiAX+aKla/IVV7L7tiAAAgAElEQVQTtQqNRBDhIE1BphDwPCJvnIw8Qw0a6VGSgoyhP/ve7tDE6QczG5pWXzYjs6GjTPZkpkUKBjdveqq7Qg81kWHWdyNE/elaJCDQvwsxZxBwvkI7twCrFNqJJxogk79m5NJMJEhMu5BUBLgceE2xzfK4kUQNaKuJMHIMYqoH0gu40twdX+mCPEPeAPZz2khqHU2hzPjrPw5pkIYI4zgKHMsvKiIzzZ9B31ZkVBu6XBXp6LJ/3gr8iGzbjkc0k+NB7SsdkZM11aefyk5Z2mShLrII1NzCnYuIMG1SbLMiYaS2Qzp6k3YqUuimGPhAqc144RfkaMV0Ar8TKR8eL6WyeyBiMPuX/W9LjUaL8/0NHSryuf84ZG0aMvk52hJfsWUzTeppiqRFz/ItpjE8fyELOKLMQBZFk5DFwFhkQaBxlqvN1ZjXOy9FUtSSqdJfHeSBrRE0Wc4SpPzmWsU2q6IUySpIB7TE1lOBt5BFbyIVvImG2xFZ8FYGbTQAngSOU/FIlxAifDaEnZO+6XFhlWxdm+tGs9ERibDNz/7jkxVpQC7gKKn+z/Xr6NNiV12Xou7b1edsfeRhXq5qsQM5LxxXZlPwXx+/HTpiMU8RrCqIqUBHpK59S6ApO49otiD3ax5yXPEHse/UpCI10Y/UcLaMVYhqoldlpEuRrI80DIt4VSAdeBepeui0imAn5L7MqWDlu1MbgTXIW/IcwGgLT5EtyEL6Q8N2jkUqOvpdWCYVEbIqn/D3w+BcPxY2LVjpRTdVsmXVRoq32x2AGBmbhuR9Oyo4MG7pYk7r1UfXpWj7XrLYy+7qIm+L5W+Mhci2+Thkl2AS3hcVehKzEqcgkpB3KPhiQipwADKBDkHq2Ue7rbQD0Xf/GfkuRlFz4F0KUgDqJIe+VsV6xHdThblYKUZKWH/EzqMsU8p3Ro5HYiNqIpWdv4n+iIBMtClkJcgiYDzwA/AlegGTTviozIcjavvDWngK+B5vnwVpSNW48u38/ZDAVs9ZOX2OH91K39P+9K3vOObLNAwU30bN+5PS8DGkpmiVSI+O0nCYUfP8u9mQmIn92BkwU4xUcxuPTEQTkKMVtzgOedsw5Wrc9bMmegP/QApxOD2DrItUaNsHCejahry9foBU06q4O1Ce+na2w76qIg+pFujX06cIOBkRG9IqyJGBHAMcjaRGVmYfZOFxCuA07ysN2ZbuiUhObwVGIIWnxuLPcdTlwO+YFX5qi8QD3KDhUDWkI4ut8u38wRhkcmmyccFK8patpVFbTR2t6Fg05hfP+4xzpgJTU5BtVEes3LKF7xYt0HMpSr6aP5c12/yat6okHQkmuwl5k8hFBvgR5EGqmaBaft5oyijkoes1ByPHKTOA61EKQCqjATI5fYIUa7mQndXfHkQmGy22IW+Mfh+fFCJv7FVN1k7JBD5DdmbKORw5+voJCZrTTPrOAs5B3p4XAufhfWbOYqRSoylXI4tbLTKRif525DvOQ4q33Y98J4GY/AGIRPjzkx8973b7xs0sHveb5/3GOXcAkRCifOY4enVI+46MOcc7PZFwJEL/559ixprVnvWpQBhJDyuPIfgR2OCwrUcwz9ffDuyOBK55xd7IQ2uoh32C3NsTkJ0GLXYgMQQ/KLZpSj1kUXeAYpvbkMqEZ+K94M0cZNIbgXdFqeogC7rdDNv5CdgXZzsZ9ZBdlvIz/L2RRUBckNmwAed+/xh16nvn8g93v87Md43Wv/Pwbye0NnZF9yUJJOvnHNhZ0WoeBhrQn54+nKO7aeqoVM+bM37hnE9M43V8J4KUIy5fEIwnuujxPshRg2nu5c2IJrwX1AceQ9LXEkGrswgJvBvltyNVUK5rsK/fjigyFhiOdwGW+5f1aXqvXgy8EMXfNUC28cvP8Pdi565VXLLn+Uey7/WnedJX7pI1vHX0zYRLHMs5hJEJ1u3sHSfsjpRl18za+Bl5PhTAzpv8aQy2R1tnN2TqRZfTvIG7Skyrt25lwAv/ZdXWLa724xN/slOHYCx/F+VJQbb+9jHsZzawBxK34Db9kfQyxxUnA0Ypou3/kd+O1EAWIudsep8EiVwkVdUrnYJXgHMN28hFqnOuq/TvGyIP4PIz/D0xX9AHipS0VE587VZa7um4zlxUhEtL+fSCh1k+2fEpNsixVhB/K92RHUbNo7Y5yA7h/xY75QuAQcjk4phBbdrx3dkXkOGSMFBBSQkHvfYik1fEi9aGMQvYGVQ4DhiGuRRsBHnoTDBsJxquQirZJYpMahg5m37db0eioCFyXpxoZa9fBi7B/cVrU2RBblrs5E0kJmA/dm7p9yG+lUejol6TbE774C6yWrpXL2bsvW8w4+3Rps3chJQ/DxJdkJdAza3/+cjk/5cXy1CF/50HGNX3PaN3X1497mTSlLMCSsJhzv7kA96bNUO13TgjjLni38vIVrzb3Afc6kE/XlEuw/uM347EQGMkqM5Rim+AGYVkPritw3Ee8nsxIVJm3qZJBYSm3dty4qu3kNlIf2f4tze/Zdz9b5o2U4JkbgQpoKwjMvlrViVdiEz+Kyr/h4or0fpIhLZjZq1dw0/Ll3FU1x7UTdd58du0YzvHvvsGX8xN+jxP0zPJDUj6oJsPzhTgv0iNhUTiJuAJv52IkR1IAN0wpHRtotAV2UL/GHfVOX9DAlYdiaSVESIx4l4csX3DZhZ8O402A3tSr3G2Spvh0lLGP/QOU/6rIlj5OfCSRkNKtEMm/7aKbS5BtDqqjKGpeHNmA0tRSFnr2qQpb514Gnu2NFHXhKkrl3PWiPdZuGmjqUsWOdN8zeU+nkOCnxKJu9FRXPSLZshZomlke9CYgjzY3FzQ7o7UC4jroDy/qdOgLgfdfR5dh5kdtW9bm8voW19g2aTflTxjIOYVIbXIQrJHdldsczly7FStal7FHYBCZBdgiGmvG3ds55Vfp7Niy2Z6NmtBToxlgxflbuKGb7/kyi8/Z9MOPwXCEoYZiFCOm+lUV6JTYz1IPIpUSYxn8hFdhKPxSBLWI1oj26Vu1i5YX9ZPosVSeEppUQkLvpnG6l/m0ahdC7JaxFZ6pnDrdn5++Qu+vv4ZchepFSz9DnhAqzEFHgGOUmxvJbJAXlTTH1XenmqERAqqbRmmpaRwSKcunLx7Lw7s0Im2DaveYFial8eYxQv4cPYsvlu0gNJwMtWm8YRcRH+gPO3wV8xLoZZzMJJ+lkjRzM8jAWde5aC7TSvku+/ktyPK3IKIPGnRhZ0R+gegexZrAZrt3oFuRw2k7aCeNO3SGkJ/PyUp2LyNldPmsGD0dBZ+97O2zn8pMADZ3QkCTZAJ21FV3ipYg9y7tar8VnU+dRYSveoKOXXr0q5hI5rUExn7jdvzWbo5j9wdftfWYTZSgMaf8obeswXJBihfEEzHWQnktshiwlFFyYDyFiIZnGir0LbI993eZz80CSNxDt86/PxuyGSvWho3DihBpI9742OQYlpmHRq2aUbdnCxSUlMoyi9g65pN5K9ztbLf80haaVA4HXhHqa11yJu/49zIEBI9HEkym4WoLg1C3iq+QiZJv/3yyrYC3wD/QoKsoj33/DQAvmvaJyTWTkZlOiDqiH6Ps6YtIrqFewpSPvsKpOjR2gD47pUVIaneDyALpkbA+wHwy2tbTvBeVv6NzrWtJ8by8NVFqLZC3up2ie064p7pwEHIxA8BqrTlA9GUQD4G0YxXp1GTpnTp1Zc2HTpTv6EMeVFBAWuWL2XB7JmsXFLj0ZYJbyFFihKZWxBZZnWaN8mkT9ccOrfNIqu+rKN2FJSyeOU2Zs7LY+lq1wrlPcjf4zVSkbz78u38fUmsOIiaqFixdBwSYFY++CEkxdFU7CjeCCMl3sf47UglHkDUWU3YhMxdMRVFqClF5TCksE2y5bD+iBTZqCr60D5QJE1lPFLbYCpmaVJ/oWHjJhx15rkceuJpdOnVl5Qa9CTWrFjG2JEfM/LNV1j4p1pUMMhKejDywExEGiOiIGpvQc2bZHL+8Z059bB29OrSqKoj3f+xaMU2Phq9jFc+XcjcJaqKnsWIjG4GdsFe3YK9nCeQoN1k407gLr+dqILLkPRpp+QhcVg/x/rB2nJUr0EioZONb4BjqT3POAVJ2ziAneeImrrNSUFGZl1O/edVDL/mJhpkx/a8jkQi/PjV5zx1x40sXzhfy6Vx6BbVCRIPo1SutkG9NK4/ezeuG96DBvViOzUJhyN8OHoZNz32q5u7AolMPjCJnRP+VGSbvzbuRY75ko33kbP2iN+OVEF3nJcU3wIciiz4YiYakYoHESGUZOMTpOZ5rIFxu7EzingIEldgqYbd++/N/a99QPNWZsHWxYWFPP6v6xjxsppY3354I5nsJTmI1odxCdkD+jfnvYf3pXkTs6pv2wtKuOTeabwx0rUjnUShPGi3vF7INGJ/Nt2EbsZEvPAdclzpe6R5DfxA7C8d25Cd+klOO41Gk/p7ZBstiAUT3KQHkmf8GbGtGtcjsQQjgP8A7yLb5VuQB3CybEnWymEnn8lDb46gYWPzU5TUtDQGH3oEjZs1Y8oPowmbp5E2Rt4aEomrgSNMG7n4pC68+9BgshuYq32mp6Vw/NA21K+bxpipa4kE8f3MH3KRiesFRF/jGiQ+ZSIi6RrrDX4pUpUz2RhD8Cd/kLP74URfOyUfKUlu9JISi0zlTUiwQlClLcPA40gAl2bw4nPIj0fr0dSBnYVBhpT9c9Jx6j+v4ur7HyVU04GxQ8aN+pRbhp9kuggoQXLA1+h45TshJC/YcdlvgDsu7sVdl/bW8agSb4xcxNm3JWroRa1sYKdOxzjkpUErDXU48Cp68VylyMvNJSjsJrnIB0g6r6qIgIsciyzyaiuesBbZnR5v2mEsVakmIiJBh6InWKDFNqRM65PIqvlUwGxvcif9kRQj47JTZeQhq73PkGCcV5Bdg4OU2g88Bxx9Arf992VXJn+A9l27k5qexvTxRsG+Kcjknygz0mAMz/7PObYjj9/onihen2457CgsZeJv613rI4C8DZwJ3IjsOE1B7jutF44TkUlFqwJhGDgfUa4biQRM5yi1rUUEeVm9FGfaJn4xF9k57kzVC/Uwcr+ciOjWGOPkCdwFWVkFpcrYFGSVV1H1aCAiDKJZhuoO4B7F9iryMXC8S20HimYtW/P2pJlkVaMIqUUkEuGWs09m7EgjpdgfkViORMAo+K9ru2x+/WAY9TLdlUgIhyMcdskYvpucKBsvtbIECSR2Q/N8GKLToVnL4HLg6Qr/nFP2z6cr9mHCWmTHw6kwVFDohUgDd0V2XP5AvkvVYBmnr2B1gOuRaFK/lPO2I7nMD1H1Ku8g4Av0dgJAzuEeV2wPRKP9c+U2A8vtT7/CkWec40lfq5ct4ZQBPSgudFw0rgSRxd6k55Vv/I5BoZGPH9uf44d6o4o7e+Fm+pw0itJw0gQEVKVhYMoQRMwstkIsNVOT7PIpyLPRr6DnCFLs7EbkOMUSBU7PhIqQyXd3ZNvKS8nUMCJV3A2pO1/dFs/3yE1ZrNj3o8AFiu3VB55SbC/QdNqtF8NO9U5jZ9e27TnpgstMmkgDNuK/epmGOZ78B/XdxbPJH2D3Tg0559iOnvUXAK5DtwrcAGR7XnPyv5+aMwg+QN5W78Wd3YyamIBk7ZyHnfxjwjQoZAly9r4b8Dru1ucuAF4EeiJbPCui+MzIsr/VKnoTQoICT1Nq7w7MhXR2IIGP/4cchwT2zOu86/9FSqrWUWR0nH31TaTXsdVcTbjj4pjURVW4/eJepKQENd4YkLzt55Hz+zmGbaUjzxWNC+6FvPlrBuc9RXTaAduA25HsqbuR2Ca3CCPb/Icgk/9EF/tKWLR/YY2RALyzkLRB0wVGGDmH/aDMnK7uLkDSabSutxgJxBhp0EZPpBqVaS7Vv/irrGsDJOCrXIdgLwJQzzyrYSO+nLua9Azv40dvPPN4xn/pimJxwtNyl7os+/Z4Un2YjA88/zvGTl/reb9VEEGCrsayMw+/omMHIOlmpoN0PhIU7JQuiG8tDP2oyKuIX07OYzKRFLxTkfRTjePY2chZ+KvAQoX2khrtiJ5NwLNl1hj5YQxFKk51p/b0vHWITOl05Eb+EZ1V5EvIxKiVB5uOLEiOQo4aYqV8J8F08v8DicatyDZEyfCbsn+uhyzGytMO90Y3LiIq9tx/qC+TP8CgQ4bZBYBDDhvU0pfJH+CI/Vr6tQAII2l45Sl5P1Lzy8dY5FhyuGG/DyPxQE5edNoiGVCak/8HwIU4z0goYOfLW32k0Np+Zf/bFWhNzYum7cACZD74CRHLsZO+Im6G9G5CotsrhmHnIIuALKQaVQgRvMgHVgObXfTn8bJ+71ZqLxNJ5TuU2JWYzkfe0k2IIGkutcl/bkfeTspz4jKRM8IDkF2CgXgQyNl7wEC3u6i+731Mhzp5GdS3qW99D+7rWS2yEqT42Xh2Tvh5MbZxPfJCYFJjoQlylBdrkZ4WyOTf1qDvyoxCdnK1jk/zkVTqiunUmYjWRnaZpSLPqx3AKv66y2JxAa/LnuaWmV/cgywCVLTQkVXtKGSX49coP7MLkrlgyuvIwypWCti5jQmyCzGAnUcGg9FNnwSgXdfu2k1GTZuOXUhJTSVcqvUsSx66d/BPuNLFvouRt8pxyO9gAlIO24T1iFjai4btnI1sb0cr8tIEmVSNBJ4q8QNwMroB1FVRgOz4WnwikeueV8dNyAR3iVJ7jZBglCHIlnxtPIJ5JbZNSLqLBsVIAE15rfBURONhX2QxcBAKleNymvpXIym9Th2yGjZi86aNvvkQrzRr7J/mV+OGdUhPS6G4xDjJqASYgbwlT0QmVzd2G18GzsFsdy+ExCv1ofag6mwk4K+nQX+VmYIo0gVdOteiQLKV+gXZOr8cObPToimyCKgtd+kAdGrN34h7EbalSFnJJ5A0ymbAnsC1GOzeZNTVzEiKncy6fslVxDd1M/x9R6ibYZQ1cj9wIDJR9kdqro/EvaPGCPJiYfrm3A1JDayJesi17GXYV0VmIOJBprshljghGRcAIEE+5yLBKVq0QrbOqjuHqwM8g3mk8ATMIoVjpRTJVngMCchxROEOf18oCnZ4nZqcGOwo9DerdEeh42ObCPBvJEDPy5tvFjpiYbdR/QtFHeBDdFUq5yOyvn4e0Vo8JlkXACAT23B2Rstr0Bb4mqqzHW5AKgyaUIy8YfglkRZrYNT/2Lh2taYfMVFcWMjWzY5dT2rWbvSvjsqGvEKT7f98/NPEuAspu2xCXeC/Vfz7NKTCqHFVxwosQeKYkkZ/2SIk8wIA5IztBCTqV4seyKKioth9J6IT0qiNRxFJV7/Y4vSDi+dGEx7hDssXL7ABgA6Zu8TxV27Mn4uMdurdzCiqjXzgCoV2hiHBeOWkILt/Jyi0Xc4q4GCiE1azJBjJvgAASTs5Cpim2OYeSHBOeTT9E5jLci7DvWJE0eL4IfHbJKOy1UbM+Mm/vuOdSb/5p6w6/ud1Jh9fruWHQ0YigjWmPAmUp0M8gk4MUTkbkDRmm1ufpNgFgLAFWW1rvl3vgzwAhgNHKrR3KfJm4SeOx+eXCWPZvs2f2KJJo7/ypd9E4OuJq3wryvPF+JUmH1cpl2rIlYgwlwktEO2Sh5BiZFpsBg4jGONk8Qm7ANjJRmQ17DjQrQoOQipUmfIxojfgN44XAAU7tjN6xHuavkRF3ob1TP7+a8/7TRRWb9jB6J+8j9+Ys3gLk2ca7T4EYWJbjgQimnIFemm/IC8SRyLBvZYkxi4A/spq5DxMc/vQNOp/K3CVhiMK/I5BitOr/7mfogJvg8pef+xBiotqE0u01MTdz88i4vEmwMOvGseMBGVyexL4zbANTS3mQuB4bPEcC3YBUBVLkYhY/8LW/8odBCdAZxuxyx7/jzXLl/LBC95VP169bAkfvfyMSROliMZDKAHM8RvxTzM28MkY747Uf1+Qx1ujFps0sQ2YrOSOKSXARXhbMr06SpEYgtG1/aElObALgKpZgOTEbvLZj1+pOhXIT4wO1F9/9AFWLTV6uEdFJBLhiX9dR3GhUYXqn5CjoUTA6Ajppsd/ZUu+28qwUFhUyvn/nmyq/vc97pYmj5VpiLqfn4SReKQPffbDEiDsAqB6ZuKvKlYY+Cf+5TJXxxcmH966OY8bTj/W9YDA1x+9n7FffGLajEYUd1AwKoe4YNlWzrx5ImGXAwIvuXcaU383XnMZ3aMucQv+FbcpVyh8x6f+LQHFSGczCViJbHmfinnp3lh5FvPCIm6wHtkdae20gdwN61j452yGHnsSKan6t+DYLz7h4esuJWJ2cF2CqEWaRnEHhRXA6UjxGEfMW7qVHYWlHDJwVz2vKvDI63/y8GvGZ//bkGqbQdoBACl8sxrdHP5ouZ7g7SRaAoBdANTOUiSg6GS8G681yIPCPxm2mikFjjNpYNmCecyYPJF9DztKVad/xMvPcN8VF2gI/3wBvKTgUpBogAS5OmbSb+tZtX4Hhw1qSWqqTmxaaTjCTY/9yl3PzdJo7nXgI42GXGAWUmSrtpohmtwJPOhhf5Y4QjO6NNE5CXgPbxYBZyByn0GlAyIeYnz/tO7YmYfeHEGn3XoZtVNUUMDjt17Lx68+Z+pSOfshdRcSiUaIoFSWaUND+jfj/Yf3o3mTTKN2Nm0u4uzbJpnm/FfkLOBtrcZcoCtyvOhFmcX/IG//FkuV2B2A6PkD2Q04FncXTqORksVBZS+k3oFKsfYtuZv4/M2X2ZGfT7fee8S8GxCJRBg36lNuPOsEpv6gFtz8I6LnnmgUIIsAk3K1ACxdlc9LHy+kbkYqfbvlkJYWWzhRcUmYVz5ZyAnXjOO3uar1Z45AFjkzNRtVZCOi53+Ay/28QHDShy0Bxe4AxM5luHeeVgD0RipzBZHhwPOA2WtfNdRrkMXhJ5/JYaecQc/++5CaVn0p2jXLl/LD5yMY+darLJqjqvkSQSbInzQbDRA5yP3lOBagMi2a1uXcYzty6mHt6N01h1ANT5U/F23mg2+X8eqnC1m62lVhy0eRhXTQgmhBfj8zkN0AN3gb+a0GIfXQEmDsAsAZNwMPuNDuvxHZz6CRBvwfcLVXHdbPyqZ73z1p1aETDRs3ISWUwo7t+axZvpQFs2e6mUo4CqkNkcjcAtzvRsPNGmfSp1sOnVo3oGFWOimhEFu3l7Bw+VZmzstj5TpPyzJ/hwTw+p3OWxUH404+/mfIcWUQFz4WS8JwH/K2qGnGW7Mu0AR5kGpfa1BtByIJnah0QLbI/R5nr2whYBZg4g67IBk1mtf6Ld7EFlgsFqQ6l+YPOBfo6+kV1Exv5AHq90Pca9uOqEEmGm1Izu9zK/JWHBQaAtPRvcZJ7Kw+arFYPGAX5Nxe84e8Guji5UVUw0lITrXfD2+/bBuwv/EoBodWiMKl3+Pql4WRctp+i5/VR3T4ta/vcC8vwmKxwCu487BaBrT37jL+QggJniqtwb9ksURZBDRDslj8Hs8g2CgkE8IP6iBS2m5c1+94L1ZmsSQt+yJvFW49qOYD7kiuVU8W8ImC74lkm4EBJoPqM7sgk4Pf4xgkmwf0MBlUB6QiOvxuXpdmyWCLxVINaUgaj9sPqpkopmvVQhekYpzfD+cgWh7Q3/nQ+kYO8DP+j18QbQui6eEFKYgOv9vXlI8EeVosFhe5Be8eVFNQUG6rhWFIAKLfD+UgWy7Qz+kA+0AjpAqd3+MWZAsjMrlupkOHgOc8vKYvXbwWiyXpaYf3wXETkeAhbex5f2y2DujpaKS9pSGycPR7vOLF3sed3xfAwz5cz/EuXYvFkvSMwp+H1JdIEJEW9YEPXPR3DaKauMTDMfLCVgPdYx9uz8hCVAz9HidN2wpch7vHGb+iH3h7l8vjUp0tx/1dQ4sl6TgJfx+EH6JTv6ED8JuLfk5Hcs5B3kZfxt2ASa9tJdA5tiH3hPpIHQO/x0fTxgKdyq6vLiJz61Zf64EDYxrx6rnewzGqyh5Vug6LxYKsqFfg/wPxNczOLIeir0BW0d5CHtSV2QeY6tEYVbRFwOVI5Ldmu8sIVsBVPeAHdK9xK7KLM0m53WjH9zSqvtdvQKRu3ei3GLgiivGuiYvxf8FbTLBExSyWuOZx/P1BVzSnxYiuQh4MbvhUgmzT1kQI0dn3Yot6MXABO3Oj2yCLAe0+2tZyzV6QicjAal5bPjCkQh+H4833tgiZQGuTtD0M0fh3y49XovChKs4iODE1k/Ff+MhiiXv64d4bh1OLpRhRJrJz4JYvG4ldP78/8Cy6D/GtwJtISdiqSgm2Rz8mYQHQOsZr1yQDiQ/RvKbtSLGaqhgAPAasUuxvBzAC+d5iOeLqjLsaB5OBljH4cxzuLbCd2iUx+G+xWCqRis7W9XzkrUrzx31rFP63wt2I8FnsPKN1QhrypvkgMI7YMizygQnI7szJyDZ4bXRCgqQ0x2Au3os2gQSFfubA35qsgOhkZVOBg4B7gW+QRWC0fRQhAX1PI5OmSQS+2+JVq4CBUfhxKPqy4BpaI7lAiyj8tyQhthxw7VyG8y33csKIcmAW8Dm6FbuuBJ6q5r8NAj7CvcnpE6Tu+DbFNlORN/V2yPZ6NhJTkIo8zDaV/e9KZOJ1Uva0KxJcpjkufwIHIKmCXpCGpK+doNhmEXAi8IXDz3dCvrccoHHZ/6YhE+MWZDJdghQkKjT0tSIh4A6knLYbz7RC5DnwcjX/fV9kERTNAjRa/oXoB8xB1BxNeAc409gjiyXJaIGOQM5zFdo8Ft1twjBwYRW+n4VsrbrxVlQuoBLP54td0d3GjiCLgOYe+J6KfjR8CXCqB767yZGIaqMb93wEeJ6/6+33RT8WoWIE/9lKbVZ3pGOxWKrhPcx/eOuBppXaPRPdQKESJGIa5I3rQcW2K9tWEkdopDuiV6A5Pr/hrnxzChLnoOlzCXC6iz57SXdZPu0AACAASURBVFdkIebW/f8jOxd53dC/fyrvNoaA7xXanY/EAlkslig4FJ0f9FnVtK+dKlSIbMePU2yzss0DdotpFINPX2I7v47GpuFOxbkU9CtQlpB428M5wNe49ztYghy9aO8gvUbVRxjdkd+3aft3xjSKFkuSkoGcvZn+4MZS85nkVQp9eGVfIw/WRMSNRcBkJH5BixDwjLKPYeAiRR+DRCqyE+Z3Pn609jFVZ66Uc49CH4UEW8XSYgkEWj+2aEqO+iUXGos9gY4CYZDph/5Z7iR0JFlDSKCnpm9hkiNF7FT0s2+07VtqDwzOQIJeTfsaiw3+tliqpSs66Tx3xdCnHwVDorEdyLFCsjAQiVbXHMMJQANDv7RjOsJIVHuy0AcRbfL791Td/RFtGqTWsWSiHflYLCr4FXDjdcnQaGw5sFcM15AoDEYCHTXHcjRVyyNHw33KvkSAGx36Es80Ree3rWlOSn1rBCavIXGP8ywWx5yNzg/7CAd9p+BuoZNYrGKkczJyMKKGpzmm3xB7FLbGUVRluyVGHxIJtzNkYrGZOMsW0UpNftZB3xZLwtIYWIv5D+sdAx9SkYp/fj6Yqsp1TkYOQV9H4SuiF4G6Q7nvCHBb7MOQkLipkRGNzcdMhOpyBR9KEaEwi8UCvID5j2ozsWmHV0Ud9LXdo7ECpHiOZSeHoy/v+gm1L7CuVe4zgk0Bq8xA9NP4orFliNKlCSnoFGaaiV3sWyzsjY4wz6VK/tTD3Xz+yrYKKddr+TvHIRK5muP9EdWnfLmRGvqI+TAkJC3xpsJhua1FxIM06I2OomhtFTwtloQmDVFvM/0hTUU3VS4bmK7gV232M8EoaRtkTkS/ytsH/H0RcCH6eeuP6Q1DQpKBaPy7/TvLRfQmNHlCwa98zHckLJa45QbMf0TFwB4u+HaGgm81mdOa58nIGeiXhH6VnfUUtJUhI8CT+sOQsFyFu6V8n3bB52xghYJvn7jgm8USeNoRW/nZ6syNt6zr0Z9wKtq1Lvic6JyNbg2HCBJ7cp4L7T6LFXyJlaHoPA+qszdxng5aHScp+XaMsl8WS+DRqKW+Cmio6FMmognu1kOo3D4k8dX93OBc9CdrbXuV+K7U6BeX4f538yv6W+4jFfxairlglcUSNxyPzg9asx57KySWwKuJ4hXsW6ITLiC4GvOvYyd/JwzHu4XdeuBARd/bobNz8bCiTxZLYKmHjjToV4o+DQZWK/gUqz2heA3JxJX4P9lXtg+puaCMpWqOx93z/6qsGLhJ8RpuVfJJO1DRYgkc/8H8x5IPdFTy5yJ0yn06tTuUriPZuAb/J/1yG4Gd/J1wCPpaD7HY84j2hyl1gNkK/kzB7iBZEphe6OR1a6ze66AjQKRhNyhcTzJyHf5/d19iszmcMBh3g/6itYmIxK8p+6JzNHWhgi8WS+BIQUq0mv5AfsdcQWsX4AcFX7QsjKSiWWLnTvz73r7GTv5OGIB+5UcTW4EIkpnyioIvm4BmCr5YLIHiEnQmygMM/dgDibr1+6FT2UqRfHdL7NyL99/Xt8ReYMgiu4Ab8f/3VtkKkCwTE5oA6xR8ed3QD4slUDRHVramP4wXDf04A/1Kc5pWguQWW2LnAbz7nsYTfR15y04640+wbSxmWpDrPCU/DjLwwWIJFBqldjcgdcWdkEpwSpHWZoXAMIfXmew8jPvfzwRszrYT2qCT/eOFjcP5NnwIGKPgwzzsDpMlATgYnR/lOQ77bwJ8p+RDVbYQkX3VbHMbEiRliY0Q8AzufdcTgSzPriZx2BUpw6v5XYwEvldus/LvupfD690dncyi2x32b7EEggxgLuY/hLE4E83pDSxS6L86+w5ZYID+DkMe0M/BNSc7ISQnX/u7nouu6mSy0AQJ3NX+3WUiqZePK7dd0bYixaiccL9C/zuQYxOLJS65E/MfQSGwm4O+jwY2K/RfnVV1Vvioch/rHV57MtMLGTft77sEONPD60gEsoFp6H4PP/H3Ixg3Y3vCyOI+1vz8usgugmn/38bYr8USCLogK1jTH8C9MfYbQnQC3JIWrSlaOAS8pNzfGvTqmCc63XA3yKwEOM2zq4lv6iI7d5rjPwPIqaY/t7N7RgGNYhyDw5X6tvecJe4YjfmNv4TYoq2zkPKabj0EoskXTgXeV+53KaI5bqmeLsBK3Pvuy60IONaja4pX6iATpua4z0WyiWrCbX2PeUCPGMfiI4V+VxP74sNi8Y0z0fnBHRlDn13QkeOszmJRDKsDfKHc/7wY+k82OqNTmz1aK0SOmCx/JxX4AN3xXgq0jbJ/txU+txDbAnBXJJ7HtN//xtCnxeIbDZEyvaY3/Psx9DkMyFXoszpzohleF/23kRlA4xj9SHTa4k96WSGxLVCTgRDwMrrjvAJndT/crPFRHhcQbWDy1Qp9lgL7xD4MFou3PIv5zb4ZKc9bG26f95tWDctGv8TwZGwqWjlt0Am0cmrbgaGuX2V84EYK5jrMgmDdrvL5PtEdUaYCPyv0NwNbdMoSYPZCZzK+Ioq+MoE3FfqqzrTqhjcCflH27XusSEgrYAHuff/RWj7m8tSJgBtpsHsq+NUK/UV4RZsBdIjCj/5IEKlpf1c7GwaLxV3S0JnopiMr5ppoU/Z3bv2of0U36K4Z8Keyj9+QvIVomuFuvEestg3Y39UrDjZ3oDue+cB+iv5lAq8p+1jRNhCddO9/FfraArR2NAoWi4tolGYtpfYo+/2AtQp9VWfvAvWcD0O1tEb/rDoZ69Dvgr6wjIZtRqrcJRtXoDuOhUj6nBtchBzrufH9R3NcmI1OsOpHBmNgsajTBlHNMr2xn6iln4uQNCw3fsAlmJ33R0NndAIkK9prxC5SEq/koHOW6pblIVu9ycLZSECc1vgV4X52xaHoFCarzt5CAoCr4zSlfmwWiiUwaOTer0RWyFWRCbyq0Ed1thF5MHhBL2TLUNP/xz3y3U9y0I+lWA/8ptzmBkSCOtE5DZ0z7XLzUmSpM+7uIv0EtKyh/68V+liMOzuVFktMDEPnR3NyNe23RCLf3fqxzgG6mw9DTPRFP23xHk+vwFsaAlPQHa9cJMisEfrxJOuAnq6MRDA4Bt2duDCyu+clDdAR6anOVlF92l5ndKSLHzAfBovFOfXQKbbzdTXtD0R/y7yijcS/Ai+DkOAxzeu52dMr8Ib6wHh0xykPyVgpZxdglnIfa0nMOg5D0ZH4rmjXe3oFO/FCNvyCavq+XaH9YqCP+TBYLM7QqL++HehURdtnof+gKTenBT60OQR5SGhe2zWeXoG71ENfT34zVQeaupFZsAbvd5fcZB90Yn0q2m2eXkHVHImOWl91VlXhsDrAHwpt/4izSqkWixE90dkGvLVSu2no5xRXtK3A8XrDYMxx6EYmh4HzPb0Cd6gLjEH3u88HhtTQZ3P00zWX40zJLmj0RmJlNMfmMU+voGa6ov/dV7Qf+Xstg/3RCaI8T28YLJbaCQETML9x5/LXXPamiMiNWz/C+cDuqiOhw1nobkOWAKd4egW6uFFMJp/ohJ1ao68uuJToxGKCSldkN0NzTF4meG+u2cDnuPf8Wc5fj54AXldodyNyjGWxeMKFmN+0Yf4qo9oHdzXdv6b6UqJB4FJ0rzdeterrILEZmmNRgASrRktbdGJbKtoS4rOiY1v0y+y+if/Hb9WRiuxAaqY3VrQdwPAK/TVBslFM231FdxgslqrRumFfrdDmqcgbmhs/uAiiL1CbumAQ0CgaUtG2U/OWd9BIBz5DdwwKgaMc+NIOmbQ1fZlHzelhQaMV+rshnxAf4lVePpMuUmgvjI50ucVSI1pbVs3wfrUdD9yL7hhs5u/bjkEkFXgP3WsvQlLWnNIF0afQ9GkO8VHWuSn6QZGjiS/5aq92JVPQOVKdQ3yNryXO0ApaOR9/ztvihf9DdyxygT08vYLYSAXeRveaS5C3OFO6op+KOhOZYINKQ/S1ESYSXeW8oOFVXJJbQdUWiwqaaSvd8T7iNp4IAS+gOyZrCWZKWgr6VR1LgNMVfeyOfhDcb8hxWtCoh77uwq+I4FK84lVmklZadSJknVgChpZwxa14n3Mbj6QihYk0x2Y50N7Da6iNEPJ9aV5jKZJVoU0f9CWcfwUau+CrU+oAX6F7jbMI5kLHCW5rkzyJTtxJdcJqFosjOqEjXZmHe+f9BSRG/ntF0tGPiJ9HMM6g3Zr8z3HR5z3Rl3D+Cchy0edoSUf/SG4+sKuXF+EBg3BXnVTr/qpOWt1iiRntnGxtq0l3O96pg07xkIo2E3/fykLo1EavaGHgEg9874d+NbmJ+LsISAHeqcIvEwvabpMmLZGFm9/PvZpsNf7JnFsSCK3ylW7Zz0iuciJTD4lr0Bw3P89lH4rSx2gtDFzmof8DgS3K1/AjUqDGa9zYiVlHMONNNMlAxIz8fv7VZLWVV7f4iNsqWI2QqP3eQA+gG/LW1xB520hFtuQLEKGPZUjaz89I5bUNZX/7J8HdxnsVeesr9NsRD8hBpHH7KrY5DjgCuRcHI5kCvZEc+LbIhNQICarLrWCrkdK805Bo8Y0x9PkQcKOO+//jGrwviTwE+BLdkqzfIXXeC6L8+3rId7YX0B/53nIqWF1koZKPpDOW/8Z/Q9LO1iFyvFerXYHsjhyI7DIlA1cBjxBMbYNSpO7Fz8i9MgA5xuqNKFO2RbKxshD/NyPP0tVI+uNC5Pc9GYlNsASczsBdyIPZpFZ3KbII+MGgDTetGLhCacziiWboZ08swzz9aDbwbyRlribuUfY9AtwQ7eC5wEHoxMZUtC+pOZe7GbLbMQGzGhJh9NUOtyCTTLIxFB1xNDdsNvAN5sGLi5BF9hCCJ+Gc1KQCZyDniH7fbF7YepJb8ao1+g9uTZuGSEXXqeT3HS709S9nQ6jK4ehXdPycv4/fEUiEvmbhKE2LN9VJbTogOyt+fw9e2Dxk4R3PqZ1xTyoS9T4f/28Ir+xXEjewKBY6oq9Qp22LkVro6cDNLrR/l/Eo6nEUsnWqeX0jkG3Zw5AtWL+/z5qskNhqLSQq9YEP8P/78MpykYV9tsbgWaKn/FzH7xvAS3uP+FQSc4vdCO62Y0VzI2XqAYXx0+Z4dJTc3B47bSsBTlIYv0QhhGidaFb3DLqtQnahLS6TgZzDJNPNVYq8Qdpzp7/TD3dFlYJoj6iMnDucQnC36N36bZ6tMnKJx5Ek32/zK+JbgbWcdCQo+gwkC24vAlC9shP6+txBt1zk7NNSPYOBbfj/XXlhTxL8heAZmAXgxpN5mXoZj3TDXcnzINpq/lrmPZ7IBu6j6oXbauB6fCq2tC/64iNBtz+pParcIhyMfiBa0OxZgj/5l3MOib9Ld7PWYCU4DdFX8wy6FSGBwPFEJ6JbrE1CMnE842j0U42Cbp9jA0ti5Vj0z6CDYi8RP5N/ORfgnuy133af4jglAynImCXq/VCd3akwdl7QhNiC6Wfj0SLgKJLrTDGM5Ir7ft4Sh/REhDz8/g617Q3i9364lMR86GtWWkwmTiZ5juvK7d8qI+cuTpQwXS/pPZjkevPfCpyoMnLJRytE0Mfv71Db3kXSXeOZq/B/HLWtgOTO+TehN8HW8XDDgizatgvOX7Jdq+bZkeQ6818I9FIZueQjm8QUIPmQYMqrOuEG/B9PbduESIxbYqcJIvvs93folZUggllBZDhm1zYdZUGkOsBUQ6fiyUaTOPXC/WAE/n+H2vYpkoqTSPwL/8dV2+ZjtTmckobUYfD7O/TKcglm0ba7ML+2ySjGrCXTTfEoifOW5wdBr9ToxEbxdxncROFO/B9fbbMV58wYjrlOf7zYWIIXz3M/Otc2EYVqnnuR+OlDEeSG/4fpYCU5zYgPJcBYbBKQqTlIAeQp/B9nTSsF9lMdoeRjALAC/79LL+xKpTHT4hL0rm0cMeyIVU5rSkUq8O3p+FKqIDsjgyO79mBoh070btGC9o1yaJRZl0gkQl5BAYtyN/HzqhV8v3ghX8+fS0FJiWb3VbECOAEpGmNxznvAqZoNpmdkMPCgw9lryFC6992TVu07kdUoh9S0NLbm5bJm+VIWzJ7J9PE/MOHrkWzdnKfZPYikaFekfG2i8iXKuvmtmtXjyP1bMmTP5uzWqSFtW9Qnq34aqSkhcrcUsXR1PrPm5zFm6lpGjltB7pYize5BjgJ6kRxlud2iBXKcN8jNTlJSU2kzaHfaDupJ854dyGm/KxlZ9UjNSKdwSz7b1uayccEKVk6bw6Ixv7Btba62C3mIQNI67YYd0gUpbqTFGCR7b0dtf1h5AXAu8IqWF7tmZXH7kIMY3qcfddOjO07NKyjglV+m8Z9JP7Jm21YtVyoyEdENX+NG40lEX+AXlHLj62dl84+rbuDE8y8lq1FOVJ8pKihg9Cfv88ZjD7J0/lwNN8q5m/hIHXLC4Yhcqgp7dM/h3//szVFDWpGaEt2tUFhUyojv/p+9sw6zstr++OdMMnR3g5SAhCAqCGKiYhcWdl37XjsuXrvzXvVeuzEQA0RFREJRQULpLmmYYZiB6d8fa+bHMEyc8+71xjlnf55nP/eqc/Ze735j11rftZZHXpvPn8tUJ3BXI+FUFuekAC/igohOUrUUel14HL1HHk/1BuEdVxcVFLJ6+h/M/O+XrJ+l+o6/jKy8g4L2pPxbRJdlT2V/VPqNTQQWoKB8Vy0pibuOOJKbBgykRoqzo9Rdubn884fveH7GdAqLikxNKuF/wHWIWI3FjI+QmGIjQqEQZ15xHZfddi91GzgLaS3Iz+ejV57n5QfvJWdPlZPecNiJOAtlaFQWMH4GBphWkpaayOM39+Zv53Ym5HAKWFhYxMsfL+X2Z2ezK1tl128lsrLL06gszrkGkb1W8Y/qeuogDrvpLGo2CW9yXx7Lvv2NHx54i+ytKq9lDtAR2Q0OAl2Q3XdN8bnxyE53hbtipV/dc5GYZyOa1qzFp+dewICWOs6WYxfO56LPPiIrV2XMPh34TKOiOKcr8CeGzjRp1Wvwz5ffYsjw01WMWjh7JreedypbN/6lUd1dBDPjnwlDgB9MK2nSoBpfvjCEfgfqBM7MW5LOKTdOZtVfKqcuFwNvaVQU57QAVmE4AUhMTuLIf17MgWcMVjFq18btfHnds2yev1KjuueAmzQqUmIYEn2k6YD8BbJQK3cALT0BmIKhI02PJk358ryLaVWnjkk1+zFn4waGv/cmf2XuNK3qWyS3ucWMV4HLTCpo2LQ5T3/0FZ169FIySdi68S9uOWc4S+bNNq1qDdAOUdGLFT7GMG1uvdopTHnjGLp3VA07ZsuOHE6+YTIz5m01rWo+okhpMWMUhsdgqbVrMPw/N9Oib2cdi4rJ35PLN7e9xLLvZppWlQ40J4yzcg85DRiNbgjyGMRXa79ttpIJQHtgGQbnuR3qN2DKpVfRtGYtp1VUyuwNf3HE6y+TnWe0u1eEOFws17EqLklG/Cccq0/VqluPl8f/SIeu7nynt23eyKVDD2HT+rWmVR2LaETEAg2A9RhmEvvi+SEMH9xCx6IybE3Pof95E1i5fpdpVT2QHSqLMxKRCXBzpxUkVUvh9NfvoFnvA/SsKkVBbj6fXvwwG2YvNa3qQuBdBZM0OQt4H93w9I+QLKEFpf9lyRbuBRgM/tWSkvj47PNdG/wBejdrzhunnkXIzOcshMywLM4ZgsHgHwqFuO8/b7g2+AM0aNyUJ94fS7W06qZVxZLe/OkYDv6XnNLBtcEfoGHdVL54fjC1ahgvfqyctxkDMBj8AYbcc5Frgz9AYkoSJ71wI7WaGh9DnathjzIfAyMpM1gbcjZyNLaPrHnJBMAo3/1tAwdzUNNmJlWExZkH9uCa/sb+S8M1bIljjD6ux54xgkHDTtaypUI69ezNDQ8+YVrNMKIvA2BFGL3jzRqm8cxtqtHB5dK9Y10euv4g02rsBMCMk0x+3G5wL7Uz/8qo3qAORz1gdBIJMBRIUzBHm/eBS9E9gjwf+HfpfxFCvA634XC7oUnNmiy54VZqOvT2j5SMPXvo9PyTbM127DCUD9xHbJ3tesktOExDmZySwuhfF9K8TTtlk8qnsLCQi4/sZ+oP8DiiOR/t3IOBStjDN/TizssOVDSnYnLzCul22pcsX2t0FPAvJJGZJXKuQvxfIiYhMZGLxj9Ondbepav/7NJHWfPzfJMqXgJWK5mjzRmIOJ8m1yBhkISAE4GvnNb0wgknc23/Q5XsCo9Hpv7APd9/62mbFnPOvuoGbnn0WU/b/HHcWG6/QCfKIF6pWT2JNd+cRr3a3qkjfzhhNSNun+ZZexYdupx8OMc9drWnbW5esIoPzrwP9MLFY51cJCPk4gTA8X5bzZQURvZyf1uwLJf36U9yYrRnaI0/zrz8Ws/bHHT8cBo3b+l5u7HEeSe09XTwBzjzmNY0aRDrisyxR4+zh3reZuNubWl2UAfP241iUiiO8EhAhDMcMeyALo6FfkxoVKMGR7Xv6Hm7Fud06tGL1h2NNaYiJiExkaNONdYrimtOHuL9BCopMcRpQ1t53q7FOTUa16N5H/cc/yrjgOMP8aXdKOYcoF0CBsp/Q9u11zMnQo62E4Coou8R3q8MSug35Cjf2o520lITGdq/qS9tH3WIP+1anNHqkK44loU0brubL+1GMQnASQk4dOgC6OmB539F9G5mFKVi8ZgDuvf0re1OPXv71na0c0TfxqSl+nPcdlBn57KxFu9p2FlH/dUJ9Tu2ICHJHgtHyHEJGHgGt6vrOBzcmA71dGRILd7gled/eTRs0kxDEyAu8XMQbtu8hl8LSosDards5FvbCUmJ1Gpmx4QI6ZAAOFbvqZ1qpCtiRL20IIZuWiqiRi3NHBeRU7O2rjx1vHBgB//6LTkpgerVNMXQLG6SWtPfb3KKz+1HIU2NkrlYLFGDXUo6omt7O3GyWGKVBCDT6Y935lSYZdB10nXSvlo8Iss8kZNZ+ztjMbNvbJOXX0j2HpU0wRYPyNnpr+5S7i47JkTIBqMJwIod/gmkLd8eC+Js8cP6VSt8a3v75k3sdq4cGdes2eBfv61cv8tqu0QR6Ws3+9Z2YX4BmRu2+dZ+lLI8Adji9NfzNm1QtCUy5ujkfLd4xLI/5/nW9tI/5/rWdrTz+8IdvrU9d3G6b21bImfLglW+tb192XoK8zVz58QF3yQAi53+etJK/7LqTlyxzLe2LZEzc8qkuGw72hk/db1vbX//y0bf2rZEzrpfF1JU4E+KlTUzjHIBxCOFwFcJwBKnNXy9dDG7cnP1TAqT7buz+d5OAKKKpX/OZfXSRZ63W1RUxKTPP/G83VhhzuId/LnM+5V4fkERY39Y63m7Fufs3pHJ6ul/+NL20q9/8aXdKOYDYFUC4Hh/NCs3l7fmzNIzKUxe+30mOfnWOSja+OTVlzxv8+eJX/vqfxALvDtupedtjp20lk3b9njersWM2W9/43mbm+evZOM8/3ajo5BcJFumTjrgxdf/g1oeaQJk5uTQ6fkn2ZzlOFVoPvA0YN2LnHE54EhxIzklhQ9/WUCLtt5ISBcWFnLREX1YNt/I/+BlIBZCCP6GQ9GvWjWSWfT5cJo38ibOurCwiD7nfs3cxUb+B88BdgbhjBGAY1m/0169jdaH91A0p3LGXPIoa82OAN4BgupUNhzQ1jm+CvgvyKC/E5gJDHBS06Zdu3jqp6mMOvJoPfMqYdTkiSaDP8BPwO1K5sQjTYGRTn6Yl5vLyw/cwwOvva9sUvl8Pfod08F/IzJw+nOwqUtn4FQnP8zMyuOOZ2fz9kOHKZtUPv/9dJnp4L8EuEnJnHikCLjD6Y+nPvkh5w04kFCi+zIzq6fOMx38s5EBMYgxhCOBW5XrfJniwR9EBwBgvEmNj0//kelrVptUERZfLl7I8zOmG1ejYUscY/SsTPxsNN98/J6WLRWybsUynrv776bVjCc2Bn+AcSY/fnfcSsZPdX+RNG9JOrc+/btpNUbXajH7Rm5dtIZpT36oZUuFZG/N4Pv7Xjet5nuCOfifD7zG3jFag/eA60r/i5LK38VgSzwnP58zR7/Lmgz3nIXmb97EhWNGU2gWGFwIjFEyKV4Zh+waOaKoqIiHrr+CBbN+VTRpX7Iyd/KPEaew01yn4gMNewLCGMCxcldREZx7+zTmmK3MK2XLjhxOuXEyu7KN/XvcH31im18Ao/CP39/8mgVjpiiZsz8Fufl8df2zZG40jv0P4rNyNvAWoJnd6CNkR2GfWMmSCcBKYKpJ7ZuzdnHSe2+6MgmYv3kTw99/k0xz5cGJgPUIMyMLGG1SQW7OHm4971SWzJutZNJeMtN3cNv5p7FqyULTqtYAsRQ/uB34wqSCzKw8TvzbDyxZra/quHn7HoZfP5lVfxkLD/0JuDe7jA8KgFdNK5l0/xss+XqGgjn7kr8nl6///m82zDGOBNtB8BaEpyMrdc3Bfwyyo7CfUELpRnYDZ5q0siUriw//nMuhrdrQqk5dk6r+n/FLFnHSe2+yOUtFkexWwPtYtNhjPXAl4kTqiN1Zu5jw0Xu07tiJdl10fFxWL13MdacezSKdyJRHMZwUB5DNwMUmFWRm5/POlys5sGNdOrfVSfA0Z/EOhl7xPQuWq/ha3g/8plFRnLMUuAGDLeiigkKWfTsTiopo2a+LSj6OzI3bGHvZ46z7ZYFxXch5eJCOi04EPgaSFev8AjgHyCvvP5aeACwq/sOGJq1l5eby/h9zSEpIoH+LViQmOHt+snJzuXfSt9w04Sv26IX87QS+oZyZkCUiNgCHAAeYVJKfl8ekzz8hMz2dnoccRorDSJLCwkK+fOc17rn0XLZsUBGuyUBmzP4lu3CH1cBxQCuTSnJyC/lwwioys/Lp170BaanOFisFhUW8+MESzr9zOlt3qHT1BmSCY2OEzbkAGIbCGfT63xax6Y8VNO/TidTaztNyL/l6BuOuf570NZtMTQKJ19euNgAAIABJREFUEBmBgRS+Ml2BCYBm3vLxyKK+QrGeslOykcCbWq13qN+A2w4fzIgeB1EjJSWs36Tv2cNbc2bxxPQf2ZDpyr2ZjnSKlRkzYwASUaGSZq9eo8acd+3NnDLyCmrXqx/Wb/Jyc5kybixvPv2Ittzv/cAozQoDxHHIh0aFurVSuPXirlxzdifq1Q7vHd+TU8BH367m0dcXsHCFaoTlzcCzmhXGISnAi8AV2hUnVUuh+1lD6H3R8dRu2Sis3xQVFLJq6lx+e+ULjS3/0vybMg5xPjMBeTe1+BY4hSpCYct+vBOAGUA/RUOomZLCCZ26MLRdBw5q2ox2detTt1o1ipCsfsu3b2f2hvVMXLGMb5Yt0VzxV8Q65KzFbhWa8S6yUlYjOSWFQ448ln5DjqJLr760bN+R2nXqkZiURGZGOpvWrWHZgj+YNXUy0yZ8ScZ29QQgfwGdEF+HWGU8srpTIykxxMDejTlpcAsO7dmQ9i1rUrdWComJITJ25bFq/S7mLU1n0q8b+erH9WTsKndH0oQlQA8qWe1YqqQp8CngbrxnKESLPp1oPbAHzXp1pF7bZlSrW5Ok1GRyMrPJ/Gsb25avZ92vC1n5w2yytqj7le1AwmId58FRphMGkvzlMAk4CYfRDX2RLbSiGC+7gQuddJDl/+mK//dRu/wEVNPspADyAv73s3a5TLWH4o/+yMLI7/voRQnSyh/gWvSu7UeghqlBTykaFPTyNA5VEOOcNGAy/t8/N8o4ZCs0FhmF//3rRlkLtNPrprhiJLIg8vseelEmoRtbr8HD6FzbdByqfZYlBYkF9ftmeVW+w6G8bZySgmwj+33f3Cxj0fXGDQJ34X+/ulmWAc3Veiv2SQKewf/75lXZBrRU6Tld7sf82mYgsv5qtEU6zO+b5lVZjpwhWionEQlV8ft+eVE+JnZ2h27F//70oszHMJIpTmiA6KL4fb+8KnnAsSo9p8+FmF3bTEAn7r4MhyHOUH7fPK9KJnCGSs/FJiEkSsTv++Rl+QBdUQ4/uBH/+9HLMguoo9JzsUlPRBDN7/vkZblWpefcoREyQXFyXbOB8MKmHHIi4lnr9w30qhQCDxC8c6Ig8CL+3x8/yttE7/NwLfJM+92HXpdpKDhDxSBnAbvw//54We5W6Tl3eZnIr2seHu12nUh87QQUIQpKqmcqUc4j+H9P/CyvoaR54CGXE5+Df0n5DvAmT3nwSQAeIv6eh3s0Os8D6iPqi+Fe13ygsZcGHkZ8+QQUAQuRGM14J9adx8ItLxE9k4CRiOKl333md4lFZ85IqYNk+PP7XnhZcoFLNTrPQ9oj5/lVXdvXyLGB57QlvqIDihDRiBMU+i5auR7/70GQyvMEfxJwHvGh5RFueY/oPcIxpTMi8+73PfCy/AUcqdF5PpCC+OysZf/rWogIr/n6/UlBdALiaXVRANxJ8D/82lxC/G0ZhlOeMulUlzkL5w5FsVz+S/y9vycC6fjf916WL/FpdaxMCOiN5Oc5EzjQX3P252BEStfvG+5lGU38OBadTeysIv9yoc5HnHeta5yGvsOuG33nVwnyxE2TEHJsF0+LtHXIN8viIQlI9q3F+P8AeFXmIEchsYx25Echkj74aLxVD1yBSMQmA3e4UP/9DvvXDU5CshdqXt+niA7CccDPynVXVhYj35WBSAZPzbpHOeveqKEG8BHe3Su/yzbEy19FAc/ijETgXCR/ejxsGW8hes+YquJIIBvd/vp7mTYGIVEWboWX/oJ4wJd1/rrPhbaCEGJ0HJL1S/O6vmB/OeRhiAKkG0cMhYia2Qj21V3w4nmMFdoBc3HnnQpaWYhkf7SRWgGjPXAvsmIw+VDkIx+ESQZ1uFnygBuU+iwoDEDEkDT7aVQl7dVHBupvMR9U/kCeu45VXOMDytdXBNxWRZtuchT6A+R4Kg+fawhcA0zB/L7NAm6nch3/E9Hd3SgErqqkvWhkKLAV9753JmU+8A3m+QaWAk8iO0Px5s/hCm53Ym1gMCKx2wXxSG2IyBbWRGb6O5EP2CrE8/FP4HdkFbcdCWFZCDRz2VanvAlcjXygopmDgB+Aeop1Pk34q620Yhv6FpeOxbaUlGTkedhR/L8bkcHjNyR0ZkcEdj2G/qDtRy76wchgXV2xzonAcKrII16KNKAXkkL8YKANMrGrV/y/ici9KSlrkfs2C3nPw71vZ6GrylgIXIRECEQ7NyIDYxBlqwuAQ5D7nYZkHeyDvOttgdbIeFAD2XFKRyYKG4GViET7b8iCcp23pluCwjn4P4utahXT2rWrd58DgA3o9skbBHuW/hi611sI/M1D+w9F/3x8KsE+S70IXce2fGRiEa2kIgJVfn//KiteT4otMcpX+P8wV1Y2IyuyaKMVsvui2RcfE3z9/BD60saFyNa42/RBdkE0bZ8O1PLAdlP+hu515yC+DdFGc+SI1O/vXmVlAzYng0WJDuicdabjnqPiHsTrPFpojqRQ1eyDsQRzK7I8QsAr6F5/AeLB7hZ9kW1zTZt/JjoG/xK0lSmzkHPlaOEw3A3P1Hq+onl3xRJA7sH8ocxDPiBuCmS8wv4e1EGjIeJvoXndE4FqXl6EAm5NAi5wwdae6Dt6uZ5NzCUeRrcfMhAfhqBzIebOdBWVQkTpcpVCXRNcun5LHJMCLMD84ZyKOCRq1FVZG03c6QZjaqMv4vQzwT4/rowE4B10+yMfkeTVogviGKVp4xwkL3y08hS6/bGFACquFZMEPIp736udiJDU4wp1ZSPRYBaLOkegs4V/GTIQfq5QV0VlLeIdHSSqAz+iP5BoRg/4QSLiEa7ZL/mIA6spndDf8vUslaiLhID/odsvm5DFQZBoCHyPe9+ppcjEpzs62hx3utMNFovwFuYP6TZEMzqExKq75RewG8nMFgRSkLAxzetbTHB3OiIlEfgQ3f7JBU42sKkjsF7ZpkVAUwObgoQb92wNEs4YBHoh4XBufJuKkMxy9ZDv4DSF+hZhUzBbXKYBsl1n+rC+UarOcxBnILdetFfw1zkuEX2J0GWII2EskYz+rlAOItUbKW3Q//gvITbvmXaU0BL8nySdi7vfpOfYG61zhUJ9hcSuQqolYGg9sENL1XkQ7s62J+DPVnkC+tvb66hcvS2aSUE/f/oeIksr3QrJZaBpwyqCs7LVJg0RstLsr3n44yCZiJz3u7kreVGp9rQWVK/rdoPFUjFaW1aL2XfLqgHun7d1V+2JygkBLylfw2agm4fX4AcpwDh0+y2b8FZILdEPz1xN7E7YSqiBzjehdJmBtyGStZE8DG59f9ayf7SD5pGqxeIZWk4rd5Wp122P20zgdL1uqBRtxbt0RIgmHkhDPxdFFpULRjVBPzplLfHjlV0XkRjW7L9peJMGvDMie+7Wd2cK+/vraDlVX6rXDRZL+GgMcNmI0FBZLkA/0UpJKUQmGQk63VAuo5RtjjbBFA2qo5/CeBeSEbEsjZHEKZptbURCCOOJRuhPor7BXee2E3Ffm6RsdkzNsOogy35bYpjq6JyVViRccSjuqm59hTtymTco25mDpJ2NR2ogqyfN/kxn3xDRhkhGQ802NhH7RzUV0RJ9H4ox6DvyhpBsiJo5DkqXytRJ71WoPw/xnbJYfGMYOi9LRdKVzRGhGzde0CIkdEZzlXYxug5EuUiGuHimDpKhUvO+70DOY+siGQ01696Mt74mQaQD+pP3t9DbtasJfKpsX+nyF5Liuzw6orO7+bB5N1gs5ozB/GFejzjhlEc1JGzQrZd1G3CseTdwHvoZ0zTEbGKBeuifL29BhJQ069yKyAZbZBKkLZ/8vIJdHdGX4i5dfqbycM8JCm2sQDcVtcXimFaIc53pQ/1cFe1ciY7jYXklH9kOdHqedrKybYVIuKVlL/WQ9M9ufbhNSzrRoWnvJb3Qz574kIE9x7lgT+nyLuLAWhHnKrUT77uCloBxC+YPdQFwSBXtDELOV916gT8g8pn1UegnCflHhDbEC41wd/XmtGQA/V287mjmUHQWCKWLE8nbK5Fzczfufx6ygKiM2oiGh2lbHzu4dovFVRLR2aKdSdX57Fuhn1CndJkNtA3zut34uN0dZtvxihse+yZlFxLSZamYo9GfJN8SZtvVgDeV2y5dtiKLgKp4UaGtnYiTpcUSOPqhcwZ+fRhtVQPeVmirorKFfZUKy+Mg9LcTnwnj2i3QAn3BHiclCxji7qXGDKeguwIvBC6vos2WwK+KbZYtcwhP5Olg5JjRtL0bw2jLYvENDeW7DOQDXxUlYTwaL1Z5pbJtvU7op4j9dxjXbNlLK2A57n3cqyrZVD1JtOzLBXjnKDsQ/Xe0dBlNeCJFiej4rszF35wmFkuV1EYng9roCNo8HgnrcutFfxvZcSihg9I1li7v4K4wUazSGndzSFRUchABGUvkXIp+qGzZe3Elco/cuPeFiNBXuA7DNym0WUDFYYUWS6A4H50XLZIPbEfcPReeDjRDdia0RU4+w87sTeiIjnNVuCUH64Vtyo3o3pNs5CgmFfifct2lSwZylBEuzdBRGXwxgjYtFt/5DvOHfjmVh9SUpQ76meRKl3VIAiPNOr9GZEEtZnQGNuDevS8puUQ2AFgq5l/o3puduOscvAA5+ouEjxXa/Qt3FEstFtfoiI7X74MRtuu2vKdmmY43iU7iBbcnAflIHLdFjyfw/z0Mp4xDVCMj4Xiltu0zZ4lKRmH+8OfgTFN9OLJd5/eHo6Iym8g/KJaq6YFOfvWyJR852rLoEkKS5fj9PlZUnCYOS0PHQfWbCNu1WAJDKjpb5pNxptDXE3+9xCsq84AGDq7HUjUhdLZdy5bF2G1Yt0hEBLj8fi/LlkzgDIfX9LBC+7uRnVSLJWoZjI7H70iH7dcHvlVoX6ssRRyDLPqEkFBKt+7dT0Atz64mvkjEnYmb07IM2U1ywoHoRCDc67B9iyVQvIv5y7AVSdvqhERkG8/vj8pawlcYtETO47h/D6chmeQs+qQgTrF+v6c/IpLTTggBkxRsWMy+occWS9TSBB3FvP8Z2jECUW7z46OyCd20w5Z9eQTv7uVUrPOmW1QHpuDf4P8KkGxg/6VKdliBKUtMcTXmL0Uh5rKrvYFVCrZEUnYUt2txhwfxfqD4FrtCc4s6SE4QL+/nHuBiQ7sbAJsVbHnL0A6LJXAkIGeopi/Hn5jN0EGOEn5QsCWckoHkSLC4wyi8H/xLygTE0dWiT0O8S/i0Dp1Mjq8r2LINSXZlscQcB6GTDKSqtJvhkAL8V8GWyko2Nkucm9yFf4N/SRmL+YTUUj5uqG6WLVORI0pTBqHj7HyFgi0WS2B5CvOXJAtor2SP25rhTmKILVVzM/4P/iXlU6yUsxsMw90cH6+go8KZhCTqMbXnF+y3whLj1ATWYP6yfKlok9tqZB9hncY00daR1ygfINEmFnNCyO6Om2qe03GmLVIedyrYk4vzsEOLJao4DZ2X+HQFW05FN0d5RWUu4eUNt1TO5ehmktMso7GTAFNq4J0ewLMK9rYBdinY8piCLRZL1PA55i+NaZKMYxDvX68GiK3A0Qb2xjuXEPwcD29gt3Gd0grvvf9NxXY0ko+txmpLWOKM1ojUpunL87TD9g9DZ+YeaclHx4kx3hiJ/uD/GhK3rV3vq+htL8cLRyBaGV6/j0XArQ5tPkup/ZMdtm+xRDW3oTOgRhpj3x9JHerHx6akvEdkqY7jmbPQP6Z5k70r9UvRP1Z4HjsJCJcrkTNwv97FQuCqCG2uhYQPmrb9WYTtWiwxQxKSFc/0JfqV8M9eeyBb8X59bEqX35GdEEvFnIH+4F/eWf316E8CntHrhpgkFdmF8fs9LEJ2gc6LwPZnFdrMwkqDW+Kc/uhswV4TRlsdEb8Bvz82pctmJGGSZX9ORX9l+AkVh+zdpNxWERL2atmf5sAM/H//Spd84MwwbO+JzqT072H3lsUSw2gI8mQgH5WKaAWsVGjHjZKDeLdb9nI8+g6aY6hatOcW5TaLELVCy14OI3gT8dLv4vGV2J4A/KzQzjysgJTFAkjKXg0HoPcqqL8xsFChfreLljBJtHMMkgtds2+/JnzZ3vuU2y4C7om8G2KSC9G/t9olC1H2K4/rFOovAA6NuOcslhjmQnRe3mPK1NsA+EOp7pLipsPSZJynIo0FjkIklDX7dDyRa/Y/oGxDEeL0Gq8kA//GvfdG+50sL4FXMyBdoe6XnXWhxRLbfI/5y7WUvVnaaiMOgpofhhnIUYOGjkFFZS3xmUDocHRCQ0uX73AebfGwsi1FxOckoCE673Zl7/yBwH+U690CdCt1HR8q1LkRqOe0Iy2WWKYTOtuDo5CP/mSFukqXuchxBYgX+aO4p0q3G4l9jxcORT80cyrmAiuPKdtUCPzN0KZoohfu+t58zd4BNYR+VME6JO/IsUr1nW/QlxZLzPMvzF+yPcAUhXpKl4WUvzU/AjkzdOPjVogMQLEuL3sI4sSp2Xcagz/IoPKism2FxEfWt/PQP84p3YePsv+7kYQ4e2q2tQJYrlDPREe9aLHEEanAItz5aDgtqxHN74o4CHdXOROI3W3DXkgOdM3++hk5/tEihP72ciEigBOLeLE7dlEl7acA41xq22nZA3QJvwstlvhFa7tNo6wnvNTDDXD/nLN7OJ0XRRyEvijTbPYe02gSQqI0NG0tAC5wwVY/qQ18gXvvwVrg4DDscOMI0KSMCsNmi8VSzAf4/9KWdQKqiiRk5eOWPZnoZEAMAl0QhyjN/pmDTMTcIgF4R9nmfCJToAsynXE33HYK0CQCe9xwAnZSSjsmWyyWMGiKhOL49dKmA30d2n4B7p99RnPGuU7oC8EsJLLBwSmJiN6Epu35wDke2O4mJ6ITIldReQVnwjl10ZEbNyk2A6hlP2yikKr5G+KA5TVZyDHETwZ1HAp8isQOu8FnSJRApmKdSUA7xN+hFZJqORUZ9HaUKhuBBYgcaqR0QrZmNftlITAEkVX2giQkn4DmbkwuIkP7pYPfhoAOyH2rV6okFdebAWxA/FRWIGfoWoQQ4aR/4s43LQe4FnjdoI5myO5BRxWLIuN9rOe/xeKIBLzfwtuN3oy9Be7qnf+BfPidkgQcCTyBeM1HEs2wG5kgPY+sXmuE0V4H5AxXsw8W494kqzJS0D/r3gMMC6PtROQZfRjROYhkpywPOSp5BUm0VMtpBxT/9jOF666orAcGGNhXmjbAGhdtLa/sQHYyLRaLQ/ogW6RevLC56Ofmrga84aLN25Ddikg4BBkANI9YdiFb4ydR/lZtW2CV8rUvA1pGeO2apCIqg5rXVNkEdADwHLKa12pvDzAWGE7FSZLKoyPwp/K1ly4/U3luDyd0Qt/vpLISToIyi8VSBRqpN6sqBUhMv1vcgH5a25KST9WZxULAKcBvLtlQuqxC4txLJgKtkK1nzTZWEoxUytWQVbjmtWUhRxolHA/8otxGeWU1cuxWlcPaccB2F+14jcilm8OlJ/php+WVGUS3n47FEhhqIYpcbr2sXgmzDEUiC9y6jncpX/b2cGCmi+1WVFYiyVOWKNe7BvFVCArVgR/QvcZMZDD+SbnecMo65Ny6vDP9W3FvRy4PuD6M/jalP/qqk2Wvo5cH12GxxA1n4N4Le7OH19EOOYN161pmIituECe+N3FPkMWPsh5/nLmqogbiR+F3/2iWqcABxdeXhn70Q+myhX13PdxmCO5F6jzt3WVYLPHDt+i/rPd5egVCDcSL3K2P6UZk9bjaxTb8KBsItppaLXRyxQep7EKOl2a52MZsxEfEa05Aogy0n1ENCWqLxVIKN87unvX0CvYlBNyOdw6O0V42Ex1KiHXw5rw+VsqHhBdB4hanoeubUwhc6ukVWCwxTldkAND88LxNMLQY3BZQiYWyFZkARgv1gd/xv9+CXPKBOwjGO3g1uteWh0wsLBaLIa1xZyv7F4LjpdsRmI//H+UglnTC034PGvVwd9s8mksGEpESFJ5C/xpzkCMGi8XikBbopOGsqAQpG5vboirRWDIQj+1opRHuxspHY1mM7OgFhR6I/ocb15oNHOHdpVgssUND3F8Vbwcae3VBYVDiF1CA/x9qv8suYuPj2RiRTfa7P4NQxiHa/EEhAffDLDOIzh0si8U36uBd3PrbHl1TJAxHPhx+f7D9KmWFcKKdFohqod/96lcJagKra/Dm+rcAB3p0TRZLVFMdSdzh5QfqKE+uLDJ64O7xR1BLNiKYFGu0Ij7vZyai4RE0muCummHZsglJl2yxWCogBfga7z9SSwhmvu76uKN9ENSSg0RFxCqtEXVEv/vZq7IMmcgGETdFjSoqa/BH78ASQIIQ/hIkkpH0ucN9av+fwL98arsykpBsfTd51WDtevXp3LM3rdofQI06dUhMSGR3dhZ/rV7J0j/nsnHtareaHockE4pl7kSy+KnTvmVNDuxQhzbNa1IjLZHEhAR2ZeexfO0u5izewfrN2W40WxETkSyR271sNEyOQuzzgyWIb8smn9q3BAQ7AdhLIqJjf66PNuxBYs2X+mhDZVyEZPBzZaeiZu06nDBiJMefdR5devUlITGxwr9dv2oF34/9iM/fepX1q1ZomlEEDEQcs2KR+sjzVV+rws5ta3PVmQdw+tGtaNOscj2dRSt3Mvqb1bz22TLWbnR1MvA0e0WugkYqMA/JDOgX85A03EGcHFk8wk4AhBDwX+Byvw1BsrpFmlrXS/oBY1BMgZuUnMxpF1/FZbffR90GDSP6bV5uLp+98TKvP/Eg6du2apk0DRikVVnAeBxJpmNMkwbVeOym3lx4UjsSEiL7lOTmFfLG58u554W5bE3P0TCnhD1IaO07mpUq809glN9GIDokxyA+EpY4xE4AhGfwcHs7DM4DPvDbiEpohziTGT8/Hbp25+G3PqbNAWa+Sbt2ZvDITVfx/WcfmZpUwhFIIppYoh4iaFXLtKKjBzTlvUcOp3F9s82grek5XHDndL75aYOpSSVcgJytB5VOwFyC4+8zGREL2u2zHRYfqHiPNX74F7JVGCQOR/KR7/HbkAo4tbgYcdgxJ/DMx+No1KyFsUEpqdUYevIZJCQkMHv6j8b1AQ0QjfhY4iYUlOHOOa4Nnz59BLVrJBsbVL1aEucOa0v6zlx+/XObcX1Iro4vNSpyiQ/xd+u/LG2B3sAniPaHJY6I9wnArcCDivXtBi4BjkbO+ZxSE6gNjNcwygVexvAI4OjTz+GRtz4mtVqakkkQCoXoc/hgGjZpxrRvvjKtrgPwP0QMKBYIAa8jExvHDO3flDHPHEFykl44fUJCiGEDm5OUmMAPvxn7pXUG/o1EcwSN89A5frkc8RXSEjQ6AFFGHIP4wFjihHieAFyNZOLTOgbJRWKNxyBx5MMM6+sLTEByzweJ7sBDJhV06dWXJ94fS3JKipJJ+9efmZHO/Jm/mFSTgHhJx4oz4OEYDj71aqfw3StDqVvLnfs2qE9jlq7J5I+l6SbVpCBhjr/rWKVGXWRnwjRN72jgbiRa5SwUjnOK6YaEiH6hVJ8lCgiaKpZXXICsErQG/wLgfPau2P+NJGExIQFZaScZ1qONUYx83QYNefy9z1RX/uVx44NP0m+wsbZSkJLFmGJ8LS/c0Y8Wjatr2FIuoRC8OmoAfboaBygEUcfhEUT4x4QM4Obi/78MceBT83wFLgaeV6zPEnDicQJwGvAGetdehGzJfVLq3xUgOwymZ2q9gesN69DmeJMfX3bbvTRurhZAUCEJiYnc8ewrphONQ1EMl/MZo7P/I/o25vwT2yqZUjFpqYm8OmoAiRFGFZThKGQnICgcgk7Sr3uA0t6S85H3MUOh7hKuwyWNCEvwiLcJwHGId73mqvoG4M1y/v1M4CWF+u9HMeTOkJrIVrIjWrTrwKkXX6VoThXttW3P6ZdebVJFIuJU5reanUYx0oG/9eJuJj+PiN5d6nH+ie1MqjB6TpVJQnbyTL+1v1H+92QWIlylKapwZ3GxxDjxNAEYhJzPmzjnleUu4MVK/nvZGbsTagHPGdahRQ9ELdERl/7jbtfO/SvivOtuqVRQyFI1XdvX4cRB5pEakXD7pcYTjt4adihwA9DLsI6qdhSnITubmo6PDyO7AZYYJl4mAAcDXyFJfrR4pLhURukzOxNOJxjytI5XkWk1ajL01LM0bQmLRs1a0H/IMZ63G0uMHN6ekMeKId3a16F/d6OAhSBkvmuF7OCZ8iJVOzV+i6iYaiofPo/4BVhilHiYAHRHvOlrK9b5IrL6D4fRwDcKbb6A7gTGCd2d/rDvoCNJq165TKxbDDw+iD5h0cNJg71d/ZcwfLDRyVcQJgDPYe71vx64L8y/HYsM2IWGbZYQAl5Fog0sMUisTwA6IjNjo6VEGd5EtvUi4W+YK221JfwPgVs4/iL3OnSgph0RcdAA/9qOdtq1kOQ+fjCoT2OTn/vtNzMc2ZY35SZgZwR//x5wLXrx/CU5UowFpCzBI5YnAK2QbFvNFOv8GPH4j/TlWo6OZ+0tGKzCFXC8i9K2UxdNOyKiTcfOJCTE8qPuHoMPNhqEjehmNvHwZ9Yi1EB27EwZz77RReHyCkr5HopJKbZjiGKdlgAQq1/FRsi2exvFOr8DLsR5aN/jwEJDG5IRT2C/cjg4Vh6r37ipph0RkVKtGjXraImmxRcHdvCv3xrVSyUp0fGjXhP/NDTuw/zbsxuzEOCn0E0tnob4UdnttBgiFicA9ZGVf1fFOicjQiomXra56GzNDQQuNawjEhKBPogzY0enlaSmuSv8UxV++R9EO93a+7mQllwBBtyPrFq9fPh6oOP4+wBgmuf6n0iiMy1qAJ8jMsSWGCDWJgC1gK/RfUB/AU5GJ1vWZOBthXoeQ3Y53CAJES65FZnxb0NijZ9Gssk5Ime3v8nGdmdn+dp+tNKqqb9+p7tzjLS07gJ+AHYAU5BB9RhkIHODELL63Yz1AAAgAElEQVRDZ5olaQGygtfg70hOCy3qI35VQUpoZHFI0GRmTUhDdKz7K9Y5D9H018yXfSviIGSiMNcAeAKdEJ0UoB8wGEmBezjmnsv7sX2LcZIXx+zO2kVm+g7f2o9mtuzwLyHltvQc8vJVHNpTER2QQcX/nIcIdf2ITAymofOOX4a5AFERcA2yY6hBEaIhUBMYoVRnE2SXdRCSXtoSpXg9AWiIrFxrIOfJ+UA6MkNPx7mkZQrwKbpOKkuAYxHbNNmCpB82nZVfhEgaR5r7thqywh9cXAbgQXjhmqWL4Th/pAyWLfiDoiKb5MwJC1fsZGh/f/w3Fq+KxPk9IpIRmedDgTuQ79BsZDLwIzAV+R5FQiNkZ86UN4vt0KQQGIl8d09WqrPEyfoInIud1UB2FesW/28qstO6u7hOUxE1SxW4OQFohAzIQxAlrM5UHY63A9luLimTkQGzMhKR0BfT7HulWY2k9HVr2foasno3WS2UbDf2ovLVQnXkQ3cEci/6I5MAT5n3y0+cd93fvW4WgOnfBDWrcvD5ae4W/nauP7u902ZX9eqrkYTsgvVDtswLkd2/H9k7Iagq6c6TmOeN2ArcZlhHReQBZyPHekcr1dkRcY4ejBwVVkYa8v05GMl02peqQzX3IEmPZiJHsZOQhZlFCW1v8gbINtOFyMtkWn8+coY3GvgM2F7mv4eQVfBIw3ZKswEZLJcp1lkePZBJjul54T3sm563FjKxOAJ5MfsptGFMzdp1GL94AynVPJ97MGJAd1YuXuB5u7FArRrJbJx0uqkzniOGXPYdP87c7Hm75VCEJN6ZjKzOp7Dv4mAIMjiZfu8uA143rKMqaiARUpq5EmYiCZjKbtlUQ5IVnY0ce2ocLS5CxoI3gKUK9cU1WhOArkjyiHNwLwtXLrI99iiS7xsk1lZTr3obMmjOV6yzMh7DfMa/G8k0dhAy6PchoL4dD73+IUeddranba5cvIARA/yUToh+3n/0cEYMa+tpm6s3ZNH+hM8pLAzs0c1C9k4G7gVMhS6mIt8eLy64DjJh6aNY51RksM8urv96RMRIU4StNEXINTyBjtJqXGI6AWiPDGKn411EQR6iTLUL3VS5GcjW2EzFOquiBjLZ0NQrCCzd+vbn9YkzPG3z4Ruv5Iu3X/W0zVhjYO9GTHnjWE/zAdzw6Exe+GCxdw36Sy4yGHu18ADxx/oR0Ezz+C0wA1FK9VJA4ifEl2Oqh23GBE5f6VRk5Xon3sbYukU2kip4mg9tD0eiF+KCR9/+hCHDT/ekrdVLF3PBwIPIy3XsUF0ANGb/o6do5E8M9PE/eGwg5x7vzTx1+dpddD/jK/aYhQBGE48Qfm4RTZojg2Z7H9rWpgh4B4myCsS5UTTgZALQGfiI2BGDyEE8Y7/10YYx6OiGB57GzVvy9pTfqdugoavtFBUVccPpx/Hb5Ikm1Uxjb+hYtGN03NSqaXUWfDacmtXdPV0qKCzi+GsmMXHGRlfbCRArEXnvbJ/ab4ccY/idO0GLzYhP2AS/DTEghHx3jgFaI5ObZYg0dFVZISMi0m3785At8lgZ/PMRp0U/B/9WwG8+tu8pm/9ax10Xn01+Xp6r7bz/4lOmgz9IdrVY4XOTH6/dmM35d06nwOUz+TuenR1Pgz/AdGQQ9kveeyUy0MTKqrkxMlA+QnQK3fVDxoMfEQfvi5AJzQOI0/hEFEWYInno7gIejPA3QaYkNvZdj9ttx94Y/MHF/xx3nHrxldz+9EuEXDhYnvzlGO665BwKC4y2kPORyVmsjEYhxIPa6ONx3YjOvHDHwToWleHNz1dwyX0/u1J3FLCVvToEPwJ/oJfWNxx6IU51jtU+A8gnyADqrwxp+JwGvE/VYdo7iv82Ug2Y/Qjn6xtC9KRvNG0sQBQhuvwve9BWJ/aG5A1GBhULcOwZI7j7xVdJrabnRvLlu6/z2C3XaOwwfA6cqmBSkLgdiaIx4pqzD+DZ2w4mJVlvgfXY6wu464U5Qfb695odyBHUZGRiMBvnicjCZQAS16+uBOojk4ET8e+IJVx6I7tB4X4MsxDtGyPHx3AmAI+jm1oyCNyKCHe4QTf2yuoORjcdcczRrU8/Hn7rY5q2bG1UT2ZGOs/eeTPjPnhLyTIG4Y9TqJvUBdYgWhFGHNarER8/OYjmjcwmb1m787nqgV94b9wqU5NinZ3I81iySzAT2aXSZigwDh/EwlxkEnASwd4J+BEZMyIhEwm9/Mlpo1VNAP6OewOlX/wLyZKlQQLiWT0EuXlHIGdQlghIq1GTS/5xF2ddcR1pNSJbfOzOzmL0y8/x3gtPaer9TyXylzFa0NCeAEQk6JYLu3DLRV2pXSMyramCwiJGT1jNHc/NZu3GoC/OAkkWsmIsmRD8il7+gJMQx2TfBcQU+RjRqQniFlM3nIeAZiCS9b86+XFlE4BhyEwwVs78QY4ybjH4fSJ7BXeGIKl53RK6CBo5yEM2GfnozCv+Z7XYsLoNGjLs3Is49oxz6XxQHxISyt9iLsjPZ/ZPU5gy/gu+G/MhO7ao+i8VISppsXoYXQ9RUFN7bhvWTWXkye05aXALBvZuTFJixZ+MZWsy+WTiGl7/bDlL12jm2CIXkblOZe/u2yBElCYe2I3E4Jf4EPyC2Yr3bOQ8OtHctMCgufjT5HrgeYPfpyNKjBFHCFT0prZEzpzcjdXyllcRxbxIZoBJiEBHyZa+/aDsi2saBrXr1adTj160aNeB2vVEYj0rI4N1q5azaM4sdu5wLTR/HLICimXuBB52o+J6tVM4+MAGtG9Rk7q1ZQGZtbuAFesy+WNpupur/fJi6e2Efe/7+zOyaxAJlyLfzVhZBBYiq+Xv/TakDI8i/jkmbEeOb+aaGhNC9PeLYqiEO5NNBg5DPpBfI2csftvuVclEJDXvRj6U4Uo6fxYA2zXLHkQUKlZph/gB+N3PmmU54TlPJSA5OK5HtoQ3BcB2r0oucmTwCLK7G64fyA0BsF2zrMM8aZM2o9C5ts2IpkTYlDezG4lo7rtCg+rVaVu3HnWLPb937M5mVXo623e7eg54MVCed1g1ZNtwcHE5FA9S4waEEqeikpzoTp2KWgFzCN5LZcJuZHcjaCsFU1oj97utz3ZoUoA4QjkVfejGXv+dwYg6XjwQbgrkLkhIoisKUMlpqdRp1Zi0+rUIhULkZuewa9N2dm10VXzzv8BVbjYQISOQRaoGm4AjkVwVVVJ2AlAPiRVWc2RLSkjguI6dOOvAHgxt15EWtWuX+3frdmYwacVyPpo/j++WLyW/UDUEdgOiYFiAhLqUDPiHEFverpWxA3nJSwZ8zbCiocjuQSCTEDkkCzgB/dzsftECufcd/DZEmduRSCUtDmDvkd8Q4idstxDZPp6C+PlMRZKjTUB5R6xpzw50PvFQWh3WnQYdW5T7NzmZ2az/dSHLv5/Fsm9/Izdrj6YJhcjCb5ZmpQY0ANYj/isabECe3SpTJ5edADyIbAEbEyLEmQf24MGjjqVj/ciO3Val7+DRqZN5ffZMCvQmAisQ3wa3shUGmblI/m0344ivQ7IzxhK7kI+f4zCbgNAM+airKYgFhHeR1ONu8jLBWi16RRHiLKr2zDTt2YGB/ziXFv0iS5yYk5nN3Pe+Y9Zr48jdpRbJNxFRQAwKz6Ob3G4dMglYXtkflZ4A1AFWo+Dk1rlhI9467Wz6tTCTl57113rO//RDlm7bamqSBS7BxaOdYv4DXONyG16zE/lQOAqzCQCNEZ8ezaxvQeBnZOdJdWlYhgMRz+p4XDSokVqrOkNHXUKnYYdgklIya/MOvrv7f6ye9oeWaYcRnGifWogtjhN2lcMaZDdrVUV/UNox7hZEMcmIYzocwNcXXkqH+uZHws1r1eb8nr2ZtWE9K93z+o4XBgKv464YxnhkO6u/i214TSpwFqKQtsFnWyKlIeLHEJFjUBTwA+6ru4UQKdlYyJTnG3VaN+b0N+6k5SFdjQZ/gJQaaXQ+8VBys/awce4yDfMaAh9qVKRALvL9PA29VMp1gFMQR+2M8v6gZAIQAt7A0JFrZK++fHDWCKon6+lHpCUnM6JHL5Zv386fm2NFlt0RhZiF41RHBme3Uw9/jTxXg11ux0uqAWcifg6bfLYlXOoj25wH+W2IMl8gH0m31YMuxXxLtsQ7O1bC6CKiSfd2nPn2PdRqrhd5GUoI0WZgT9Lq1mTV1Hmm1XVEwhx3mVumQjryfJ8BlO8sFzn1EIfmMUik1z6UTAAGIqp/jjmxUxfeO+NckioQbzEhIRTixE5dmLRyOet2ljuRiUWWIdnongVuRhw6TOPTeyMrwjWG9VTFD4gD0dHEjpBIdeTFHA9s8dmWqqiD7Fj08dsQZV5BInq0FO8qoiHy7plGBL2LCLT8jOwepSJHMtGYpS4i6rRqzBlv3U1aPWPV6XJp2rMDOTuz2Div0iPuqkhAQuem61ilwg7gK+Rbo9V59ZGx41PKTHZKZqZGZ7et69Tl96tvoF6aXlKX8ti4K5P+/32R9Tt3utqOTyxEPHBLvHD/KvPfE5AHdYBhO/ORiYC7+XiFPsB7SChRrLAJca5Z5LMdFVEb2akwfU6CxHZExOtTj9p7HfGZMWEH8tyXlamsgyy4SiIN+hJb0TMkJCVy9gf/pEl3dxOdFhYUMPbyJ1g7w6mKLiACZ0F8V7og40ATxToXIt+u/38mS2aiRt6QL554iuuDP0DTmrV4+KjjXW/HA4qAP4F/I5KbTREnrauReNCygz/IEcDVmCcAORAzOeRI+B35wL2CXHMs0ATZRTnAb0PKoSaiZBjED5pTfkCOMbwa/I9AdhlMuYP9B3+Qs9hxSD6GAcgW7fGIMuN03N/dcJ0+Fw9zffAHSEhMZOioi0lIMtpk7Ecw87csQnaPNHcbu1Im0VMIiXN1vCV8ZLsOTBx5ublpYVJYVES/V15gzsao8scqRLTzS2Q5pyL5v53wJIbHNcj56YFU4h3qAv2Qj9zRHrYJsBJ4GlE00xy01yKz6RWKdZpQHXm5hyjWuQuJsz8f8Zj2kgXAvexVmvSCFEQfwzRi4mdkle8khrk6IkhWokPQnyjSKqlWpyaXTnqG5OremTz5gbeY+75THShAjldVE1Mo0gx9caq3KJ7khpCX+12nNX19wSUc29Hb8OKvFi/klA/e9rTNCClAVr9VqWw5oSbycTQVKPFL834o8ADuDyirgIeQhz0P6a8fESlcLVYjW7mrFet0QhriPKQ5ucpGhJB+LP7n4xDJUrd3F1YgSVvexV3divLQyJGQj+x6GXuoFVOiVjoEmRQEWq20/zWncOgNZ3raZva2DF4fehMFuW5kR45Zjge+ScBgttuydh2O7uD9TuiwAzrTrJY7ziUOyUNm/Y8hH816yEv7D+BL9AZ/kFXZDQr1nIg4mnjNJCTbXnekv9Yp1r0LGThORFb7r7LX12EtMvnQHKzbINdjJnhhRiri4as5+O8GTmbv4A/iV3Ao8lw/S/nHVE7JQM7dhyD37S28H/zbAfco1PMseoM/iM7BFGRSdDQSIjYQSXz0DcHxYIdQiG6nep9Fu3qDOrQb0tvzdqOcf1EcmPkJDgeCqw4+hP+cdKqqVWG3/eUYXp31my9ts2+mrSmIUlykmbZM+Rz5SJuwDpkA+rn9lYCsbI5BVtMHIbsc4ZCNbNnORM5Px1F1eFgHxLlGc9BeggxeXp9LpSDv73DFOnOQ2OFvqvi7BOSaj0SOdw4m/Ex7ecguVonD69e4q08RDuOQybsJa5D3yctvQRKy41CSz8C3jKUNDmjJBV884kfTLPx8Gt/e8YovbUcxA5KQWEhHHNHGfUePytr2cAKgnWtbgxsQJ5EaBnW0RGaCN6tY5IxCZBCYXPzPCchqrB1y9tWAvUpsGYhH+A5EO3sJkTtFLkf6bTJyvqZBJ8Qx8Ei80wlIRkRMNAf/XPbqHVRFIbL7ManUv2uP7IrUQ0KP6iH3sxAJC92EHM0swZsolHA5E/PBH0Q3wOuFQD7yPfoFeIL9UyAPwqNEXS0jlPiNlbajmBOSMFAd6tZYM0IhwrYbudp2FrKqL1mh/IasjILEauB+zBOhXA+8jaykg0AhMkgbBfhWwRL2TgK0PIC7IsI7R+LcwTNcEpGjjtMU68wDzkFikJ2yguA4RYZLbWTb3pTPcV9kKxxK/I9+R64rATluK0mANgiXvN7rV5DYxwtqNWtAcvVq5GW7qQwdcwxJwEBsoEUtLbGiyGlZW3WXKxMReLkDcU6rCxyLJEeaRvAG/xKeRVJ1mpCIJDyJeXGSMixEzlQ1B+vuiACPmyuuROSM/GzFOvMRZ+CxinVGCw8gmRJN0PLLcYOSCKQXkJ2OpkgE0LXIDpLasVXNxvW0qoqcUIiaTXxsPzppmYTBFnKNFP9yZNQ0a7sIWelMRj81rpfkIdoAUzEbwPsX1/MfDaOiiD8Q34Pv0Ru0ewHfIpMLTedPkHv8KjJYa1EAjAQ+VqwzWugD/E2hnlG4r66pRRHif7EAeKn433VCjgwGI/4fjhaFyTX8jVZM8bn9KKRxAgZncXkF/o2ZOWZt70Ac6J5GHMiicfAv4SfgNYV6HkE/3jQamIMcB2hmm+qLTCo0lyQh4EV0RGpKKEIUQN9XrDNaSECEuEylqv9AUrlGM0uQieWF7Bv5ERF+h+H53X4UkpmAgQf49t3++cFt322UCyTWUgtWpDoWCbURkaF4ZA4SOqipMd0HCQENN6KhMkoGf81Uy0WIvO7/FOuMJq7FXNOgELiKYDk0muL427gnw2v/x33ZnR6ciMgoYZPRBGDpNv9yoizdZnR0G2sTgO2I5oApIzCUhY5iZiCe4JpfkcORoyZT4ZankQFLiyJk6/tVxTqjiWaIf48p/yM4+eS1cPxtTF/lX7bWvOw9ZG3RPnGLeeYmIAIpjvh1vaaGS6RtOzYbYm8CAOIV/oNCPf8hiqRHlZmOhNVpppodjHiHO02W8Thwk545gIR9vlTlX8Uuz2AeK78JUQ6MNXY4/eHGP9wM3KmcTX+sgKJYSTfiGeMTgMVOf/3d8qWKtnjatn+Gu0cRsko0jVjoiKiMxSuTEUcozfOtoxC1vtQIf/cgcKuiHRTX95xyndHEcUi4oyn/wGCwDDCOv41/zVpC/h5/chmtnmYaDBV3ZFAsBex4AjBtzSrWZHi/7bIqfQc/rTFyuvVNQtBlFmGuCwCSqayzQj3RykTgdHTDP49HVPvCDV+5D7hbsX2K64tXPw+QXZh/K9QzCUlzHYs4/jbmZe9hxaTfNW0Ji6LCIhaPn+F5u1HOM0BGAgY3vLCoiP/86v0R2Au//ESRWYKwmVq2BJCHgWWGdaQiRwEhc3OilgnAWeimZz0Jib1OruLv7kREnjS5H/NEN9HOXYgUtAk5iDNmrO43L8dgZ2POu98qmhIeKybNIvMvt7W3Yoq1yASAEKIlvR2HsZ+1UlNZeN3fPUvOs25nBl1feIrsPMeOt1mIx7uTVJ3RwrGEJ+daFRcB7yjUE82cBoym6kE7Ej5CYvnLi1v6O/qr9IfR302INroAcwl/B6Yi/gX809ycQDMRObZyxKn/vZU2g3oqmlMxRQWFvH/mvWxdZLQjPIJgHgsnItE//RTr3IOoQc6EvSs8o0QYZx3Ykw/PGmFuWhicOfpdPls437Sab5EP7Z/mFgWWD4BzDevYjHw4Y/GsMxLORmLlTWPGS/MeIsBTWoPiBvTP559E348g2ggh2/ZDDOtZCvREPqKxSBNkgnMZBs963TZNOe+zB0lOi9TlJXJmvz2BKY8YncZsRJQgg7YgTADeQBZhWhQCFyBjA7D3JqdhkFluwZZN1EmtxoBWrc3Mq4KnfprKC7/8pFFVByR+twVyBOJvAKs7/ARcjplHfw1EzMZEHz4WmI9sjZ6CnmRyT6A1ohVQhCgxvoDuscvzwC2K9UUrF6GT8GoEIpoTa6Qhk8SPECl0o2d8T8Yu0ldt5IDj+hcnnHWH9bMW8+3tr1BUaDR2j0byOASJEBJieolinYXIeLDPjm7JBGAFcCMG25zfr1zOIS1a0aF+uBlBI2PC0sVc/sWnFOmFeiQgim1XFf/zTCLPLBdkdiEaD6ZZznoj+vb+xXwGgz8QudeT0RukeyHqi02QfAyaX8uXCK4+vZfUR8IwTbJmgqyanjA3J1CEkEnNWMTpVW3Jvn35egBa9u+qVeU+7Fy/lc8ufZTcLOPNmFuQxGpBIYT4X12pWGeJ4ud+irElE4AcJEFED8ctFBUxdtECujRsTNdGusmmPl3wJxeMGU1Ovivjcypy3nUhEttrfL4QIGYhEwCTZCch5AzqVYK3TeY1c5DkKSehN1j3RXdSAXKvYtlRLRKeR848TUhH7lEsSc0dhuR/uBFzTYRyWT9zMUUFhbTq31V1J2DrkrWMveJxsjYbR6AtJVjHYyHkCFAjP0UJRUjG15fL+4+lz3lWYzjryCso4OP5f5CYEGJQ67aEDG96UVERD/w4ievHfUGu+3kH6gJnIOFaCzAQSAoQRcgk4HLMtvWaILsJKucvUc7vwBZkYhXEKIm3gCuwgz+IEqPGscotiD5ELNAOeAV4CmjpdmPrZy5i29J1tBvSi8TkJOP6ln8/iy+uford21VUu/8F/KJRkRIPoaPoWppbkHegXMq+GBMQoQxjBrdtx3PDTqZHk6aOfj9n4wZuHP8F09as0jAnUoqQ2fEdwEo/DFDmWWSmb0IW0I3oyXrmNjdRHEoTIN5HzrujObmVFsnI5NfxrmYxvyCr5Wjf/aqDhEHeiOJWf9iNt27M4DsvoN2Q3o5+n701g2lPjWbh59O0FP82Au3RFfwy4VRELExzUXEbVRxblW3sMGCalhEJoRCndOnGlX37c1T7jiQmVL4IzS8sZOLypbwy61e+XLTQNNZfgz3IFuLDiHJStFILWIh53vMvEEc4i3ArOsJLGnwMnEds+bGYcBvwmGEd+cjx1xxzc3wjCdkRuh9o5LMtNO3ZgYPOP4YOxxwcVpTA5vkrmf/pFBZ8NkVbZfAmgqOImYjsOndSrPNuwtD9KG+gfxMJT1KlXloaR7RpR6+mzelYvwE1UyQcNzM3h2XbtzFn4wamrFpB+p5ARthsQWJ//0f0fmDPQJToTDmV4HnN+snd6CSWMWEsEqoYS1npTGiD+PKYOv49Q3RHUQxDwkC7+W1IWRJTk2ne+wCadG9P3bZNSa1VncTUZPKy9rDzr61sW7qO9b8uInPjNjean484NwflfTkcWXhrMQoDIbHGiDBQkS37lfnISxWtfIV5H6xGJ8VtLHE//j2TX2EubhNrfIF5v67FoThaAOiOCIH5/b0MYikEjnTeta5wK3rX95CGQSMUDYrF8g3ykkUb7ZCzfNPrj2c9+Yp4BO+fwwn4cJ4bcE5Dp29P99pwBZogDn75+P+NDGp52nHvusdj6Fyb6nHkK0pGxWrJL+6jJk472CfuwPza84CDvDY8CngS756/iThPMRyr1EScVE379kuvDTekGpI/Yif+fxeDXH4nmBPmuzC/NnWH5DTgVwXDYr1kIC+fieKelyQjEsim1/0Teqp4sUIIcRp1+5n7EfPz7VjkKcz7Ngto67HdTikR8lmF/9/BoJcNiPJmEDkRs2t7EZdCkhsh6YL9vnnRUFYhL2MQY8PLMgg5CzO95qvKVmwhhKjwufWcTcf6YJRHL2RnyrR/b/facIccCszA/+9eNJRdwCHOutkTqgFbcXZtr+DymNMWnW01r8oSRGf9CSSMz+v2ZyAvZ9B5DfNr3U70HYF4QQiJuNB+thYhmSwt+5KAzmD4B7pZH92gLZJSWmMCH2n5BPF9Gu9D207LLmCwk472mJuI/Npex6Nd2FaIB7zfN7Oq8ifQrJTd7ZH4aK/tKERe0rYR9bK3NEDCG02vNd7TBZdHT5zP6Csr+cguk2VfSmSPTd/ZgV4bHgF1gEcR4Rqvv2e/sq+ccgoiWuO1HZGWHUTH4A8ykI8l/Gt7C4+PYOsjZ49+39SKyoRiG8tjIP74M+xGXlpXtLYVuATzaywEhnpteIA5EEmj7NYzlQec6dnVBJ8myIfetF//57XhYZKEZIp085mqqKxB0seWt8WchCiMem1TuGUlAdQ/qIIUxJO/gIqvKxvZLfDlqDkJCXfyY/upolKICLFUlb86hDzMfhxnbEZeYnMxbF1C6EzqFhNM71qv6YI4G7n9POUigkwWeA+d99OdNKZmHI8/O6+ZwD1A9TBsHIFss3ttY2XlC6BhGLYHlW7IEW3pSd9qxNPf9fwN4XAcMsPy+0YvIXJRhzREvS3TB3vnIy91kOiGZIM0vbb7vDY8YHQE1uPds5SDeA/HM0ej05cjvTa8CrojO5pef58KkEySpY9Rw+EAYJIP9pYtO5FMetHgiB0utQhvIuY51RHVIY3BI9KSjaz6TULvmrJX2tdr+ycQLCGhhzC/pt3IhyAeaYc/O0u7gWM9uL4gUg1ZAJj24WSCM2A0RtK2+vFNmoiZtkcIuBRJsuO17SU+V6a5TiwOaI0kVcjG/Rudg4Q9NFe0vyswzgPby5YC4G1kIuI3acByzK/pB4LzMfWKVsAKvH9+Sko28emDMQqd70kQzolTkCx96Xj//CwGzlK8lurF1/KXR/Z/hyRssvhMU2RrfRH6N3kBopfsZsjZSUjGPK9fwAxEnc9vIaFh6FzPeV4b7iMtgWV4/8yULbuAI1y+1iDRCZ0QX7+TOIWAc/FHyGcrcB3uhT1WR45WfkTfZ2wbch7exSXbLYb0Q2boU3B2RJCLPDj34u3sLhl5KTTC4yItq5CPgZ8r6I8wv44NQF2vDfeBZgRLJGsnks47HpiIeX8tw18p5UOBn8uxy+2Sg0hWe/mOdgBuQJzznMgVFyAaDc8jfh9B12qIGrwYbKoj2+ydgM7ITkFN9qqZZRaXzcjuweLi/93tgW0VURfZzbgB7zOtzdru3yQAABLqSURBVEBSkP7scbsgRysLMRebeQm41tycwNIYOTvu6rMdZdkJHIOEvMYq5wPvKtQzDPHF8Zq2SGjw2Xg/2f8UUTpc7nG7pUlCJgTdkPGgOeLoVguZkGUhu6KbEUfz5cAs5Nm2WDylNXJO70fY45eIkJHX3OjQ3rIz9mhQQ3RCQ2Ae3j8P4ZZ04GDXrt5f6qBztvyh14YjuRtG4Y+Qz0yiRxDHYgkcfgsJeSn/moh8MExtn03wdA9MqY9cl+Y93gLMUa5zK7GZrVEjx0IGuk7EVVEi5LNJwfZIS2VCPhaLJQJCiLfsSrx/kbciK3OvBtS+6IQi3eyRvV5QB/1J4A6kr+uiM+kqXTYTrFBTU/pRuUJauOU6D20+GpirYHOkZReycLBJoywWZdKQc7QMvH+xF6EbslMZLyjYu5OAKFcZUgNxaNW8l+ns6+DaCHF00mxjE8EIczMlCcnlbtofM6laMVSDLsgRntffh5LQ4kiFfCwWS4Q0RPQP/BDt+A5JOOMmtYF1CrZ+6rKdblMdcfjTvH8ZlJ+etDH60q8bif5wqb+jMzi6nRK2AfJN0EhLHGn5HkmJbLFYPCSWhYTOUbJ1uIs2ukl19CVOs6jcIasJ+noUa/HHoVSDVujIdj/noo2xJORjsVgccDT6W7jhlF2Id7FbMc1fKdi4GtlGjyZS0c97nkV4uStaoqPMWPYetHPUE/7yGebXvgH3MnIOR/9ehVO2IUeRXocpWyyWCkgCrsQfj9+1wEXoe/y2RSfb16PKdrlJCvpnuHuQ2PNwaY2+xPAqoE0kHeEzWuqUbqyQ+wFTleyLpOQicujRnO3OYolp6iIDnh8xv78Cg5Sv5x4Fu/KIjtC0ZOBzdO9JDiI1HSlt0JeJXYK3YXBOqY7OBEhb7Kcl/mqDdFS+HovF4hKxIiSUguRjMLVpKsGOSU5ERGI070MucLKBTQegn2Z4EcH3FH8c8+vMRu8dsEI+FovFEYcA0/H+w5GDOD9pnH8egc5E5jIFW9wgEXgP3f7PRxwpTemEfna1hbibXMuE7sjEyfQa71KwJQE5WtugYE+kZR1ypJigcB0Wi8VHYkFI6E0FW7Yh4W5BIgF4B/3Bf4SijV3Qz7U+BwldCxIJ6EyWFyGOnCb4JeSThRXysVhiEj+FhBZi5hDVAJ1MiW8Y2KBNCHGq0uznAkSCVZuDkMmcpq2zEYnjoHAl5tdUSHjRFhXRBZ3MmE6eGyvkY7HEAdEqJHS5QvuFwFCH7WsSAv6Dbt8WIoOYW/RCdlE0bf4Zb/NNVERDdCaYrzts3wr5WCwWT4k2IaEQ8INC+4sx36I1IQS8WI5dpoP/NR7Y3gfYrmz7dCQlq5+8jfl1bENklSPBCvlYLBZfiSYhoQPRcdK6O4I2tXmsErucDv5/89D+Q5FcC5rXMBX/zp21nEwvjbBdv4V8/JwEWyyWAJGMZCvT2AaNtKwCziX8ML1HFdrMBjoU11cbOBa4A3gfmIaIG21HjklyEYGlRciW9RhEn+A4Indk0x78i4CbIrRBg8GIw5jmdXwHVIvAhurA4cj1v4tMIv5EQhezi+vcgXjRzwBGA/ciIj/1iutIRUf+OJIw0wHATwptRlpygCdLXbvFYrHsQ13kI5GD9x+on5HVZVVURyeiYRaSbMd0R2E+8E8kZK4yHnChz24No7/c4ij2DrRaZTyVr0wbI7sd0zA7L89HBu2xCjbnIjtTVdEG+AB/tDk+Ye+E12KxWCqlA/LR8PpDVYgI4rStwr6TfLAtnPIbcAX766Tf50Jbfh5jlHA8IjWseV1fsH//nQB8jT9OclWVR6roo9rFf+OHkM9v6KtzWiyWOCHIQkJjfLAr3LIace5KBW5xof5RlfSL17gxCRiDHEsNRD8lsvZ9rijZlBXysVgsUU8IiS1fg/cfsk3A1ZQvJNQSfWc07aKtoldE1StOPzgNHedMt/tOu5xYQX8chz+OtZmIn0P1CuyyWCwWRwRRSMiN1XWQyzPl3plgcAbB3KJ3q3xSTh90xgr5WCyWGCZIQkKJwO8+2OFHeb7y2xIIziI+JgE7kR2oEqyQj8ViiSuCIiTUD38mI16WVwl2NsPSjETukd995mYpCb20Qj4WiyWu8VtIqBr6srpBKm8Qfc5clxC7k4C5iE+KFfKxWCwW9goJaSeMCaesxJ0Y+yCUt4m+wb+Ea/En5t3t8hj+Cfk8hRXysVgsAaUuotTnR8xzrJWPMU+j7Dc34H8/xkL5EugYYd9bLBaLL7RGVq+xuAL0onxK9A/+JdyM//0ZrWUmIrtssVgsUYdfQkLRXKqSw41G/oH//RpNpUTIJ9FJZ1ssFktQCCHeyivx/8Ma9DKB2Bv8SxiF//0b9JKFHKH5nR7ZYrFYVKmOZNHLxP8PbRDLT0SWDS8aeQH/+zmIpQB4DSvkY4kToiWm2aJPM8Rr/xIC5OGenJrKoUcdT7/BQ+nSqy8t2nagVt3/a+/Oo6Oq7gCOf2cSJglZSCAQCDkYAgTCEmRHihERUFREIYBKjVKwUNTa48JRFBWXSsW2tqcqtbSIFJUCVmVtq0RFcGOVJSCBEAJhlWyELCQz/ePaSqnAzHt33ss8fp9z5s/7u783k8y9c999v5tAWHg4FaUlHCkqJH/H12z4JJdPVy+joqxUdwrFqBMFK3UHbkBWoo7j1SYqIowbslozuG9LemYk0LZ1DAlx6iyhslNnyD9Qwaa8k6xeV8wHnx+hqqZeZ/c6rAEeBLbYnYgQVpEJgOiOeqzpGjuTiI6N4477H2b0xKnExvv3hFVtdTWrFy9k7qyZHCs+qDOdp1FHCzvRdagT/bRoFh/B9EldmDSqPXHRjfxq821pDa8tzefF+Ts5WVarKxWjdqOOc15mdyJCWE0mAOI/RgAvAJ2s7NTlcpF9971MnDaD+GaJhmJUV53m7VdfYt7s56iprtKRVjnqCYoyHcEamM+A/maDhIe5eCAng0cndiE+9txTg/1zsqyWR363mT8tzTebjhHfAjOBOajSwUJccmQCIM7WCHXq35OouupBFdU4mifnzGfQiFFa4uVt3sC08bdw/PAhHeGm0zBP/DNjEJBrNkh8rIdFswcy7Ao9t8qXfnCAOx//jMqqOi3xLqIW+APwLFBiRYdCNFQyARA/JAF4DLgPVWddu8SWyfzmb8tJ76b3/JQTR4p58Nab2L11k9lQB4C2qBoKTrEYyDYTIC0lhpUvX03H1DhNKSlfbDvB8Km5lJQH9ZbAO6jyvbYsOQjR0MgEQFxIO1TJ1dE6g8bGJzBn5ce0y+iqM+x/nTx2lAmD+3L0UJHZUMNQJx86QTPgECYeb2yZGMW6+cNIS4nRl9VZ1m85ztDJazhdrX0lYANqg98nugMLEcoazO5v0SDtRf1izEJ9iZrmcrl44pV5QRv8AZq2SGL2m+8S1TjabKjbdOTTQIzCxOAf5nbx1q9+FLTBH2DA5c159fE+OkMeBHJQhbBk8BfiHDIBEP5YC/RFfZmeNBNo2OjbuHL4TVqSupD0zB7c9+xss2GG45xVsuvNNJ48pgODeifpyuW8ckakMe7ay8yGqQWeADoCC3DWbRwhtHHKl5uwTgGQaqRhI4+HRV/mkXxZW70ZnYfX62XC4L5m9wPMwRlPA9wDGPr5HtM4nPzlI0lqZk19pOLjVXQauYyKSsOb82tQB2JV68tKCOdxykEnwhrNMTj4A9wyYYplgz+A2+1m4rQZTBt/i5kwU3TlE6oezMmwbPAHSG4exZQxHZj9+k6jISKAXqjzL4QQ5yG3AEQgeptpnD1pqq48/DbwuhG0SE6xvF+nCA9zMXlMB8v7/fntHXG7TS1QXqErFyGcSiYAIhCGJwDp3S6nTft0nbn4xe12c83NYyzv1ykG9mhBq8Qoy/tNSWrMVb1amAnRU1cuQjiVTABEIAz/lO6VNVhnHgHpM8jWKschbXC/4G/8O5/rr2xtprks+whxETIBEIFoarRhh66ZOvMISHpmD9v6DnXd0/07lyEY+mcaKw39HZkACHERMgEQgTA8Gli5+e9ciUmtiIxqbFv/oaxt6+A9938xHdrEmmmerCsPIZxKJgAiEIZXAKJj9ZaODVRMk3hb+w9VcTH+nfAXDC2aRprZCBiUEtZCOIlMAEQgQvfvxeezO4OQZOfb5jJXpaReUxpCOFbofqELO1QYbVhZUa4zj5DrP1SVVgT1cJ4Lqqqpx+s1PAORCYAQFyETABGIU0YbHtq/T2ceATl57ChVpytt6z+UfVNo38SpsNjUZ3ZaVx5COJVMAEQgjhltmL/9a515BOSbbVts6zvUbdxp6ugHUw4eNTWG79eUhhCOJRMAEYjdRhtu+GSNzjwCsnFtrm19h7pVnxbb1rfJ2w/7NaUhhGPJBEAEwvAEYM/2rRTuMdzcMJ/Px4fvLra8X6fYtqeULbtLbOnb5PkDBbryEMKpZAIgAmFqHX/J3Fd05eG3zz5YRXGhjAVm/H6h9RM3gB6dmhIZEWa0+cc6cxHCieQ4YBGoIgxWWWvk8fD2FztpnZqmOaUf5vV6ycnqSf4OU/OWFwD7boTr8xBgqLReeJiLbUtvpFNb62s5jH90HW+u3B9os8NAO6BKe0JCOIhMAESg5gM5RhsPHXUrz/z5TY3pnN+Kt+bzzNQJZkIUoyY7Tigi8Dpwp9HGWb1akDt3iNkT+gK27+ApMrNXUFlVF0iznwDzgpSSEI5heH1NXLIigGyjjfflbSclrR3tuwT3bICD+/KZftdYaqpN/QhcBLyvKSW7uYFxRhsXHq4kwuPmyp6mTugLWEKch85pTXjnwyJ/awK8DPwyyGkJ4QiyAiACFYVaYm1iNIAnIpJXl+fSpXc/fVmd5VR5GZOGDmD/N3lmQw0BPtSQUkMQgVrRMFzO2e12seiFgWQPbaMvKz99vOEYd81Yz/7z1waoBJ4CXrQsKSFCnKwAiEDVoe6vGj5vvb6+jnX/WEHvrKtJbNlKX2ZARWkJj9wxmrzNX5kNVQA8gDOW/0FVxksBDM+6fD54d81BMtKa0Lmd4fmfIanJ0Uwdl05dvW/Fp5uPb0NdTymwFXgNmAT809KkhAhxsgIgjOgBbMTk309kVGNmvDKPa24eoyWpwj27eOi2kRTt3aMj3KPALB2BGpD2wC5MTvzdbhczf5bJ9EldrN4TUER4bWdXl8WGK1IKIb4nKwDCiCNAHyDdTJC6ujPkvr+U8pISMvsNwBMRYSiO1+vl/Tfm8tiEWzlxREvhmhJgPFCjI1gDchLoDHQ1E8Tng9yvjvLRhqP075ZI8wRTz+v7y4vbNdbV9e1dVnQmxKVAJgDCqAJgoo5AOzZ+wbK//gVvfR2p6RlERjX2q92Z2lpy31vCU5NzeO+NudTWaBuvZ+Hc5eStwBQ0/O8XHq7kj0v2UFhcSVpKjNnCPRfm4zlX94Vzg9eBEJceuQUgzFgI3K4zYCOPhz5XDaHv1UPo2L0nbdqnExPXhPDwRpwqL+NIUSH5O7exae1HrF29jPIS7Y/oHwAycPZhMi8B9+sO2qNTAjdmpdAvsxmdUpuQ1CwSr89Hfb3aRhEf6zF6xO977K4d7Rq7WE74E0IjmQAIM1qh7ilbXyEmeMYCTq8dHAtsByzdzh8f62FQnyTuGZfOkP4t/Wvk8/2L6JIRrg6rnHY7RgjbyS0AYcYp1H3lEXYnosliYKbdSVigFshD7XOw7EdAdW09uwrKWbC8gF0F5QwfmIyn0QWqkbv4O3GebFe7JTL4CxEEMgEQZm1ELZmb2ljWABQBNwDVdidikb1AJDDQjs537C1j/ZYT3H59KmFh/zcHqQff02Sm3+tKeOmMHfkJcSmQWwBChzjgK0w+FWCjKiAL2GB3IhYLB1ahCh7Z4onJ3Zg59X+qQu4D992u7gvsOz9aCCFEQNqiKs35QuxVD+gpRBCamqBOebTl/Y+OCveVrhvr820dX+7b+uOnfOvHRFlwzUIIITTrjqrOZveg7u/LC/w0KO9EaGmF2hNgy+fwyKQu7/jycppZcJ1CCCGCqCeqUJDdg/vFXvXA5CC9B6GoJfatBPzagusTQghhgfaoTWZ2D/Lne1UCNwft6kNXLLAM6z+POVZcnBBCCGs0RR2la/dgf+4rH+gVxOsOdW7gedTtEas+k+ctuTIhhBCWcaFO1KvC/oHfByzAWUWLgmkQ1q3ijLTmkoQQQlitHbAS+wb+PcC1Qb9K54kBfos6FClYn00x4LHqgoQQQtjjRuBLrBv4i1E17y05rs7BUoE3UBsndX9Gd1p3GUIIIew2DFgOnCE4A/8m1A5/eaZcr/bAbOAEej6nl61NXwghREORBPwCWIP5fQLbgOeQDX5WiASygXkYe+SzCngYqUQqhK3kH1A0FFHAAFQdgY7fvZJRj6bFou4Tl6Ee4TsMFKB29H8JfA4ctT5lgXpqoCvQA1UIKgNVUyARiOf7VZ5S1Gf2EWricMiGXIUQZ/k3YysKU7kIgToAAAAASUVORK5CYII=" parent="1" vertex="1">
          <mxGeometry x="1209.5" y="740" width="100" height="100" as="geometry" />
        </mxCell>
        <mxCell id="N0iufMa6y9RavnVxZ0Gz-106" value="&lt;span style=&quot;font-size: 15px;&quot;&gt;Machine Learning&lt;/span&gt;" style="text;html=1;align=center;verticalAlign=middle;whiteSpace=wrap;rounded=0;fontFamily=Helvetica;fontSize=11;fontColor=default;labelBackgroundColor=default;" parent="1" vertex="1">
          <mxGeometry x="1160" y="840" width="200" height="30" as="geometry" />
        </mxCell>
        <mxCell id="CO1QLuTFVFyR8qx9ADlM-1" value="" style="shape=image;verticalLabelPosition=bottom;labelBackgroundColor=default;verticalAlign=top;aspect=fixed;imageAspect=0;image=data:image/png,iVBORw0KGgoAAAANSUhEUgAAAgAAAAIACAYAAAD0eNT6AAAACXBIWXMAAAsTAAALEwEAmpwYAAAgAElEQVR4nOydeZgcVdX/6/fiq7gviGT63JqBEBYTEZTFBRBlEUFQUEEQRUQFURFUJGzKokJ4VRQUBEFB3DAoCMlU9WRhCIFAYLpqEiZT1X1vZyDs+xqWbP17Tk0PDsMsdatr657v53nuP+JU3Xurc8+9557zPYYBAAAAAAAAAAAAAAAAAAAAAAAAAAAAAAAAAAAAAAAAAAAAAAAAAAAAAAAAAAAAAAAAAAAAAAAAAAAAAAAAAAAAAAAAAAAAAAAAAAAAAAAAAAAAAAAAAAAAAAAAAAAAAAAAAAAAAAAAAAAAAAAAAAAAAAAAAAAAAAAAAAAAAAAAAAAAAAAAAAAAAAAAAAAAAAAAAAAAAAAAAAAAAABakSWrVr0x6z4AAAAAIEF6qtW39/rV3RxPneB66mrXUytcX83GpAMAAAAtQl9f31uc/soejidPYiPv+vIe11e1URo2AAAAAECz4noDm7t+5cuuL3/v+HK568l1Yxh8bAAAAACAZmR2rbaRu0LOcD11DLvyHU+tDGnssQEAAAAAmoWengfe5HryE46vfuz4quh66pkGDD48AAAAAEAe6e7ufl3JUzu6vprpenK+46mXYjT42AAAAAAAeTH4rq92dT11huPJha4nX0jQ4I9s12Y9fgAAAGDSsLxcnhrc4ftqtuPJp1I0+K9unvpP1nMBAAAAtHQOvltWB3OUvusplZnBf+0GwM56bgAAAICWIojU99XJrqcWub5am7mxH6U5nrw163kCAAAAmv4uf1BpT85yPellbdzDeQDksqznDQAAAGg6li+vbub48huOp653fPV85gZd1wPgy4Gs5xAAAABoCu6W0nQ89T127TueXJ9Dt/6GsFcOji+fyHo+AQAAgNxSWrGyg4vo8J153cDW8tPkau6X68sLXV8e4lQqm7J+QMi/X5v13AIAAAC5Ypm3chvXk6c7virl64Sv7nN9+feSJ49nwSCOPRjZd8dT14R9nud5b81mhgEAAICcUPK8Qv5O+vLBoKIf6waskDPCjMP11MWhNxQr1FbJzywAAACQM9yBgXc4fuXrrMKXhzt9x1OrXE/9uderHs2CQZHG5Mlzwr5vWbm6e/yzCgAAAOS0ol7Jl58aVOJLVGt/YoPvq2cdX93ILv0ef2DbOMbHXozwG47KF+J4JwAAAJDrCH4ussPpb5kZfU+uc33Vw3oBTrm6d19f3+vjHmfJl18J2x/eeMT9fgAAACBz2MA6/epwx1fdmd3re+oxx1N/KZXVYcuX3/vOpMfc68l9NTwQP0u6PwAAAEBq9PTf0xac9oOo+Qxc+56qcmoen/J7enr+NwMZ4rCbkyvS7BsAAACQCL2+2tPx5b8z0N9f4/pynuNXj+OrhsyLD4XeqMi5WfYVAAAAiAznwrN7Pf2c/UCE5zq+c0/Dta8DBxeGHEdP1n0FAAAAtOjpeeBNbr/8ruOplakZfU89w/f5vf3qc/z+vH4y11P9IcfzWNZ9BQAAAELR19f3FsevnsLGKx2jL19wfXUtG/3ugYGNm+EzOb7qCjs+qAECAADINXziDnLcPZm84ffkukBj31PH3FGpvM1oMhxf/jHsWHv71fuy7i8AAADwGjiKPqjA58vHUzjx9/C1wtL+/k2a+VO4njw77JhLnvxM1v0FAAAAXkVvf/UAx5d+kkbf8eXDjqd+1UonYddTR4Uev6dOyLq/AAAAQAAbY5177AhtreOp6/n0m3aefhqU+uVHwl93qIuz7i8AAIBJDgfZuZ48y/HVy8kYfrnW8eQyZ4U8qVQuv7dWq/2P0YL09a16V/gNgFyQdX8BAABMYnr96m6uJ70k3f2jnH6fYQPo+upc15cHcUlgo0XQyJJ4IOu+AgAAmIQsWbXqjeyGzkyrf0Rj+WAW+GEpYdeTn2BlPaMJcTy5OOyYmzHTAQAAQBOzzFu5jevJ3qyN/vgbArnB9ZQKygez/kB/5ZM9vv9uo4VSAd1ydZes+wsAAGCS4JTlkY6vnsvawEdv8l4OJHR89RPOVsjb9YHrqR+FHounjsq6vwAAAFqcWq32/xxPnp+9AU9kU/CQ68lO11c/d315KHs4ZtdqG2Uxz5zhoNHv32TRRwAAAJOESqXyBteXf8/eUKfXgowGT61wPXU1xxX0epUDnUpl01SuV8L3sTvp/gAAAJjMGv6evCVrg5yfJh90PTnf9eWFfB3irpAz4vQWcJXEeh2DEBsA+SR7ZuJ6NwAAAPBKpL/jq5saOkkPZglc63jyieyNdzLN8dXzjieXOp76g+vL7zj9lT04pz/qz8j11ZLQ7/cGNsfPFQAAQGyw0p7rSatB47/U8as78/M4Xz9rQ53+xkA+ycWJHF9dxtK9rJkQpoqf66uLNN7xWfzsAQAAxAa7uBs4ET/neurYkYp9ri+virCJ2NBSmwJPbnA8tdLx5RzHk7Ncr3pEb6XyAY6zGJqn4Goh/Abgp/jZAwAAiAWOhI9u5ORdzgq11ZjxBJpFgthg9nrVo51yde9BuWE5x/VVGhUG021BKWNV5fGVvMrlGn8HSWAAAACNc7eUpuOrZyOcbNezNO9ERXpKntpJu2aAJ5/uqVS2HHoGexa4JkBQPc+TlzieclxfrcnciGfQ+FtllbIIAACghXA8dU0EI/Sc46v9EhG7eWWDoRwuOjTWM9mFzvEGJU99y/XU5Y6vSpNlU1Dyq++P7QcAAABg8rGsXN1d+87dU48OBfqFhU/wri/nRdhoXKbznr6+vtezx8H11DH8t8H1RGIVCzNsnjpW+2MDAAAAQ9z0lSMH3OX9GgZZDox13z8RPf33tDmefET/tCu/0sgX4yuKZf3ygxxXUA90vNnx5FOZG/GGmrwKv2IAAACRWHzyaR+2Ozpqt/xoZljD83hvf3XrRqa75MtP1WMHNDYd6nkW34n7M/f6/hacquj46kyuKsiR+k3kAVBxzwcAAIBJwsKvHLnAFqLGm4Cl11w7vhH25AY23nG8d1B/X9vg9XNGgZEwXFK4VC5/rOTJ411PXeH6qsf15IuZG/xR5wSCQAAAACKwYO+9Hw82AELUut63Xa3n1jvGOYXLP8Yqfeurm3UNHgcrZiGDy/0NMhB8eSjn4AeVBTl9L2O9AsevfD3tuQAAANDkdJ955uuKW2+9YWgDwG3B7h+rle5yRjM2a5ZVKiLO9y9fXt0s0NjXNnrVU4ycwAGHfDURlEv25KxBvQL9MUVv8u9ZzwEAAIAm47aZMz8w3PgPtYWf2q/mLOsbYXRVVxJ9cPqr+2jHA3hyvVNW+xs5hjc3gYiRX/k+e044E8H15er4PQDyYRQGAgAAoMXiE36432gbgGAT8NmDas7d3nBj8/Okptf15Nn6VwHyqUaDEdMmSIMsl3dwPLUqzk1Ab796X9ZjAwAA0EQsOv74I8baAHDr/uJhNWfZiiEPwI+T6gcr2jmeXKht/DzVf0el8jajSXDLZXI85cbtBej15Q+yHhsAAIAmovt7P9htvA1A4AnYZ59a6Y4eNjTXJtmXpf39m0RJwXN8VWwGSVxW7Yv75D+s3Zz1+AAAADQR3WeeuTGn/020CZi3yy61uxbcvM6pVKYn2R+ujud68oUI9+C5rozHcsmup55JsqBQj++/O+txAgAAaCK6dtrp5Yk2AEGK4IwZtSWX/+khDm5Lsj+DSn3a8QAbSl7180YO7/zrAkNaQY5RmtOvvpr1eAEAADQRCz97cH+YDUDQTLN287HHPddzR8+Hk+yT68vfRzgFv9DTX0m0X7pXGq6n7IaMuq9u19gEXZf1mAEAADQR3cd959TQG4B6m7/nXutv+90lv0rq7p11+x1P3qK/CVCPlfrkNCNjSp7asVFJYfYcsBph+L+Rq5esWvXGrMcOAACgSZh9yCEbFbfZZp3uJqDY3l7r/upRjy789rc7kuhXyfMK0USCpM+nbyMDOB9/MO8/euXBQOPAUyfw83iDxVUXw/5tyZOfyWLcAAAAmpT5e+7VqbsBGGqWEI/YQpxsTZsWezpeqV9+JIoxdTy5uHtgYGMjRZb2DUxxPdnZ0KnfUy85/erw4c91PXW5hhcAqoAAAADC020YrytusYW2F+BVjegpS4hz506ZEqtHwC3Lb0Y0qLM5CC+N3wEbbceXTzbm8pdPsst/5LO5+FLo53jyhWbSRQAAAJADittvf3pDG4D/tvU2UVenaX7RmjbtDXH0zfXVLyMa1l8aCdKr1Hu4OFEjhr9u/Ae40NCY8RAamwvOokhyzAAAAFqMMw3jf4pTp1Zj2gQMeQWetIW4qlgoHNDIZiBIp/PU9RHd6t8zEsD15SEcdNiw8ffk4olSK11PXa3xTIgCAQAA0KOzrW1XW4hXVQeMq1lET9tEf7WEOKwoxLt0v01fX99bHE852kbWk+vcsjo4rt/C8nJ5quvLeY0a/sG+qYv5hD/RO91y9dMaG4oNpRUrEwnMBAAA0MLYQsxOYgMwoq2zhLjNFuKMohC7cAxCWC1911cPRPACvMRVBxuZF8/z3ur66lzXky82fupXLzm+/EbYd3d3d7/O9eVDGpue0xsZKwAAgEmINWXKprYQj6awCRieSfCcRVS0TPN02zR3H++6gOWCHV89r2945Wqnv7JHpOuHsjxSywCP3497oggWOZ66QMOzoNIKgAQAANBC2ERfSXMDMMp1wYs20SKL6Jyiae7Ttdlmb36NS5xd+/ou92ccv7pz2HlwPfmJOKv3cRzD8uX3vjPKN3HKK7fXeVevVzkwynsAAABMciyi/2S5CRjhIVhrC3GHJcSFnURHWu3t03vu9k6KZIR9+QQr9Y03dmeF2ipq0OEYLvkXXF9+p9Fv4nqyV+Od8xt9HwAAgEnI3Pb2d1pEA1kb//GuDeZ96EP3LTr+hNqSiy6u3dW1oOb0V8Iax6dZZGjkmHt9fwvHV5e5vloT26nfl8u5FHAc38T11YnhvQ1yQ9LVGwEAALQoc4k+ZBGtydrYh23FbbapLTzgwNotPziptuTSy2s98xbW3BXlMQyzep5d/EOR/XXDvzY+dz9XAJQX9vX1vT6u7+EODLxDL/5B/j6udwMAAJhk2ETfy9qwN9Q6Omrzd9211n3El2uLTzujdvuVV9fu6l78yiaAq+jFXq6XXfXl6i5JfA/XU1dobABWZ1UXAQAAQAtgE12cuSGPuXXNmFG76cDP1BZ978TakgsurN15w9ya497d+F2/J8+K89Q/WhaE3hVE9ZSk+gIAAKDFmW0YG1lCzM3aaKeyMXj/9rWFnz2otujY42q3nTurtvRv19RKS5aGMLSqu7e/unUa38P11RKNTcDjrGGQRr8AAAC0INd3dLzDJuqPYlQtoieshBQG0/QYLNx//9qib327duvPz6vdwRuDW24LsgpcTx3DpYDT+hauVz1C0zMBYSAAAADR6Wpv36Je/jfKJuA/nYXC11hpkCP4szbosTWil2yiqiXEHFuIWRbRMXahsLfd3t6W1G+N5YNZUEgjIPGpqPoDAAAAwPB6AasjGsw/c9Gh2UK8kY2kJcTPLSGW1PP8a63WLCEet4W4nQsi2USn2USHzC0Udrixre1Njf6c3H75XU0vwFn4CQMAAGgIVucLTr7RPAFX8iZg+PO6N930LRbR/jbRL2yiu1p1QzBic7DKFmKhJcSlRSF+yBUTOwuFrXt23HHC4kDBnA0MbOz68sHwGwD1TF/fKu0iTAAAAMCr6BTioMiGmuiPIzcBw2HpX5vo4zbRqbYQN6ZdmyDjjcGG+hXJPZYQ/7RM8zj2lsydMqWjZhivijNwfTVTKyPAk+fjZwwAAKBhLKIv20Ksj7gJuGK8TcBI5hFtFdQoGExJvMMmeiFrY516GxzzMkuIf1lCnNs1Y8a3l87+17OlpaWQKYHq5VK5/F789AEAADS+CTDN46JG+FtEv2skNdE2zRlBbQAhLrSFuNUS4vnMjXRGrWvbbWvzP7HnoODRSScPyiPPsWolZ/nIWIAF+NkDAACIBVuIH0U1XHySjVWvoL19uiXEYbYQ59lCdNbv2muTuc37wAcGRY84hfFn59UWn/iD/9OJNwAAAADGxBLipAaM1MmJFzYSYg9LiOMX7Lprcd5uuz9b3HrrzA1z1o3rPFhCVFjkySL6lV0ofKuTaM9ioWDipw4AACBxT0AQ+EZ0TJpTPbtW22j+XnttbZnmJ22iEzga3ya6eTIFHE7QONXTZd0Gm+hnHH/RaZo7ccZGmt8JAABAk2AJ8ZOIBmedTfQ5Iyeqh13t7TtyfAGL+9SN4IrIAY8t1iyiBy0h5ttCXMabpyBLoaNjStbfDQAAQMbYRGdFNCwvstCQkVNmT5/+eg48ZEEfi2imJcTVFlHPpMxIGK0RPcnBmLwxCOanUDhwbnv71JHpiwAAAFoYm+jsyOp5hcI2RhPBwXQcVMdiPrYQv8Y1wugbA0uI3wdxBm1tu1rTpr0t6+8GAAAgIYK742gnSWVNmbJpM30Ylje2iP4vuMrI+iTeZFcJnMYZXLeY5gzO5Mj6WwIAAIiBulGM4glYYk2b9oZm+AjFQuGjlhBe1ga1VTITON6ifr0yeI2A+AIAAGg++P43CBaLZgyuNHIMF/WpixAhODD5zcF9NtH1lmmeXhTiUze2tb076+8PAABgAljy1yb6R6RNgGkel8cJ5pQ4Swg/xpPv0yyPrPk3tw1lKXAwIgdRZn2Cz+AKwbILhcvsQuE7N7znPZtl/bsAAAAwSgS9RTQvwiK/Zq4QH8vZZuYEm+jlmIzYGvaQLNhii8B4ac0R0QvzC4VNhgcjctR9UGqZ6Bj2TgTpekTVyeKlsIie7RSikzNR+Ppg+PwAAADICI78rovL6C7qDw8ZyCzpam/fop7mFo+xEuLfXORo+DvmFgo7aNZWCKWiyBUW+dl2oXAou9FtIf5sC3G7RfRES28IeC4HNRz+wGJG/A0T+4EAAAAYG7u9vY1L3UZYyG/SqR4YNyxSZBM9FZNhWmaZ5m5jvmuwBHLYeanEIZXMwkev0TcQ4tmsDXgijeghS4g5wVhNczfURAAAgJTggj313HC9TQDRzLQ/Emci1F3pkSoejmir2TXN1yHjvXMu0Yc0N0c7JzX++W1t7SPkkhfZQjyWuRGPsQXxFxxLQHQaXzd1d3RsnNR8AgDApKdomvtYQqzVNHRrOeUurcmzTHPL+kk4DiNzAxvT0O8W4jaNefmNkTIchc/G0iY6lt9vE3VZQtybtTGPpQ3Gd/BVzyze/HC2R9rzCwAALU1RiB9GMKQD/9lkk7cm3TdbiH2jeClGMSb326b5We33m+ZRGu94KMvrkeHwt2GPhFUofDUwoELMiXLlk6tG9JItxEKL6BTO/sjLXAMAQFNjE/0xwoJ8SZJ9qkfQa3knxmizo0ahc9Cezh18UYhdjBzDBZZs09yd0zr5KiHwcBA9k7lxjypXzamXQhydh+BUAABoSvi+VdfNXo/s/ngSfalHxzdqIB6xhDi40f6wEJLGpuhso8ngK5GiEH9pevnkwSwDvi7YDd4BAADQvGvXPQ1aRCvjrE0/d8qUDlsIJwbj/8+4VOo4n1/DCN1lNAkWkQgUFAdd69kb8Hg3Aw+xoJNFtP9EwZ4AAAAGjd2hERbcC+KYPPYmNFrBzxLiOS5oE3v54ZDXAOwVybs8Lhd4CpQLJ0/55NUcA8G/izg3qwAA0HLoSuGyuh0HZTXyzqIQ3230vt8SosTlgI0EsImuC90X0/yMkUM4DoLTH1tWVyDcb+Q59g5xQCg8AwAAMAJOt7KJ+jUX1tu44FCkIkWDRqmRRX1DoBGQYNVCW4hvaPRplpGzwD+L6KcZGP57LCG+bRP9NY+piYH6ItElnNIa5bcLAAAtSV0ERysorCjEl3TeMVuIN1pC/KuhhZzoSdaaNxJmjhCk0afFRg5gZb16JsUjmRjZEVkigZiREEfw/24R3Z2nuggWkQw2oh0dm2f3xQAAICdYRL/SXPDv57S5MM/me3IdkZ0xmsNFd4yUCErhhjMmL3YbxuvS6teofR0sRNSXqVGdIAODtQqCAEsuGCTE/JxUUVxfL9x0CKSJAQCT+iqANe41NwETpsGx0W60hC/r5KetDGcTXR+6j4XCNmn27ZU+trV90BKiOxHjSLRc4/us5asH7fRP09ydpYBtITr5vj4HZY7PTXOTCQAAucESYg8tVy3RC5xeNubziD7cUKQ/0UudRN80MqBumML283Np9m2eaRa4nHFCufy38zVLp2l+UWMDsKTRMfEJPBAtIjqHnxeTKFSUtp4lljm4E/oCAIBJhS3EVZonp9+O9pwi0ScaPNU9xhsSIyOCYjzh+3pGal4aopkJBfgFhn/oXTbRNRoboLPiHuv8qVPf3inEQTbRxSxFncVmgHUvLCFO4sqNcY8PAAByB8usagkEEb3EQXOjlPFtRHDGKRYKZg7y58POwT+S7AufRFkC1yJ6IHYjJ8QSrsEwijpj6E1GZ1vbrkbCsGu+Xh2R4wfWpLoZIHqJr6GKRNsnPU4AAMgULff3oBG5cOhvOTugQffttWGDC5MmtCAQ0dKk+sDG1RbCTcPwD1EsFA7QeNajsw1jIyNljQP+ndVrAzyf6mZAiAWdRPshlRAA0JJwjn2QKhXWmBC9yF4ALjrTSLoXbyTydO9a15sPc0K8P+53F4V4VyDdG3P6nCWEx1Hv4xkwzXoIfzSyrmtRKBzIJ3SL6Om0NgJBwCzRCZzemuX4AQAgdthI6CyIRSFuaWBB5WC27+TtM3J0ekhjsDauUzAbZpax5RiImI3WfawTMFHKIv93rXfnSAlxaDNgC/GXtDwDnD1gE52KOAEAQMvAhsgSojfxRZRjBQqFQ40cwiI2ocfR3t7W6PusQuEDHIwX8/w+yYGDYU+qWsWQhFiddnpmWHi8vInlugBpZBTUZYcv5AyNrMcOAAANYxF9IeFF83GWZs3rp6pH3IcaSyP1Efj0yNHusab1DRb/maV7MrWE+L3GO64zmqUSItHMRvUows47Z8awEmLW4wYAgMjUtfuXJ2L8iVZmJaATlqIQXws7nqJp7hPJy1IofDVm+d71fIc/nj7DBLEfT4Te9MRciTGl3/PHOWsj8bLIRC9zfASX3c563AAAEAkdQRiNxbHaDK5SnbFzzrrWs4XYziJqJG5itHZrI54InbgPDvy0pk17m9Gk1IsmHZO0hDKnLHKAIuoOAACaDo7K160WGHITwFoDC2yin3EgGesPGDmjHlAWdqH/skbRnpnBCTG++byPT+ONpqZZQswNPV4h/mW0CF3t7TuysmKi9QmI+HrnLpvo01mPFwAAQmMTHZvkKWmYER1g96xF9H2ODci6hrtVKOylscAfO9Hz7ELhI6FTC8O11XzP373ppm9pdKy8AdMJlisSfd5oTRGsUzmtM+Hfubxx6lTECAAA8g8bmDRzrEcYuAWWaZ7OgjhpV2wLDHbYvprmD8Z6DkfKs6GOK8jPEmIDi+DMnTKlI66xsuStxmbnmVbOfw/qEgxeh8SbkfHqb7i20zRPa+V5BAC0CDbRRRlsAEYums9bREWL6JS5RB9Kugzv3EJhBw2jeOqo8ybEvjFr2TtcZCnusVpEd2v04c/GJMEyzd14s5VQ4SVujwYZCtOmvSHrsQIAwKjMnTLlvfWTZy1HjaV6O/nKoLNQ2DruT2e1t0/X6MuPRir56RZWGnfzwx4You8lIbtbvwMP3xfT/KTR4nS1t28R1F/gAL6ErwSCRlS1hDgMEsMAgFxiCXFTDoz+eIuoqnsq9mVVuDQNo0V04qv0E4geitH4/y0OoaGxsIh+F7ovQtybJ7nmuOC0SZvoKxbRn7KqPlj/DS9mQais5wMAAJJPCUw2fuBGu1D4VlRRFq5Pr/G+78zt6JjC4jixGX4hPC6rnOTP8D+bbPJWzeqPZxstwI1tbe/mE7ctxB8CXf/sf6/D23r2POQxMwYAMEkJ6tEL8VwOFkh9Y0p0t0V0PmcXhD3BFoX4VOjnFwqXxqbfzyp+RGelcS9sCXG8xoZkQ7MK2/A3Z40EW4gf14P7krrTj68RPRXIOGecDQMAAAGBilrWC2PjC+v9QaU909x9vM0Ap7ql3TeLyE5LNKaujKej8bCgmf4ZsAxy3Wt1lUX0cOa/u+itbBHtn/V8AgAmOZYQB2ssXFwg5SYuSJODRXQsg/tgcAdO9PGRAXb1qnzp9GWwaM8xaX5Lli/W7OfhRo7hDU2QuTGYy7+4KU75er+R6+e2t0/Nep4BAJOUoOSqjiaAac7gv+OcdVb8s4Q4s64492jmC+qIFpwSiS7pJNqTNwOWaR6XynuFuJrvpNP+lmxQNPr5WByBlXHD1ySsrmcRXW4RPZD1byiF3+iLHIeBtEEAQCZwvXWNBev7Yz2HTzP1QKwLLCFui1ket9H2aNLlkOvR5vsaGcCBkZon5FlGjoSpAqGewaI+4QMYW6ixmiB7rbL+FgCASYZtmp/VWKhsHQU2Tr2rl26dk+ergwbbetaej0PCNyp1ZcLQ/eW8eCND6iWTD2FvSbMGosbd6rocl3EmR5bfBgAwieAFh6uchVqoiF6IKnfKbnjeEBSF+KEthMVKgFkvug03on5WMTQypC5NHDpjgTdjWfSTtQ/4GsYSYr5OnYKU2n020V/rFQXDqyjyvxuiv9Y3gXH15R7OWMniGwEAJiH1IKtwBqRQ2Cs2jXbOzSc6KxBMCbsJydGpn42vkTGsKKjT9zSNCxt9m+iE4EooXiPZWCNSFtGVVqHw1eGBeHOF+Jjms656RVmTqBhzP2dbU6Zsmta3AgBMUjiYL/QGgOj8xO6CBwMLL2WFusyNxNitzPoDRg7g+glaSndEKmnlv+s7Ot7BsrtBeej8RO6XLSF+XxTiS3OEoLH6bgtxq8Yz180j2uo1JaeJqs2cTQIAmGSwQdPYACxNo098MqufHufnIaBw6I62a7PN3mzkBIvoy5pjOArGNe8AACAASURBVD6xbJJC4cBAa39QtTHrb8Upq3PYeIbVYeDsA813XD3WXNhEp8Ua20B0fRaZJQCASUD9JBkuHZDopbTVzKxp094WBI0R/T2LUsbBnbVp/jFJDf8o2EK4GkbkyTgDFfk300m0X93oP5upwSdaYxHdYgtxRlGIXXSLLLFXRGsu2bNRKGwz3jPnmWahHuS4ITaNi0lQuAkAkAEW0Q2hF6S2tg9m9ZF48xGU5eWrAqIH0zY0thDXchxE1pXedE+sthDnxfLeQuEjNtHFWWs/8NVHIPpkmp9pNHLeNs2jtN5P9FeNZ3Ocy4o4vVB5iD0BALQQ9ej8sAvgsUYOCE5ugwbpF6nHDQwu6t/ISlCnfuINvXEpFgpmQ8F8QpzMBY0yNPrr6voSp3YKsV1c88hXOpqiQ+uKbW3b6ga8BumwLPwTx0aAqK9ItH1ccwAAmOSwEInGAnS5kTPqi+yVGRgmPgnPYpdvWmMNNj16ffxLFE9LENTG0ejZZWisfuUuP6HrF4vop5rG92+R32WaW8aVLcCbCd5UtGI5ZwBAygT37CFTtVhVL08fiCO7NSO4429c9U+Iy3RPh1EIhJV0qv5p1KTnk6UlxG9iq4aoa9iEuDd4f6Gwd9KxJuwV0QpaJHp5ZOR/1OBNS4hHYtoI2Cg1DABoGE6XCrnwrMvLPWTguSB6KFPj/9r673OKRJ9IYryBuqJeYJk10TOLQryLMwQsIUoZ5uWfzwF8acZW2ETXaG5OfhOrGqIQl8U0h4/Gpc8BAJiksHsz9KJTKHwky76yoWAXaI5yzV9rMIh6OoU4KE6jxgZdqx+muftYz2LhG86s4MyODIx+P7vfueKfkQEsiKTZ3yd5oxR3P4I6CDEEVHKmCv97yDo4FQDQpNim+QONRecbWfWTc6LZ9Zm1gddoy3ihb/S+Vvfu3xJiychnzJ869e182o8rMl17HoT4sdXePt3IEJaz1hbsMc0fJNUfVvzj7JI45tgi+g9/46T6CgBoUSwh9sh7RblO09xJS/0uT41oRSfRkZxDH2XsFtE8nfdxnv7wqwN2Oaddg6F+p3+hThxC0lhCnKv53applOztNM0vxhJ7QdSfRiwKAKCFqN9Lhl3Y/512/yyiE5OKSA/u1U1zRr16YbIphWxQiI7R2QhYprmb5nvcJYMnXa66Nz9lo/94sNkwzd3y5pKuf2Ot31CR6PNp9a9rs83eo33NM/o3eI43FGn1GwDQAlhET4RcZJal1ScOOAzuqpM1Wt6IlMIvsJ59XEpuY2wEVFGIr4XZCNhCLNR4Lo9nrk30VGqGn8s9E13BwWi6SnxpwZsRncJX9XZr2puYujLhjxqVwA5+u0S/yOv3AADkDJvozpALzOo0FkauCcBphykYsD+OOh+Fwja2EBckaUwtIXyb6HMxXc2k1oKTNNH1HOiYhou8UThuRfO7rM1ScIcVN4PfRuPfyeY036zGAQBoEnRO2uNVVotRnCgVyVlLiK+P1xfW0Q8EaYj6EzSoS3nMr5mHrDUORjaiFXxVwu5qo0ngwNEI9+sXZN1vVipkz0oM3821iETW4wEA5BgtZbRRjFWeUvwsjb/nmu4a8sN7Bwp1CV0P8J390MmTPQOZG/zBb/1kUA2xvX1HowlhNUTN8T6Up2h6S4gjGg3g5NoZHESb9VgAADlFszBK7KmAfNKOIyWqk+hmjf//o1FS9DiyPaj4lkxg4jq+lrALhUrWLn7bND/LcRFGkxKhcFItjwF0HNnPdQAa+qZCPM9XNlmPBQCQQ3SizTmdKs53s8xqowtc3XCeahF9P4nqbqMxd8qUDpvoIi1Z2Ty3QWW+ma0gMRu4/jWVIjnd0sgpXPmQ6zPEoFZ5UtZjAQDkjLkdHVM0DMUVcb23aJr71N3MjSxsj/Jz+Hk6QkHsXo1jDHwnbgnx81Sj7+Mz+i9bQvyTrzfylrrXCNreJKKXOguFrY2cYxOdEIPn6YJW+tYAgDju34VYG8pwEt0Qx4RzcF2jixmXxx2qyHd9R8c7NFKo1vMpMc4fDkdcW0SnWEQPZ27YJ5o3IfiK4eRmCujTKboTYU5+bDQJnW1tu8bwG/tLM1/vAABiJuyiMprUrA6c/153nTdiwDaw0tzwRcwm+orGM+4wktQvEOKktDIZNO/2r+kk2rNVT4BBpT99T4zbbMaQI/u55kSD/4bmsDxy1mMBAOSA0PfwRCrqO+YXCptYQnQ3ZMx4gTfNz4x8ti3EjRqL30+MdFK5ToirBGwD88V34bPYOBotTD2LRKtWBHu9mjXDgX9flhD/avC3sShPWQ8AgIwIbZiJnokqx6pdjOW1C3YviwSNFiRlEb2o8ZydjZSoawnMTDtGIKhKSHRks51uo8KbrQgG8GyjiamrHJ7dSGoql4NuxasgAEBCgVO6CnAW0f68cWjQqF3Lp55Rny/EERrPua/RCn1RsIU4vFGZ1xBttUV0eVbldrNMlbOJXtDcIN09e/r01xstQFD7QWMDPMomwONA4KzHAQDICJvokiTUAFltL2yA4RiLE59uZo1ntC2iYuhnEv3CSPGEViwUDgjU/pI1/EFwJhd2MiYZbMQ1pKyHflNrW00cp0j0iUa8TNgEADCJsYjOCbtYhDlh1t2TZzVk1IR4zhLi4AkDv3TUA9vaPhjrxI0xdu63LYSTtOEfvlHi0/9k03+3iH4VYa5i1bLIC8E1mxD3YBMAANDCJvpe6IWjUNh7vGfxFYFF9LeGjBqR6hLifRP2W4gzdE45Sf4s2EthFQoH8r1qWob/NWMkenC0IMlWhK+WItx/O63i+h8NTottqJAW0XJrypRNsx4HACBFdNLo2MiN9ZyiEO/i6OIGjf+iMItQPfJbamwAzkzEDW0YGwX55wkWDYpQEvaKVo7wZs+PJcTjmr+rF8LWf2hmAk2MxopJLeN/x1mPAwCQEnahcGjYBaJI9PnRnmGZ5pa2EOUGDdivWSsgTJ91S+bGrfbGhp8j7evCOrUctnts09zdaDECLYkIBq4oxHeNSQLrUdhCWA38du7gDJasxwEASAEuFqKxkH5p5N8XhdiloZx3opcsIY7W6bNN9A+N598Vp6ufC8fwlUIOjPxEbR1LFbdSOqAtxHkR5sFqVQGkCTZKVzVSoVI34wcA0IR0Eu0XenEwzaNG2TysbuTe2iL6sPZdp46UMNGxccxTvSxwZnf8kRvRXXahsI3R5LCSIUs5a47/Mbu9vc2YhASlrBvYBPAmO4u0WQBA+gurtjG1iE6MsCAPb65OWmGUrAXWIGCxoEbmxxZiX910s1iaab5gEV2plekwTllYTss0mjvATdvLNNlL4fJVFev/N7AJuCjrMQAAclISmDMGgsA3IS5syCARFaOkrdWzDMIXRCG6OOq82EQft4kWp274/9v3nwVjFmLnuNIKLSGuHktUKc/u7Cgy0hbRb7PueytsAnijn/UYAAAJUTcw4RYE0zzVJrquQcN2ES9KUfqqWfiHT4Db6b6jHtMwPzPDPzhHDw33XARGkOj7jVy3DHv2Cqu9fbrR2vn+Jdxhx7YJWG+b5mcz/AkAAJLCInp/aINKpBowPutYG7+hvmrcwXPJYJ1nc6aALcTsRvTV42qcWjhaH7va27ewiW6OYRPA8rnfMHJOIKOsb/yfa4WYh0Q2AUR/jfibWZ1mHQ0AQJp66kkbNCGeb1SkJqgroPHO0TIWRoODxCwhLm1EtngcQ/uUrVnDnTcu40WtB6JDQpzUiAb8sO9yaV7FcYpE20f0eByedd9zfp3yz4i/l/tQPAiAFqMoxLREjT/RA1ah8IFG+6lzH88BYxO5gFksh+/Zg81J/GN+IlAqJDpbc8Pwclj3PAvbxBKcSLR4wRZbbGbkiLqoVJQKkn/Iuu9NkSJIdH3E38uCqNd3AID86ognswEgWj6/ra09hj7urvnuMyYIJPy+tppcuPaYTXQq39/PI9pKu1KdplZ9cKIzzdO10iJHb/flpUhOXV0xfJGn/7Zls4V4Y9b9bwa6Ozo2Zk9TlN+KRfTTrPsPAIgJLpKT0Aags9EUvFf6qKds9uxo1fGCvOjBIMLIRVPGWRSftoT4ydB460WBbtJ8zj2s4hZlfjhwMeKJefgYXuT5MTKGN0FR5p83XFn3vZlgD1iU2gEWx8ggKBCA1qBYKHw0AeP/57gU6Dj4SCswb5SyvywdbBH1JDDO1RbR+fMLhU1GvO/r2s9qNEZi2rS3WUR/b3gzI8S5WSnnsdS0bhAm//8ne75/VFiHwxLiXu3fCdGTHJCadf8BADEo3MVpFOM2IDZRV+h3E63hYjFDfxu44ROI7K+73C9jgZqR/Z3b0TGFF0jNZ94Y13zVaxQ81+AYr03bnc6lpiP2+7w0+9mSV4D6v9eaRbS0lWSmAZiUREm1GuskVhTih5mJFA0uSpfz3/EVgC3ELK4zEKfhrysfzubAyXHmc7bWM4leiPs0xWlwrLTY4PdcklZ5WN40RTmJ8jVL2AJSYOyYmE6ib0baJBOdhXkFoIlhdb+GDSNHrwtxWAJ90ykvvL5LiPexclk9Cj82w19fHK+dqKSsbqpife5ONZIL9PpTg+P257a3T02if8P7aQtxe4R5uz9v2Qt5hTfEXe3tO9pEh7AWB3uvArGrwbiRyFLTlhBr8xI8CgCIAEf1NmQkiJ5m2dy4J98yzU/qGoSEyvNaHCgZqhY70f2afe5POg/fFuI7jWQJsPQy5+Qn0Te+KooiTsMBixz4mESfmhEu38uqlxycFyhGEl1kCTE3UH2MQS9igubCCwNAk2IJ8edGTgAcYBd3n+oR+3clvHBNZGRu4SuI0POof9peP1eIj8U9d2NepRA9FHk+iJ7iYNEE+nV6hN/cBkuII4xJBt+3s1qlVSgcyEJQrHnAqpBatTESasWYr/4AACnBbt6GFoDBXPer7ELhI3EGsmW2oBEtZ1dpYiWV//ueS4wU4YDFSK72/7bVRSE+FVd/LCEOjlhN8rzJ4K6v/xuYFQSxcgaLpqZEym01sgIAaEI4bz7GhWCZJcS32SUZtT8cfW4JsSrtRcwiGug0zS/qZjAEioJC3Kf1LiFWxaWRoBvwZRNdEXmeiF7mVL2YUjujKDDe2Ao16tllzhLcFtEXAiEnIa7mqPpAOjp7Yx7t348Qc7KeVwCAplsxkeI3RM9wyWCO7k7DLdxwDIMQJ0etHmcT/THtnP9GsYhOaeC7rxurWFGod5vmlizVHOE73Z3FpikWzwun2hKdUDf0PbFUdcxhK8awOQQAtIIM8FARICF+bRGJMP3hYiO8eUhjsaoX/7mskUhyW4h9IwjXXG3kAD59NuBWjrQJuLGt7d1Rrpw4q2O81Mu8GXr+XdlC3JpEnYk8N4voQQ6GzfpbAABCwBXzUlkciF5m1/NEG4GG3NM6C5UQcyZK6Qsppap1VcEBWyNVA7OEgxCjpkzWU8C+GPZdLHNsC3FHBKOyJoksk0YKFVmFwl62af4gCPwkujMG4aXWaUQXZf2NAAAhYBnblBeHF7gC32iuXM4njhgUpvN+TovaP44fB5/kI7xfK7gwDfhk3UD65Low5Xfrteivi/SOQuFbRgZwLEgwN3xPT/RT3jRmEZuS47aexZssIbqDjTvRqXahcGgclT8BACkQsepaw41PwhbRMUOlResV4HoSfN8DlhBHxxVAxguddj+IrjdyCl+DWEKUIs7tmom0+C0hLo347N+lMf564OnOrIhnE13M7vuYg2ObrgXploP/bm6r15iYZZnmcbyBDgIYI8bMAAByQFCxLmbFvAgLfB+nlvEpL6F3rLaJzu7abLM3x1pARXfeWGu9vb3NyDF8d8vyvxG/44tj6UE0ENS5IAmBGU6zK5rmPkHgJxs2ohWNqOE1bRu8llMsp2wRXcmyvrZpHtVJtCcHaiYtUAUAyJBAOUzHkCa7GMWq2V8PzJs9d8qUjjjnrF7md36E/hxtNAG8UYoyvvo3fGakYiLHmETUmF8xWknnKHEabNBsIX5kCfHPRksmN1uriwTdyga+vhE7vLOtbVfexLZCOiUAICLsztNYSH7JQXN8mo5UPjTddmtS95BcZ6DV86MDd3jUqyGih4ZqB7CUcyQJYqL7h1d0DAtrT9QVD4N0u/rJPtmYkjw0oifr12dchGoWCwixkBCXh07kBwIAaH50ascPz+/lkwO77S0h/tWIxnwCC+FDvPglVcu+XmhIV1f9sShaCFnD97sW0X+ifAeLSNaVEfXv0ImeCVN3gD0VfJIdZuz7W9rYD9a56OZql1zMh/898jzFebUFAJgksBHXEmMZ4/6a0/qC4KAMYwnq+fy/ZndvogZRiN4IxvALRhOLRGmXNm7kOxKt4bv5kf3gDR17n4pCfK0eTLisRe/sWVtBWkQ3BBLApnkUFzzCSR4AECu8sIRemIiqoe6OByOEV6a6aBItsojen/TPwyL6vwj9+4vRGkqRcxM3/hwnYJpH8TvZ4LErn0+69dS7x3NgnOMb66CuQZXHNtxlzzoJWX9vAMAkwBLiTI3F+VKtimWDRUzKCS+iDybp7h+ObZq7a584ie6PI4gtD9RT5LoT3gDwJuPPrBKYiDR1Fm1Q8+KuepXIk4MqfhxdX099BQCATGD1siT1vTl9i090ukVyQhj+NVxjIC23aD01TivokQ3YaK7sZobnW+c3M5lasGHh7AKi6y2ic/jah8v2wtADAHKH3dGxucYpa13UkywXvOGTcIyL7UtWW9vBRopYRH/T7meLSqGyhDHrNmRtcDNtXOSKqKceeHgCa//nSdoZAADGxRLiJI1F71bd6QwK+ghxbUIL8FMc/Z3GJ7aEOCxCH8utfJcbFLyZHLn064LMAqJrWOK2WCgcELemBAAApI6OK5c3C1rPFuJwTn1LeHF+1i4UPpLcDNVL1g6WCdbKRphL9CGjxWEZ2GauWz/adwtqRNRP9RyAiPQ6AEDLMY9oK50gKzaEGlry/0pt4SZ6JiljW09/uz1Cv84wWpjgCkCIgzkGI+kgzwR/Ny9xYF5QrpfoWNb/7+7o2DjruQUAgMThSnwaC6Yb8pmHpHDqH20xf8pqb58e9xzVDZxuX25utaAvrtgY1Lcf1HnoaTqhnUGt+1ed7GHsAQCTWfxHp5zpj8d7HivcRS7xGlOziAY45iCuOeK7Xu00NKKnWuF++Ma2tncPO+Eva6Z0vHp2SMkmuoSzT3hj2GobMgAAiIwtxL5apUDHcf/zqT9HAi23xlGalPXno4yp0zS/aDQhzXzCZx2IQEiHK9gVCnu3cuAlAAA0jC2EFXqRJVo82jO4ipgtRGfWBmCU/l6c0b3/ZUaTECjssRgNn/CJljfLCZ9lpi0imwtR2USftqZM2TTruQQAgKbBLhS20TnhWUTHjBrhz3XtE1zsOwd13qPFE5jmZ6LOD1c71DZMQlS4Ap2RU7ieuyXEHhbRTy0hltRrJmRu0Cf43XFxqTsCsSchjuCg1aznEQAAmhpbiD+EXoiJXhgu/lMU4l1BPnQakf3t7VP5/tYieiDCMx4dq2jReHDlugj3/i8lVXK4EYL5IzomKOJD9EzWBj3MN7eEmD/kymfZ4aznEAAAWoZAmId1ycOfwv409Ldc0z1uOd+xGmv7D72XpVQ1AxYH+y7Ev3XmhqsZRrn3t4hONHJk8DnSPeKmKW2DXx2KyucCOByYmvUcAgBAyxLcneoZ0Z3rBWAuTOuemDUERva7KMQ0rZLF/237hq5XQLQ4Ql/nplGEaMzaBERfqNeFH8i5sX/BIrrFFuI8jj2AZC4AAKRIUMee6GEN41ZigZ2UhV7u42uG0fpfLBQ+ahG9qGWgifrYuCdU4veeNKv81VM3d2aRIc520K5KmG57jNNCLaLvW0Qf5sDKtOYJAADACOr3weGN52CN8jSNzHoOVBvvw9lCfEP3uZZpHjfuM4k+F+He/+U0pH45yr0urnQZp7vlwLCPPsdED/PvxSKaCXc+AADkLApcq3ALK6elbUSEODfMWCyiKzWN08qxhGCCjIgIAXJ8sk3kOxnGRmxAORAuz/n49c3I7KH7+6yuQQAAAEwAG6ysjcYE7fawbuIgh12IezU3F4eNfA6n7UUpacsn3TgNHosOsRY915APihtl/y1e24gUB4RahcJXu9rbt4hr7AAAABIkMHTRAuhSadw3FhVKSskweAdRz8hnWEL8U7uvRCsbvffnUz5XMLSE+LklRG9eDT6ni3L+ve63AQAAkBOCvOqsDcrYbT2nF0YalxA36ryrSLT90N8WhfhhBOO/JmrpYS4py9Hveb3LrweHzuY4EZzwAQCgBQiCyFJwK7MSno6+wCuN6KyoY+P7ex1Fu6EYg7lCfCyKEl5RiO/q5uUHlecGxW1Sj6mYYC6e434NBe3hDh8AAFoMm+iihA3JBovot4E+u/7f3tRolTYtVUIOgmxvb4sikmMR/T2U3C6LJfGc6wRcptCK06bVbjro4Nqt5/ysdtv558+E6A4AALQw7MpN+OR5T/00/ZsIBvWBOEr3dprmTprvldrjJFrOLvyxAhK5AqBN9A+L6OmsDf0rraOjtvBT+9UWn3ZGbem119WcPr/m+mqoXdTovAMAAMgxFtENCRqZ2RwMFykvn+u1m+ZucY3TFsJNcJzPFtvatn3VvE6ZsilLFddL0L6UubGvt673b1/r/trRtdsvu6JW6nGHG/xXNcdTblxzDwAAIGd0CnFQEkaGT7kW0ZeHIvGj3KV3En0zzrHaQpycyFiF2FAk+vzw+/y6Al9ecvNXD7/Hdzy1aiyj/+oNgFzvDgy8I85vAAAAIAfc2Nb2poS04Rdyzjq/g6v02URPRdhA/C7u8XKZ2CQMbFGIK4MMCqIVOTD2g22wL7O4Wh5LOw+fB9eXfw+zAQg2Ab7aL+7vAAAAIGMi6tqPZ7TXsCEcChyb29Exhe//tZ8jxG0cKJfQmOOtfpcT1349Pe/PnI8/UcxEyVPf0tgA/CyJ7wAAACAjbNOcERjs+AzQ3RbR+4eeH1QGJFoa4Vn3Ldhii82SGncUUZ/ctvopn+MkdKL1e/vV+8JuAFxPWkl9CwAAACnDudyWEN0xGqPL2OAPPZ+NkS3EtRE2ES9yFbtJLHY0/vwI8Xy9kM4x80yzEHUOarXa/zi+ei6cB0A+HO8XAAAAkBlRIvLHOIFycZzDR3n+ryMYtw3svk567PyOrA255hxXLSEu5Lv8OK9FHE8uDusFKHle5M0GAACAnGB3dGweS84/0Z0c8T7y+RbROZFOt6Z5ehrjLxJ9InOjPv68skpipyXEt/lbJTUPri9/E3YD0NtfPSCpfgAAAEgBds036vqvn9QvHO00yhK4EZ97VVo/gLlEH8rcyL92Th+xiC7nGgDDr1KSpOTLr2gEAv4kjT4BAABIiCiFbUa0x4qFwqinQc75j5L3bhHdMjJNLUmKCekeNOLa7zaM1xkpUyqX3xt6A+Cp69PuHwAAgJiYO2XKeyMV4fmvwVpsEYnRnm2b5mejCP1YQvhFId6VRsZDPfivnJnBN80NXdtuK7kfLMZjZEw9EPDZcJsAeU/W/QUAABCBnh13/F9LiFIDBuzX/IzRnm0TfZyj9yM889GiENOS+qDz29rabaJTOT0xK6Nf3HLLWvchh9aWXHBhrXTHXa/I6zpleWRPT8+o85kmjidvCesF6PH9d2fdXwAAAJrYRD9roBTsYWM9t0i0fRSVP5amtQuFj8T9If+zySZvtU3zKK4emJUMb9e22w7q7F9xZc3p7RvvVP2Q68mzli+/951GRjie/HXoa4D+6j5Z9RMAAEAEota0D9zlpjljrOdy4Rs+xWtvKojWdBLtF2tgo2nuxloEvGHJxOi/d/qg0b/y6pHV9MIE2D3r+vLC0oqVHUbKuH7lyxp9nZl2/wAAAESEJWFtovsjGLV513d0jFkEprNQ2DrKc4OiOUJ8LeZ7/XsyMfozZrxi9N0VZS2jP0Zb63jqmp7+yoeNfAYCXpNWvwAAADR6Miaap23ciK5hpcDxggktogejGE2uRtfImFgiuJ7JsCwLoz/vgx+sLfreibWl115Xc/orcRj9sVpPGnECs2u1jVxPvhiqT55akWRfAAAAxIRF9NMIBvo/4z2T3f6Ri+kQXRxlHLMNYyOb6NM20XVx1i4IbfR32ql2yw9Oqi29fg7r4idp9EeLE3iQ4wSW9vdvYiSE48vlIa8qXu7u7k49XREAAIAGVqGwly3EOk1j99h4RXjqxYMejmj8/6pTrCYYA5Fgj0FC5YrHbcWOjmcWHXtcbem/rp/Y6HvyTtdTjyW5EXB89bzrqYt7+6tbx/0PwfHUP8P2o6dS2TLu9wMAAIgJNpxszLXV/QqFAyfQEHgoovG/PqzQDQsC2USHWELM5z6laviJnrWI/s7z0Nu74ujQBtqrHtHT88CbuMSu40s/0Y2AJ9c7npzrlKt712q1Ma9pdGAPQ+j3l9X+cbwTAABAzLA8ryXEbbrGzyL65bipfpobimHPnRdG5Y/LCNtEF1lET6Rp9C2ip1mGmLMShuscOL78aehT8bCgPTbKbJwdX85xPLkhWa+ALDueOoE3H438ZlxfHhr+vZXvN/IuAAAACcGpcBGM4NKxqszNLRR2iGz8hbita7PN3jxWX/mdWZz26yWH53QSHTlW/1xf/i20Ia5UNh31GeXyDo6vLgsdZBe1eepRx5OzllUqo6o0TsQyr7qdxqbj0ijvAAAAkCAW0YkR3N5PjlVxjuVqLSEej2hkl7Ioz2jPnTtlSoclxLlcACfF0/76ICOC6Cvdm276lonm0vHUHeEMonpuomct7RuYwm52x5dPJOsRUC+7vpqtm0ZYqVTewCmIId/RrfNsAAAACVM0zX10xX741N0pxEHjBBE+G/Hk3ztS358DALnojS3E7IiiRNEa0YpAK0CzrK7jyUfCnb5lb9hn9vX1vaXkyeMdT1UT9QgMtpvdJ0/enAAAIABJREFUsjqY0/zC9M31ZSXcc+WDOvMIAAAgQbra27eI4qa3iP5vtOdZQhwcUds/MP43trW9ohnPYkIW0TE2UX9aRr8eR3AZqwNGmU/P896q4RL/d5QiPL1e5UDXk/NT2Ag8EHgfxrimGML11Q1hn3lHpfK2KPMKAAAgRtjNbhH1xXXvbwvxnaga+sONf5cQ77OJroi6kYjQVltEf+NgPtYNaGRO+e5ew8D+opF3LeuXH3Q9dXVYF3zk6wFPvcTXA6V+OWr9BdeT54V9VslTOzUyZgAAAA0SCOQIYUUw/g/OEYJGPo9z7hswwK41ZcqmbICDyP/0gvpuZWlha9q02E6lvf3qc+E9ANXj4nin6w1szoF8jiefSsEr0ON66pjugYGNXxmzVw2f9uhXvhzHmAEAAETEIvptBOO/xjbN3UduJCwhft+AEe61CoVvR/FERGocuMgufqL3J/HjcTx5Ulhj2OvJfeN8d0+1+vZeX/7A8dTKtFQGe/rvaev11Z6h/86T58Q5ZgAAABpwnfuIBvQbrxHeEWJ2A8aYxYEiZQpotvWcLshpg8Pz9ZPA9eXvQ3sAVqitkugDxwm4vjzI8dVNKXgE1rienKOxcbgqiTEDAACYAEuIwyK62H89/DkcoGcT3RzVKFsRYwU02322ELN0o/gbwfXUopAn4XV9fX2j6ifEyTJv5TZcLtj15eoUNgMTb3o8uTDpMQMAABiBJcQeNtFLEQzpguFyvJZpbhmkyCVvwLVbcfPNa8Xp0zs7ifYcryphUrCwTihD6MuBVPs1MPAOVv5zPLUq0w2AL8tpjhsAACY9Vnv79Pr9t95JnWhgeGoexwDYQjyataEf2bq2e39t8Ukn13puWcKnzNOy+OBcdS/vJ2EuEez0q8PDihXF3+TqLMYNAACTEo7at4RYpW1YiZ7hlLyh53BOfhYldcdr8z+xZ23JRRfX3BXl4Ubmrizmudev7hb+JKwuy6KPr+pvufwh15P/CO7xU9wEJFmeGAAAwHAxHSF6I5z811im+Ul+Brv/LSEuzNrYD7XiVlvVuNzuXVbXWKfrDb2+v0XaPwK3LL8Z3gOgvpeXH6lbLpPrq58nXZb4lbGXV26f9ZgBAKClubGt7U2c6x7J0BYK3+JnsCwvxwBkbfS5dW2//bOLzzqnVupxJzY0njw77fl2PHVBWCPIqXNGzuDcfsevfN315LIkNwC9/dUDsh4rAAC0dmlfIjuSsSUKjOc8oq0sIbyMDX+QwmcVCge6K/yDwhsaeS+nw6U5566n7NBGUKn3GDmmfp0xOwmVwZJfRVlgAABIgro4zz+jGFyL6O8cPW+b5mfq9e6zOe1vt13tlh/N3NB9wAHbDo2L0+Z03NRxC+1MhOvLe0L1zVOPGk3C8nJ5auDZ8OTTsW0APPXnrMcFAAAtR2C8hfhDxJP/zVzjPqiAl06e/mvavF12qd127qyas2zFqNXyHE/9TsPYzE5r3rkIEMcehOkXC/QYTQaPj6sRhq/8N874vercrMcDAAAth0V0fsST/90LTXOGJcSSLAz/wk/tV7v9j1fVnP7KcEP521Ej18Mbm7Wsk5+3DADXVxcZTYjrq11dT/U37gWQN2c9FgAAaCksonMiGuD75hUKX7NGyvISJWr0i+3ttZu+cGht6b+uH8tQHDraOIOCNDkzto5f+XboPnnqWKOJ4BK+ricvCevhCOEB6ct6TAAA0DLU3fZRDPGjRaLfpenyZ7W+7q8dXbura+G4hmJZpSJGG6te9Tm5usf3XxEySgrO69cwgrsaTQJH7Dueui8Owz/smzyY9bgAAKAlsIQ4KaLb/znbNLU1AqI2yzSfX3T8CbXSbUsnPiV6qjrWeJesWvVGnWBAx1dnJv0NtJT1BgbeYeQczlKoiwTFaPhf+R4vZz0+AABoemzT/EFE47/WFuKZVAw/0UpLiON7ltx5ZlxKea4nzwttdDz1WF9f31uS+gaza7WNwhbbYS1+I+e4vjwkbE2DqK23t/fNWY8TAACaFovoxEgGOVo1wCjvKXWa5heHCglpnZLL6uDxxt7TV23XylH35FlJfYdSufxejX5YRk4peV7B9dR/kjT8Q+1uKc2sxwsAAE2JTXRCWq77CIZ/CQv3DK/Gx8ZFI4hsbU+1+vaJ5sDx5Z80DO8LSRmdUlkdpmH8fmHkjFqt9v9cTx3j+OrZNIw/N8gBAwBABIpCfDetU7xmu5UN/2h9dvzqcRoGIlSaWGnFyg6+Tw6/CVBXJPGDc311bmjD16++auQIp1KZ7vrqtliMuk6WgCc/kfXYAQCgqbCE+HrejL9FVLRMc7e4ZHIdv3pK2PlwPXW5htFZV/Kr74/lQ7yqD3J+6D6skDOMHMCqio6vfuJ46qV4TvXyHg62DL9ZqHwh6zkAAICmwRLi6KwU+sZonUUhdpmo3+zO1zqpaxhJFvrRebbjqy4jRrjeQFiZXHaxc8CgkTF8+nY96cV16nd8eSlrBZR8tVf4zZg6Jut5AACApsA2zaNyZPxvtYTYI2zfXU99LbyBln7COfh8Wj3IyCAAMGsJ4L6+Ve/iuYpN0MdTVTb6Q893y9VdkvDyAADApKWT6MicGP9bO4m0y9g6nlyoYVjO1X0+B/eFTcOrG677wwQZhsH11FEap+XzjYyC/JyyPNL11eMxnfrX80ZiZGpljz+wbd7nAgAAmurOPwfG//axgvsmwi2XiQ1GWMNQ8tROkd7jydO1DJknL4nynte+V12c53tvt1zewfXV7XEY/sGTu7ybT/pjvIvCz7+6OO25AACApsEiOiZj47/MJvp0I2NwfXVyeAMj7+HTavSgNlnWOIFucHy1XyNj061LwNoFRkqw0I7jyVkc+BiT8V/Dz6tUKm8Yt2ZA+I3EH9OaCwAAaCos0zwuq2h/S4h7efMx2zAaDlhzPbksLbdwryf31TrNeup+vheP+r7ugYGNwwYgOp58xEiJXl9+kfX2Yzv1s4BTiMBMDogMH18g/57ObAAAwCTQ9o/B8D9uEc3s7ujYOI5xcMqdjqFZ5lW3a/Sdjq9u1DJwnvxH1Hf19Fc+rLG5mWskjLNCbeX6cl5sht9Xz7m+OlEnc8Hx1fMh5+O6ZGcDAACaDDbAGRj+520hZs2fOjWWwLghHF/9VsMQ98bxzuXl8lTXky/qbQKiled1PPlDDWP6EyMhenp6/tf11UztcY/bXzmHhZZ0+xLa8+ApO5nZAACAJiQD47/OEuLSrs02e08Sd9Bh8+PrJ8KT4nq366kzNL0AL5Y8taPue/gUq7EBaDjeYDRKnvyM6ykVm+H31P29/epzUfvj+rIScj66450JAABoUiyi81M99RMVu4R4X1LjcfzK1zUM8DquFRDXu7u7u1+nE5xXN3wrdeIBgtQ6Tz4ScnOzocf3323ESG9/dWvXk53xGf4gKPIyDuRrpF+up/pDvvP2+GYDAACaEC6YYwvx67QMf3Hrre+3iQ5JelyuL+/KskIeB63pytyyXgG702MXAPJUNbZxDQy8w/XlbzgqPy7jz9cvveXyh+Lon+PL5SHnxI3jfQAA0LzGn+iiVAz/e99bW3zW2U8s+f7335j0uNidrmWAJij9GxW+VtA3huryMM92y/Kb4Z8r/9boWDgQj+VzXU89GpvhZ/EkT/2IPSZGTDieckJuOry43gkAAE3FmYbxPxbR5Ykb/qlb1m455bSaU1rGJ9wfpjE2rrqnYYQeDHvqjljmNnQRIp14BNdTV6ele7+sXN09tGEN327gOgpGzLievDPkd78n7ncDAEDu4fx6W4irEjX+7e21Rcd8q1ZasnToxPVCIznvYXEqlU35XRqG6OeJ90czJ37wPrzy9XGf68uBsM/j+/oofQ+U9Tx1dVza/YNjU/clqUgYtrSw48uHk+oDAADkktnTp7/eFuLaxAy/adZu+uJhtbsWdGeivKZXElZu6KlUtky6T0GVOn1FvLVjFQ1aVqmI8M+RD+mqGy5ZteqNnDaoU98ghOF/yfHVz/jZRoI4nrwlb8JIAACQOda0aW+wiP6TlPFfsM8na0uvvW70U6hf3S3p8QXKeCEj4wc3JapopATfdWsbTk++6JSre498VsmXX9EwvNdo9dOXh7B7PC7DX9+EzIvqhdCFKx6G3Ril0R8AAMicG9va3mQRzUvC8M//6Edrt192xbjuVpZpTXqMQZCazqk0odz4sfsn/xHl5My59iPG+efwY6weF6pvXErXU4tiNvwPchVAI0UcX3WF7Vua/QIAgExghT0upRu34Z+3ww61237165q7ojyBEZKXJj3GesBd2Bxw7lM5jU3JawvkKDfKJqDXq7xSDZHFckL//QQa+qU+Oc311bVx3vMPFu5Rv/I8761GyoTVJuA5TLtvAACQKnPb299pC3FHnIa/a8aM2uKzzlnnLFsRziD0Vz6Z9Dh7+6sH6BipkiePNzJgsDyxui+KUeUiOzr5/5yyN9b9PwdkcnU9Xa2CiQ2rXNjbrxITeJoIvtYJuQFYlVUfAQAgcawpUzYNSurGZPiL22xTW3z6j2s9d/T8I+wp1PHkU1wqN+mxOp68NbSR8tWzjSrONS4SJJ+KYFw3uP0VK/zfyH+NHuBXPUVHJjnkZkM5vvyskTGuJxeEnJt7s+4rAAAkAuvrW0R3x2L4p02rLT7p5FrpztJKPs33KvWeRoxQ3HCgnJ4hVb8yMoYzA8KW8o3ahns5glK5ZXkkn3zjfAdX33M8eRoHYBo5IGwcA6dRZt1XAABIyvj3NWz4N9+8tujY42o9ty1d4/jyp0OLPAfPaRiJE5P+xK6vbtboz5q7pTSNHMBFbwbT/ZLZAAyVN+YNUgJCPpEr9iVJaB0AT63Muq8AABC78e8Uwm/I+Hd0DBr+W+/gRX55b6XygeHvcPrlqeGNRHXnJD+x48mPahqtK40cwaI4ETQCwrTH3XJ5h7B34lpz6CknjbTORJUAPaWy7isAAMTGgi222MzefPMHIp/429tr3Ud8udZz0yJeJNdykNho9/dh09nYxZ2UzO6wvswPb7jkhiwD1MbC9dRRjifXx2qoPflC7M/05YO9XvXotLMndNDIspBZ9xUAAGLBmjZN2FOnPt+I4b9r/k1DxmPZyFP/cBxPLg152r47yc/b01/5sN7JVc41cgob1oQ8AXFtJmZlGTgZFv7NhRwTigEBAJqf+Qcc0D5vu/c/o238TbPW/cXDanfa84YWxuDUX6lU3jDe+wL3crhF9h/5iPh+ZQPwUSPHuL48NNYyuw22ujbA7CSK9iSF40s/5Ph6su4rAAA0RPfhhx/U9b7t1uga/5s+/4XanTd2DjPWakWY+3o+BYY2IL46M1F9fR1jlqLsbyO45eqnNYsZJWX8b2V1QKPJ4Lv9kOO7Jeu+AgBAZBYc9qXzilOnbtAx/As/tV9t6ex/jzjlyQvDpnFxZHl4ozt+RbuosLiN46k7tIxaExkzDrBzPfVYNoZfreR6ALoFhPJC6MqLnrKz7isAAGjTbRivW3jAgUUdw79g30/V7vjH7JGL4GPDJWbD4Hry42GNScmXn0ri83KVPM3T/41Gk7G8XJ7K99SpGX5fPuH6amZe8vmjwroEIcd8bdZ9BQAALRZ8+tO04GN7PBj6xL/PPrXbr7x6NBfowpLnFXSn3y2rg3Xz0OMkELQJG+hV93As65cfNJoQluvV1DiI0ORqjvtwBwbeYTQ5s2u1jcLXNJBXZd1fAAAIzcLDv7J/1/Y7vBzqxL/7xwYr9Hly5OLHQWYzo6ZyccpaWOOShOCOTinc+gbgOqNJYdleFlJyfPVc7IafMw48dQXXJjBahJ5q9e0a478k6/4CAEAouvc/4CR7iy02hDL8V1w5muEP5E8bjYR3/cr3wy6yLBkcv0GU92oY//VJeCGSpq+v7y2OJ0/imvVJnPpLvnyix6t8yWgxeMOpMQ+/yLq/AAAwIQsP/MylnKs/nuGf99Fda0suuni80ryz4yjP6vrq5LCLLJ/I4vy8ridP1zv9q2uMZjvB8hhTCgDkSH+OAWnWgL+ROJXKdA0PwFlZ9xcAAMakZhj/b8F++3eOa/h33Kl2269+PbbhHxSXmRnXIu948odhF1k+scf1eZcvr27GVfw0Fvh1XDrXaJa7fk+eHaVCYCyN5XPL6uA8K/zFLgzlqR9l3V8AABiVJR/+8Bvn77XXivEM/5ILLhzvxM8nvEdcT34izinmO+ksPACOry7TOt368q9Gzgk2NZ6cpbWxSbTJCm/wlvb3b2I0IU5/dZ/wv4/qcVn3FwAAXkPXPvu8Z/6uuz08muHvmjGjtvisc2ru8v7xFzhP3bGsUhFxT6/jqe+FXWTjej/r9+vI5HINglKfnGbkOcXPlxfmQfBn1ObJFx1P/SWvBX8mqK4YdrNzaNb9BQCAV1H85IHT5u28y7OvMfzbvre2+LQzao6zPMzp99KJ5Hyj4viVb4c2xJXK9Hjeqbp0DJjjqQuMHMJKi5x/Hn+RniQ3A2qF66kznBVqKyPnuGX5TY1NTqyeMQAAaIgFu+/+wa4ZM156VaGerbaqLT75lFqppzfMwrbG8eU3UtCrD7XI9pbLH0pf9Ec+yXfqRk7g2AsWRHJ8dVOyhlpanNqWaEGhYDMgz8qrd0UnSLQZs0MAAC1K9x577NA1/b/Gv7j55rVFxx5XK91+Z2jD1+urPZPuZ6lc/lhoY+xVvtDIuziIcFCaNryRKnnyeCMHcEAdR9iHrk/faOuvfJLfy5LHXOgmyXex2I7jKcf11bn8e+ju7n6dkQOCa5WQY1jaNzAl6/4CAIAxb7/9duqa8b5BgZ+Ojlr3146u9dx8q8aCrKppRbwv81ZuE7pffvWURt7l+OonWsbJk15PT8//GhnCgY+DmRLynlQM/2B7fPi4B2slVL/Eug+pvN9Tzzi+/De74Hv8gW2zSivk6pNhNzBZ/04AAIBL+e4cGH8uzXvEl2t3LejWXYCXxC24E5/amroi8nv6qu0auu6DrVz9dLyj1ehvpbJlENGfRSqfpy4ftU89Pf/reuqYIBsk3f4843pyPl8XBF6QlGSGw5aHZm9ZGv0BAIAxufmAg3cuTp++ZuFnD6rdOceOstjOjjPXPiyhDbOnFkV/h/y3ntGR842UCU7a5ereji/nZBnYN1HRJTbAbIzrBX+y6ONart/AwkwcUMjR+hxUyNr9cX4Px5fLw/VHVuJ8LwAAaLv9F37uC08tnX1dpEXV8dXPsnK1Op5cGtIoPx1lkWeDpmn815X86vuNlOAMC6csjwxvcJJrg0GPfa8P029WghxUckxGYjhiuqHreOp615e/YZnpklf9PGdLsEZCYqWAfbUk0ocHAIBG6b7yyo3vvP6GJdEDsORJWX4FdjmH7m955fY6z+7t7X2zbuCf46k/GClQWrGygwPf0pLqDbkB+GPEmgrfcX0ls+7/RBsE11cPBNUfPbWINwo8XtdXv3Q8eVqgSeGpY4LmV7/s+ipsBsQNyfxCAABgopKluu7t/y6I6zjQKusJdvvld0P3uV9+V+vZvvqlngFUz0Y5LeqVH1b7peHmd3xVCkrzxuj+n2hs9RTFGxNNH8xbayA2BQAAIuP66qKIC9dadjvnYeqXlau7J1GQp+SpHXmcWkYzIW8I35s7njqBMyzSLMqj8/vQcf+H9W6kHjCYQXN8dWYccwYAAKHhe/toBkK9xMVa8jLV9VS3UKdhx5cPh4kD4Fzyem65xkIul8edzsXlklkGN5jzJA2RJ9c5nvrnsn75waF3szHXul4YI/q/EYLvwB4PngNfPZe1sU5m7tXX4p43AAAYk/qda4QFS67Oo2ypjsBNyVd7Tfw89SMt4+/JDa6vdo1jLKwcOHifLHuTNz6s/y9/z2mDjWnZqxqL8BgJ0tPzwJucfnV4cP3hq5czN9wxNS4alOS8AQDAK7AB1HVtBwuVr17m01gep9L15DlxnVTrxXFWp3mPG9ztl6t7u566WvvdUYyOJx/h+/2S5xXGnFNf3RD+mfKeNLNA7qhU3jYYoS//xF6drI14I43FrNKaNwDAJIYFbVxPPaq9UAVBWfIQI6fw6Tv8RkY+OV5xIteX8zSN/2NRS9ZyhULXVzN1Mw0iG35fljmWYCK9BhZz4loOGs/9qZERg4GR1Z1ZW8D11W3N5h1gz0ZWcwcAmCR0Dwxs7PryLm2j4cn17Ho18p/N8GTYMZU8+ZnRnsOBjdqLuKeO0q8pUP0SK8WlIdgTpGr6qsj6/GFP6ZwD36ynWI7DqAdwzqxnS6Svhhj+t/NY1vMFAJgEsLs0ivHgvGajCeAgNo1xLXzN31cqm2rn1HtqURijGmxQ2MXvy6sCadpUDIxc7fjqMneFnKE9l5zrHn4ulxo5hgMJgw1BWX7T8dTvHE8uTu8bTDR3ysl6fgAALU4QVBZtgTrBaBI4M0FnbD39lQ8P/3uONNecnzUTGVf+73XZ23QK4dSLMfHpN+q1BGceaL1TU1shD/CmjWM9AhlgX/3Y9dSfg42Brx5IdQPgqxuzngsAQAtTX9DXRFicfms0EXzS01zArx36215P7qu9gHvyvLHu9es5+056Rp89NXI+x2k0qmnPxlDj3WuTFD7KgkCZcIWcUfLUt5K+PmCPRNbjBQC0KCxlG0li1VN2Xuqq6xBI44Y34Ou4CExdZGeV3uZIDgwP3rpbStP11YksopNqIR5PPs269b391a3jmL/ly+9952BqYOg+tJyMLWcYDGpkpJKN8cOsxwsAaFFcT14Swfj3p1UyNaEyuBs0DPlfuWku2hvYY8BqdbyAu766XeedMRmOpb1e9ei4I8h1r4p6+6sHGC3CK+WKU0wrZMXFrMcNAGhBgtKw+obp8VKfnGY0MRzgp2PMI2yQltRP+ukafV89y0F9w9X6Yp87reA/dV/cJXSzgg0xl+VN83vmLXsCANAi1N3a92kuSGt6/epuRpOjGwyY98ZFefhkyuVzk5w3/vZaffPk2UaTw4Ggjidvyejbro1bOhoAAKJEtHM7uRWmjiO8dU6yeWwcfMan/TQ3ZK4n/6HRv/V8BWI0KXzydn01O34vjrwrfAEjWcl6HgAALcZgvrmmwfFVkRXVjBYhENrJgSHXVlv0pMWR/OMpFSaBWy6TVqaIJzuNJqTH99/t+vLCKFLY42+I1P3spenre+QtYTcVjifnZj0fAIAWoq6It1xv8ZKPLO0bmGK02Dy4nlyWuVEPK8/bL09lI9w8lSHlQUbzZcPMjF8ASK7mmgp9fX1v4fc45ZXba2wafpX1vAAAWghWO9M0/uvZY2C0IL2+2jPHRv/JIRd/mkV0RoO9DXqR7/KhZrm7DrQhPHWM68sHY/1+g6f82VxbY/j7SmV1WNhnsM5AdjMDAGgpOEhMN4XJ8eX/GS0IewB6K5UPuL68N2tjP8xwrnZ9+Xe3XP10ngwo1zLQ/M1kVvhHOwtG0xsWst0+UkVyCNdXPw/7HN6gpj8rAICWREsEZxQxm2aGXbBc5tjx1ZlczY9T5rI3+EFb6/iqy+lXX006ij8qmoqFa7K8qggDe1Xqsr5xf0vJGSbjvZuLD4V93nilmAEAQLPMr3xRa0ErVz/drFPc6/tbuL48tB7Q1RN3UFcMwXwL2PXMQWdGjnH6K3vojM3x1DVGTgk8Pp7sTCQjw5M/7Ovre/1EfQjtcUIVQABAXLieulhvYZP/apbZ55NSINQyWFRnTvg0q/RaEEsRiAOpE5opoJIj0XXGWeqXHzFyRo8/sK3rqasTkGBm781lvUq9J7z2Rsi0Qk8uSH5mAAAtDxdj0dFvZ/c4F6wxcqjB7paru9TvpH/Bin55ruXu+OplrpngeurYZiyIwwVvNPPge4wcwfUXgnLHSXh/PDl/mVfdLilvCjIAAACxwFXp9AxX9ZQcbFg+zlHQrq8u4sU2gmphVkb/WcdT/+Rob96wGE2M48s/aY29LI80coBTqWzKqXfaV17h2pJl5eruUfrl+vI74TcY6qj4ZwYAMKnoHhjYmO8TNRaex4ZylpOAxYTqojK7shgP57c7vry0flLu16w0l6MmK46v9ktboCcp+BsFHozQGx/5cNZj7+tb9a7Ba6AEAjw9tYIFmBrpX90bEep9HK8Q38wAACYlHF2us9D1luX5y8vlqa43sPn/b+/OoyepqjuA1x/xaFyCS9CoMRoVjctR3HEXgwtGUVRQ3NdxC4pLQBYViXrYjKJGnICoOHEZFsXgQkYZEFTA7lc9M79f31d1b82PAQcIDsgoi84MnJz7qgYG+M1MveqqflXV38859U9OmN/r6rbuq/fuu3f16nX3WezSPU/9/zFp+tghyVN0aTNvLJS+Nqbsja7XveV/jy2faIjPdLXUXXCXq6fdIGeqF/HhUU8Y4mM8P/tRoYv4NLEd5NpAkyypo6lRkYxa5u9uDj2ZAoAeaOi4E67t34PjQxfumdQgy3aJia/zCP43hUhs1Kz7oojPlbUHfsvX6KRCV9DqK6ZUbkVF+1TU8TcBYIYV/ej7+8bd0stY/rpWmIs6KiY5wu/zytJpjs9tI1nez5Csrf/7y0v3asZ+nWMeJckzSt9Pkm/X+bcBYAbpknToYDirl257lD0e1iZuOZ3k6tKflXiLmZfdpjE2XYYfWn6z5ls08J25I31NFd/xSQA0xB9rYgwAMEMMSRw6EM7yZUiy0VgeH3WIa4jj9zmXNz0mXU3REwZNBH5dITOWz9BaAU1+Bq1DUHZM02zxDAA9pG8yWP6/9SF/c3HC4Mex5S2eQWJznMjplQOMy0jvRmc8LfvsW0TJ2OxpjS/1W04amqRVPtLnKyamsr83XYWZxpgAoKd8u/716+IrXM114iO1QuDF4/H9ij7v3o1/9JiiJvXpvv5kb5mytO19FUaWP+L12RqqVqeNkEaUvUNXUJr4fbgGQFMsc631IMpWIdS+C9MaFwD0lOsqFzwQT6Gmvjt/z2cBzR/CAAAZXklEQVToMTRj+ZWL7eHq3rE2APIPFHKOvoXe2jbWymkTjneVHp2MWujXl132174tcUfEL6k78BvL72omuU8vXqfHYrd+p+1sO80nTnNsANBD7vxy6ABd78P7Ul3C1/Ppmgi2asxPLntEy6cF623Bn6+649E2N5Eg/uqEn+MGLQ3ctqOCmnjmd39kWNdncIHf7fELN/HbKbY1ajvS58tY+WTpsY7lrSHGCAB96vwXPGB7X5vyAKCtevlreTIa76eFhiYpqatbAL65EK5xzzh70fb+TWPlExPnVxD/fJCmj4haQNsQe1WLzCdIr6wt8JNII7+p/DMdoqsbUUA+q0/DJHlMyLECQMeNxtnLWxDQtwbTW/QNzFiZ0+Y9seX/ji1/0RAf5pr6EO+pVQfrqLR2R8M5fmSl6nDEn97Zv21s+s6Jm8zkZY8PDl0zwOcNNf9OxUzy9q8FfBoN/FY2aP5HG3oxuBMMJUsT62912tsTANAzmrhW+mE+lmUaiA3JB4s326O3vXTJWxPYtr2KEr9HF4HjYK3GVpzP3k9LAmtmtXZK0yX0JgJ76Yx2TfbyDspyftkxuxbEuqQ/8SRJjK50ROHq5183jbd/zW53ZaIbauzkqvcRH64rGlFL6CmJ8uOXn4UeLwB0nLH8jbIPnWGSPC/qIWN5WYXgf7U2wfH5O64XQg1Ja8VRxZOn3TbYu1Nkhbd/nWS4yaLnNkP5742v0zd+LWEctUxs0w97TAA+GXq8ANBx+VJ7uYeOHo+LekZXM6oE4KpZ7dogKbZyVj3BTDbqqoouk0fT6fh3vd8Yy9c0KNo6H+m7wuARMK/XlSidYEQtpc2wSn+ecfr80OMFgI4zlm25ByhfG/XMYJzu4dPG9raHLx86yd91tQJIPlQkM9YR4HjS9rM7E5N8y2+SJHGZt3/XTdLyCdokqInAn2+78AkhGhD50HtVuqwy8U2hTikAQI+UXmolmY96RANCbGV9hTfJH9V1pE23VKqMYQdjO1cbyUQ102OUZYvTlN371+0QrZXg+++WvohvMsRfmPY2SVWaB+Px+c4LPV4A6IGyb17asCbqCT1Spgl8/gGWF7RSYJ1jyZe+5ac1n6Q4s84jYhpwPMfx6+39W1q7XisvNlV6Wld0XPKpZ35GaLGVg+o8eQIAsEN51bvSD52f9OV2agJdhTfKG02y9omNjcnyfnUmvhVv1st1iX2ScY3G8uoK92rPO9XpT2RfQ3xxE0E//7zyZ60JoXUtog4yxGeX/axaLTD0eAGg4/IGKqXfrH4U9UCx9+4fYKZQdS3fluDT6w6Muge+Kk3/3nc8mlzoXXGP+Mdb/3vdp9Zyva65UkOBX/f4dam/a2/8i6xIbSz5v8O/tL1PBAB0RF4jfzZWALTuQLWCPNOtuZ5XJJTf1ToR0GRHklO14FHZcRjij/pNNvjmUZo+aSRy/6JVcG35DdvpnHjCYHzpA6OO01oYHvf4gtDjBYCe8Dja9auow1ylPy3+4htoiC9O0/Su0x6vHhfUGg0N7JVv0m6FOystrEc+fSsjGstnG8un5KsOzQR+t01CckS8sHDvqCd0T7/85+ejQo8XAHrCNc4p93BPoo7Sam/G8hr/t0y+qsrSeZ1iK8+OrQwaCKabtQvk9qoKGitf9rtXcnPcUGLfrU16WlKyt246ufa4F88OPV4A6InSwYX4pi7WHtcxa/5ChaCzqS2VD13dANcBj69sKLheqEmIW8saD+zCP9VYo2DCiy/VvI3QTXqaUhSGKrUtpSsyoXtBAECP+FQf62KGtW/52tsmPLIkahl9+zWWj61SvKhUgNGiUCRLNN8jeODX5j8kSzRBLuoxM5YDPCZDp4ceLwD0iGviU/YBlMi+UYcYyt5QaQ+d+KtRy/MZ9IhfU2fpQ15aQdBQ+tourjZVkXe8LD1Be1fo8QJAj8Qkby//cOajo47IO6v5d9/T5fBp1Navw5DkqTHxz0MH7ZquX+nph7qqLHaoDseGPq/AAUBPSpBqy9yoA1x9+bJ11W938To9whZ183hjE4mCjV5FsaKz2pJr0ebjf30rxQ0AbSkGVLIIiV6jcfaoqMWKffI1lWrH2+xpUUfpm/Mwkdc3W3SnrsAvf9aaBCZNHxvNMJ/tN0Py+dDjBYAe8qpFT/JvUasrqvkvieteugbPqCcTumIiMB860N/pPlu+SvvY97GtdBU+E1Uzzl4UerwA0ENDkvd6PMgHUUtpxb5KwYn4yKhndCJQVBQ0oQO/lhPu81G+CRI5y/4+r+tKXgoAdMyQ6EE+GeVt3LM1Nvt4xeB0Wp8Tz1wdBEpfG1v+7fTf+NPBrCX2lVWUSi55L/k7occLAD3m06mtbY2BhpS9pmJf+UHfG6u4CYAmCZKcGjdZone7b68yr3vd2gY49L1ok5j4krL3cGT5daHHCwA95vNGosFWq8VFLTBKkmdoq17/4MTrtPte1FNa699Y+YwhuXzqQX/7FxviYwbjdI9ZOee/mDXMDym74ua6/2XZLqHHDAA9polZfoE0fFUyt49a4bifsfInk6x9YtQzusce2/RNxsrK1hcJ0qY+Vpa7an896OjnI7ZykMdv9WehxwsAMyAmOcnnIT60/NJQYzVpuqt3r/pi9WJIvE/UI8MxP9MlQBJfFzywV7j0O3FbUMRH6orO1p4EfWWIf1l+ApC9L/R4AWAGjMbyeK83R5JxiFrtum/vk7Nw+yv9cNQDq2jto10bWa2Z34IgXuuEwMqfYuIVui2l3Qr7tF2g204x8ZaSE6NbQnejBIAZYqyc4/ewzj4+zfHp26Eh+UHFwLI06rCLx+P76ZK5litu/RJ/rRMCvka/c0PyQS1/3OWOeHoc0uOz/yb0eAFghsRJsrtnRv0mXYKe1vgMyVcqBRLiH3cxcOT7+ryfsfw/ZdvG1n/xd2KSk9uzxcA3xCTna6dHV+sgTXeN+njahuRDoccLADPGWP6G1xsaSTaNTOWY+PCKQWMwGo3uEXUp6CeyryH5XrUTDjVeJLL13q1cWLhbbHn/YjKyKfxE4Pa/Qdch0WYf16p5c3OX3Tdq48mMstn/OglPkgeHHjMAzBh98Bgr13s+gL/f6JhI3l5t2Zsv7cJxPyK6lyvha+U033vfXFDlm804ff5i49W37iHxgdVzMaYwfssLxXbR5/R0hOYThKz7YKx8ovT4Sc4PNU4AmHFeD6tbH1p8eBNj0az9SsvfJBuHNntC1FKrV6+7j0n4LfmbazuC/h2uL5X5HFoTQhMSjZW5Fox5x5MC4lsMyVrdEoqtHDei7B168mA6K1jlGzUZm76/6fEAACxKa48bK0Pfh+vQ8pvrvKUjKy/UTn3+D3r5s/637cwClyVFsmWrltG3t/TvezrBEB/WxfbEseUrixWN5bGV4/OkQ95H82Im3VIYpemTyt973rJ6dfaASf4eAMBEhknymAp70JvicfriOm69tuc1Vv7oH/w1iZH3b8vXH8/z4/RIW5G9X6VkcWuW/r0+Ny08bGT5I1353Du9L/pbzLssnudWbUi+Yqx8Krb8Ae23MLTyz7rNoG2OVyfJw3WFZ+uWQ2z5ix4TgBW1/PAAACahb0GVlt4nPBlg5mU3bR9bLYCFzZ7WN2eXnW5lqSH5XbCgRbKxygQqtnxCEysfutyeB07+Q+hgPuVrc9mz/3rpfar7/gMAeNNOblqO1DsIW/lj1a6Bg7nsHwzJZVUetlr/ftpfsxaq0Te/2MrBxsq5IZf23Zs28QozlgMM8ZkV7t9c02179TimNgeKrXxWt5lmqabBzi++4aI0/Zsm7z8AgF+ymuWkysNMj2T53GrNLjeWbaWHJ8nJ02o967ZH3NIvn6mFaoIHDuJVus2gkyc3PuIDq+RNhOiRoKsDZixv1Y6FVSd+fbmM5WXTvv8AAGWSu/yXbolv1OXwMrdX33x8Ew+3uc5qstBPXnpXjyLKt2PLV7QkWCzoW7SWcF4kd+Ivvv+e7tdHLaD75267YAYnBCPil4S+/wAAd6LJfdWO4+n+545r8OcV71xylX8gJLmozkI/2t/AJXPlZVuXV+k42NTlVhs0MCbZXoutdhSrNQsVvqMVba25rxOCYvL1X26lw2M/vWPX+r43QgKADhuSvLfqnq2x/LXF3tL1/6Zv8NX+TZnToFf186RpelcX7C2/y2V158fANrUw+/xUY2XvHa1y6ISg4n3c0KWqc3Nzc/eMifc0Yz40JvmhHt8L/R3V8j0THxP63gIA7JAuFVd+0BGv0KY2W/8tfeNxteYr/Xu8rmy3NA2Ow/m1Dy1WMQ6KLX8zJh61LdhvE/S1MNBpI8uvK5uUV6V4Uz6Z41d1/Sevv4PROHt5THKE3jetY9C55MJ5flzo+wgAsFOG+KOVgxvJ5ZoFrkvOvn0Htrk2aCLetmPSQKlV6TTxMN9D1na5/F1DYlwDmdAP+J1dJL83lk/RnAnfTPw4yf6lyll7Q/yFvv7cNadkVZI9V1ettKqhOx1Bcnnw73nx/01cFPp+AQCUZiz/+wQPvc2x5d9WD5Z8Sd4ili8oSqxuCP0Qr3bxpa5IDPELqu7/Duf4kVUSNDXoaMXHWfvJ68QgTrKnuzLMroQxL9PWuyFzPYxN3xn6vgAAeNFl584ttQa+jOU1OnlaNeYn17Efrv9ehTFco1si+LnfsfKlnDT1tsskG7vUrRIA4FbuDHdL99Lbsp+ft9DlD2hL2Lp+OrqFkifBeY6H+JayRzP7TrdadCXArSSF+o0QfzX0fQAAqEz33auVne3npf3ptRSwBlo9adDET0v37yuO77hoxrktgPzUR/CyxHWsBAEABDUYp3sY4v+byYCfVwPUmgFL1jA/pOl7rasJ1SYm/IsmCya1WV5img+LiSn07+W2i38b+r4AANRCg58m6PU+4LuJDp/umiUlye7TLOBiEnlZtWI4fOnA2r+NZojWiHBFhKycO42OhGbstwqm9SdC3yMAgNrokrer2taCQF3fxetcGeCE361HDUP9XHSyUWmrhfjGWVlq1kmOBtaY5KdTzE3ZoDUI9BinR/C/Fsl/ANBLMcl7qtSkD37lbXRX6l75MJHXtyVbfkj0oMq18UneHvWYFpdyyXwu2XKqCamsJaM1kM/NXXZfY+VPHv/tzOdiAECP5Y1pqnQSnGKwJ/6lIfmPmLI3atOfNtbEd8f9XEGjKp+Tvxj1kJYvdl0PSc6fxvL+7X83vEK3Yrbtx1BUISz7328ZWfuPYe8gAEDD8kY/fELIegG6Z5+/1fOJGjT01ELZMsKhadKeIT67YqD6SZ8azJh52a0oRf2raQd91y7Z8ilDmz3hjuNaubBwN6+eBCQ/DHMHAQACGBLv00C1tS0uIY+YDPGF2lfAEB+tWfJaG14f1vHCwr27+oW7Bj8kJ1cL/jLf5c9+2zn9bC/3nernCTGBJLna/f0dNEwyNnuf12Qiyfaa7p0EAAhs9ersAVrCt9Y3MysrR1ZeGPWQnlWv9raqk6KFh0UdpEmW2j7aWDknJr4pRNAvVqvO07wCfbvf0XhdQysS8ZmYLdbKGQBgJsSJ7Kv9z2t+aF84tPzSvjxcYyufq/bGyjcNx/zMqCMGg/V3v+0tP/QZfb5Cx6H9FcqOXzs2+n0/8rZm7ygAQMsNsmwXzQ2odqZ9hw/xVDOzfTvqtUls5ZCKk6CbY8v7Ry2mb9RmnD7fWPmUrt7o3nrYoC+bjOUztKNilXwJY2VY/vuRy2exARMAwKIM8bNi4lV1P9iN5auMlU+aNN21S7fedz/5DtdBUQuTGIckT3GTGuIVoZb173Tlqw2H6LZU1c+myaR+fzf9cL13FwCg44p91Pc0UkqY+EZj+et6JDFqudimb5ogu/34qAVcRjzxC2LiI3UfvTUBv3gDd0c+k+zpdXxWN6Ep+7ctX6PHOev4uwAAPd0WkOMaLCA00CpxbazAZih7Q+VWtMTfDVW/QAsUaU6HsXys1lRoU8DPL77SWPnyyGbPqfMeFasaPt/RUXX9bQCA3tIkLEN8ZmO1A4ivcxn2SbJ71AIjyt5ROReC5KfT2lfWMs+aYOiy9Em+ryWSwwf4Re/J743lr8XEezZVB6GoOlh2EnJD17aiAADCt231etBWChbzk+4FT7rnX3Wio0l0TSU76mkKNxEbywFaTdCQXNTq0s550P96PE5f3HTHwyHJUz2/sy81OR4AgN5yWePEFzQcRLSG/Fm6nD2tN2pj0/dXDv4kFxHRvepcyh9R+grdu3eTLpLfBw/qO78HmasymWR7DQaDu0RT4moUlB/n5q7WZAAAaA1jZW9DfHHjgcXytVvfJhtbQh7zoRMEPlO1yp9ObnTro2iT+2VXVtfK9aGDeclrU0z8cz3tMEjTR0QBrEqy53r+lpaFGCcAQC9pQpe+pU6jv4Bmb8ckp+rbcR1Ly5qI5jLRq46JZL7MfrIu4a9Okocby680xIcZku8ZK3NT7pZXx7VBg6gW3NEk0SiwolNk+fG3JM8EAKBXdC82tnz6FBvDrNeGQroyUGWbQJPoNGN/gr/Pg/GlD7zTXv382ofqmPTNOCY5SVdJPFvTtubKm+7IuW7SYrOntamZkW41eH0WKz8KPWYAgF5z9eNJTtIz/1MLVsTXafMhrbxXZi9e3141sFUOjJavcnv0lvc3Vj6RNz7SFsF8Q+igPVnA51uM5dWG5PO6xdPGI5pbxVZ+4/O58PYPADAlF4/H98vL6E73eFrx1nqOliAejbNH3XFc2vtdg1zoYNueS78f/qYWPrp4buHvuvA/EO0u6fk5l4ceMwDAzNF99iKjvXSltponBGuNlaWx5f1GxC9ppMJhhy6XrU9yakyyJJ7nx0Udo9sQxvKa0p+ZeMswSR4TetwAADPNJGufGJP8pyH+Q+hAOBOXFjTSREUrS7Wd7hrmh0Qd5yYuXveBvxl6zAAAUNCCORqQXLna0EGyR5cemdRqhHn9ANm7DZn6ddL8Di0n7HFPNumWT+hxAwDA9pIGrRyviXWhA2jHrs2u/a2uqCT8llW09tF6CqHPPzJj5TN+94hPDD1mAADYCT3X74oLWV7W9Wz6hpbyx8UZ/I9oAZzBYP3dZ+lHpdsXXidLtBFSkjw49LgBAMBzi0CT9oreA9W68nX32ux6IpCc6k4y2Ow5bT6ONy2G5Ns+91GPMoYeMwAATECL7QyJDyz62Vfr0tfWi+RqLadriL+gXQi1mJIWKMIP5va0CJFXgSmSjej4BwDQI9olsOjY94uOTQa0EuDAWP6GLuFrFbtQHQ+7eIw0Jr7E834fHHrcAADQEH3DixN+tyE+e6pVByte2r5Xz69rH4CY5IjRWF6thYraVF63jWKS93iuqghWUQAAZupYodaG5xMMyeWhg73ntcnt+VtZrsf3NPdBC/RgYlBUk/RthZzIvqF/jwAAEIBryKONiYg/rUvHU2xOVPPFNxT9BU43lo/VrQ9XyXBedqvS/KiLYpKTPe/beaHHDAAArepJwPtrII2t/DF8YJ/8yic1vE7b4RrLp+iWgqHsDcMxP7MvuQWG+Fk+kzf9/x2l6ZNCjxsAAFpK68Lr8Tp3xJBkY+hg3sgEwcr1xspcbPl/8+OEfIy2JzZjOWCYJM/T4ktluiaGkrdqdtsi5T83ycmhxw0AAB2h++y6XWCIP9bnCcH2L1dwiQ3xBbGV0/IcCj4sJnnbkHgfnSzk/RsWHhYvLNx7Wt9LngvhFfw3dqWTIQAAtHtC8NGY5Iez3jlwsUsbORnLCzHxyNVmsHJWTPKt2MqXYuKjinu3RCcRLqHRFXSSvTVJc2TlhUOSp+hl0vSxq5Pk4XrNzV1239Wr191nbm7unpoAqScm/MYkHwz92wEAgJ4ZEj2oCGT6dnyhy9pvQSDGdes9GODEBAAANE73zvVt1oz5UGP5DE3GQzAONCEh3qJVAvGzBwCAIEYi9zeJvMxY+VTev4CvwKRgGtsR8hX85AEAoIWTgmwvTTDUTPxizxzbB7VNAPjKQZbtEvp7BgAA2KnBYHAXl1Vv0zfFVj5nSH4QW05nsOPh5Bcq/gEAQNfpufehzZ4wsvw6rWBoSL6vVQBNTwoX1X0Zy8tCf2cAAACN0sp+sZVn67E6Y+UzrpmQlUFsZUPoQBzm4iv02CB+dgAAMLO2npsfjbOXx2P+19jKcUVToUs0UHa3D8L2rxGlrwh93wEAAFpt5cqVfxUnyYMH43SP2PKrhsQHau6BFu4xVn5WJCau70pyovY9CH1PAQAAekWX1bVHwKoke+6QstcMSd5b1Do4NiY5yXUlJP5FnpvAC8bytVOdAJCMR6PRPULfJwAAAHAnG9bf3aTprlrSN06S3TVfwYyzF7nqiZS9UcsC62QitnJIcX3WEB/tKitaWbrtlU80ZPli12gsj8cNBwAAAAAAAAAAAAAAAAAAAAAAAAAAAAAAAAAAAAAAAAAAAAAAAAAAAAAAAAAAAAAAAAAAAAAAAAAAAAAAAAAAAAAAAAAAAAAAAAAAAAAAAAAAAAAAAAAAAAAAAAAAAAAAAAAAAAAAAAAAAAAAAAAAAAAAAAAAAAAAAAAAAAAAAAAAAAAAAAAAAAAAAAAAAAAAAAAAAAAAAAAAAAAAAAAAAAAAAAAAAAAAAAAAAAAAAAAAAAAAAAAAAAAAAAAAAAAAAAAAAAAAAAAAAAAAAAAAAAAAAICo6/4f0e78J02q/+cAAAAASUVORK5CYII=;" vertex="1" parent="1">
          <mxGeometry x="350" y="220" width="60" height="60" as="geometry" />
        </mxCell>
        <mxCell id="CO1QLuTFVFyR8qx9ADlM-2" value="&lt;font style=&quot;font-size: 15px;&quot;&gt;&lt;b&gt;SQL Server&lt;/b&gt;&lt;/font&gt;" style="text;html=1;align=center;verticalAlign=middle;whiteSpace=wrap;rounded=0;" vertex="1" parent="1">
          <mxGeometry x="400" y="250" width="90" height="30" as="geometry" />
        </mxCell>
      </root>
    </mxGraphModel>
  </diagram>
</mxfile>
